  0
SECTION
  2
HEADER
  9
$ACADVER
  1
AC1012
  9
$DWGCODEPAGE
  3
ANSI_1252
  9
$INSBASE
 10
0.0
 20
0.0
 30
0.0
  9
$EXTMIN
 10
1.000000000000000E+20
 20
1.000000000000000E+20
 30
1.000000000000000E+20
  9
$EXTMAX
 10
-1.000000000000000E+20
 20
-1.000000000000000E+20
 30
-1.000000000000000E+20
  9
$LIMMIN
 10
0.0
 20
0.0
  9
$LIMMAX
 10
420.0
 20
297.0
  9
$ORTHOMODE
 70
     0
  9
$REGENMODE
 70
     1
  9
$FILLMODE
 70
     1
  9
$QTEXTMODE
 70
     0
  9
$MIRRTEXT
 70
     1
  9
$DRAGMODE
 70
     2
  9
$LTSCALE
 40
1.0
  9
$OSMODE
 70
    37
  9
$ATTMODE
 70
     1
  9
$TEXTSIZE
 40
2.5
  9
$TRACEWID
 40
1.0
  9
$TEXTSTYLE
  7
STANDARD
  9
$CLAYER
  8
0
  9
$CELTYPE
  6
BYLAYER
  9
$CECOLOR
 62
   256
  9
$CELTSCALE
 40
1.0
  9
$DELOBJ
 70
     1
  9
$DISPSILH
 70
     0
  9
$DIMSCALE
 40
1.0
  9
$DIMASZ
 40
2.5
  9
$DIMEXO
 40
0.625
  9
$DIMDLI
 40
3.75
  9
$DIMRND
 40
0.0
  9
$DIMDLE
 40
0.0
  9
$DIMEXE
 40
1.25
  9
$DIMTP
 40
0.0
  9
$DIMTM
 40
0.0
  9
$DIMTXT
 40
2.5
  9
$DIMCEN
 40
2.5
  9
$DIMTSZ
 40
0.0
  9
$DIMTOL
 70
     0
  9
$DIMLIM
 70
     0
  9
$DIMTIH
 70
     0
  9
$DIMTOH
 70
     0
  9
$DIMSE1
 70
     0
  9
$DIMSE2
 70
     0
  9
$DIMTAD
 70
     1
  9
$DIMZIN
 70
     8
  9
$DIMBLK
  1

  9
$DIMASO
 70
     1
  9
$DIMSHO
 70
     1
  9
$DIMPOST
  1

  9
$DIMAPOST
  1

  9
$DIMALT
 70
     0
  9
$DIMALTD
 70
     3
  9
$DIMALTF
 40
0.03937007874016
  9
$DIMLFAC
 40
1.0
  9
$DIMTOFL
 70
     1
  9
$DIMTVP
 40
0.0
  9
$DIMTIX
 70
     0
  9
$DIMSOXD
 70
     0
  9
$DIMSAH
 70
     0
  9
$DIMBLK1
  1

  9
$DIMBLK2
  1

  9
$DIMSTYLE
  2
ISO-25
  9
$DIMCLRD
 70
     0
  9
$DIMCLRE
 70
     0
  9
$DIMCLRT
 70
     0
  9
$DIMTFAC
 40
1.0
  9
$DIMGAP
 40
0.625
  9
$DIMJUST
 70
     0
  9
$DIMSD1
 70
     0
  9
$DIMSD2
 70
     0
  9
$DIMTOLJ
 70
     0
  9
$DIMTZIN
 70
     8
  9
$DIMALTZ
 70
     0
  9
$DIMALTTZ
 70
     0
  9
$DIMFIT
 70
     3
  9
$DIMUPT
 70
     0
  9
$DIMUNIT
 70
     2
  9
$DIMDEC
 70
     2
  9
$DIMTDEC
 70
     2
  9
$DIMALTU
 70
     2
  9
$DIMALTTD
 70
     3
  9
$DIMTXSTY
  7
STANDARD
  9
$DIMAUNIT
 70
     0
  9
$LUNITS
 70
     2
  9
$LUPREC
 70
     4
  9
$SKETCHINC
 40
1.0
  9
$FILLETRAD
 40
10.0
  9
$AUNITS
 70
     0
  9
$AUPREC
 70
     0
  9
$MENU
  1
.
  9
$ELEVATION
 40
0.0
  9
$PELEVATION
 40
0.0
  9
$THICKNESS
 40
0.0
  9
$LIMCHECK
 70
     0
  9
$BLIPMODE
 70
     0
  9
$CHAMFERA
 40
10.0
  9
$CHAMFERB
 40
10.0
  9
$CHAMFERC
 40
20.0
  9
$CHAMFERD
 40
0.0
  9
$SKPOLY
 70
     0
  9
$TDCREATE
 40
2453791.390765335
  9
$TDUPDATE
 40
2453791.391223773
  9
$TDINDWG
 40
0.0004622338
  9
$TDUSRTIMER
 40
0.0004607870
  9
$USRTIMER
 70
     1
  9
$ANGBASE
 50
0.0
  9
$ANGDIR
 70
     0
  9
$PDMODE
 70
     0
  9
$PDSIZE
 40
0.0
  9
$PLINEWID
 40
0.0
  9
$COORDS
 70
     2
  9
$SPLFRAME
 70
     0
  9
$SPLINETYPE
 70
     6
  9
$SPLINESEGS
 70
     8
  9
$ATTDIA
 70
     0
  9
$ATTREQ
 70
     1
  9
$HANDLING
 70
 10241
  9
$HANDSEED
5
2396
  9
$SURFTAB1
 70
     6
  9
$SURFTAB2
 70
     6
  9
$SURFTYPE
 70
     6
  9
$SURFU
 70
     6
  9
$SURFV
 70
     6
  9
$UCSNAME
  2

  9
$UCSORG
 10
0.0
 20
0.0
 30
0.0
  9
$UCSXDIR
 10
1.0
 20
0.0
 30
0.0
  9
$UCSYDIR
 10
0.0
 20
1.0
 30
0.0
  9
$PUCSNAME
  2

  9
$PUCSORG
 10
0.0
 20
0.0
 30
0.0
  9
$PUCSXDIR
 10
1.0
 20
0.0
 30
0.0
  9
$PUCSYDIR
 10
0.0
 20
1.0
 30
0.0
  9
$USERI1
 70
     0
  9
$USERI2
 70
     0
  9
$USERI3
 70
     0
  9
$USERI4
 70
     0
  9
$USERI5
 70
     0
  9
$USERR1
 40
0.0
  9
$USERR2
 40
0.0
  9
$USERR3
 40
0.0
  9
$USERR4
 40
0.0
  9
$USERR5
 40
0.0
  9
$WORLDVIEW
 70
     1
  9
$SHADEDGE
 70
     3
  9
$SHADEDIF
 70
    70
  9
$TILEMODE
 70
     1
  9
$MAXACTVP
 70
    64
  9
$PINSBASE
 10
0.0
 20
0.0
 30
0.0
  9
$PLIMCHECK
 70
     0
  9
$PEXTMIN
 10
1.049999952316284
 20
0.7999999523162842
 30
0.0
  9
$PEXTMAX
 10
9.449999570846555
 20
7.199999570846556
 30
0.0
  9
$PLIMMIN
 10
-0.2500002402958907
 20
-0.2499999962453767
  9
$PLIMMAX
 10
10.74999951940821
 20
8.249999763458731
  9
$UNITMODE
 70
     0
  9
$VISRETAIN
 70
     1
  9
$PLINEGEN
 70
     0
  9
$PSLTSCALE
 70
     1
  9
$TREEDEPTH
 70
  3020
  9
$PICKSTYLE
 70
     1
  9
$CMLSTYLE
  2
STANDARD
  9
$CMLJUST
 70
     0
  9
$CMLSCALE
 40
20.0
  9
$SAVEIMAGES
 70
     1
  0
ENDSEC
  0
SECTION
  2
CLASSES
  0
CLASS
  1
ACDBDICTIONARYWDFLT
  2
AcDbDictionaryWithDefault
  3
AutoCAD 2000
 90
    32768
280
     0
281
     0
  0
CLASS
  1
ACDBPLACEHOLDER
  2
AcDbPlaceHolder
  3
AutoCAD 2000
 90
    32768
280
     0
281
     0
  0
CLASS
  1
LAYOUT
  2
AcDbLayout
  3
AutoCAD 2000
 90
    32768
280
     0
281
     0
  0
CLASS
  1
LONG_TRANSACTION
  2
AcDbLongTransaction
  3
AutoCAD 2000
 90
    32768
280
     0
281
     0
  0
CLASS
  1
LWPOLYLINE
  2
AcDbPolyline
  3
AutoCAD 2000
 90
    32768
280
     0
281
     1
  0
CLASS
  1
HATCH
  2
AcDbHatch
  3
AutoCAD 2000
 90
    32768
280
     0
281
     1
  0
CLASS
  1
XRECORD
  2
AcDbXrecord
  3
AutoCAD 2000
 90
    32768
280
     0
281
     0
  0
ENDSEC
  0
SECTION
  2
TABLES
  0
TABLE
  2
VPORT
  5
8
330
0
100
AcDbSymbolTable
 70
     1
  0
VPORT
  5
44
330
8
100
AcDbSymbolTableRecord
100
AcDbViewportTableRecord
  2
*ACTIVE
 70
     0
 10
0.0
 20
0.0
 11
1.0
 21
1.0
 12
405.1039789629261
 22
161.3399337557603
 13
0.0
 23
0.0
 14
10.0
 24
10.0
 15
10.0
 25
10.0
 16
0.0
 26
0.0
 36
1.0
 17
0.0
 27
0.0
 37
0.0
 40
322.8815341781873
 41
1.952789699570815
 42
50.0
 43
0.0
 44
0.0
 50
0.0
 51
0.0
 71
     0
 72
   100
 73
     1
 74
     3
 75
     0
 76
     0
 77
     0
 78
     0
  0
ENDTAB
  0
TABLE
  2
LTYPE
  5
5
330
0
100
AcDbSymbolTable
 70
     1
  0
LTYPE
  5
14
330
5
100
AcDbSymbolTableRecord
100
AcDbLinetypeTableRecord
  2
BYBLOCK
 70
     0
  3

 72
    65
 73
     0
 40
0.0
  0
LTYPE
  5
15
330
5
100
AcDbSymbolTableRecord
100
AcDbLinetypeTableRecord
  2
BYLAYER
 70
     0
  3

 72
    65
 73
     0
 40
0.0
  0
LTYPE
  5
16
330
5
100
AcDbSymbolTableRecord
100
AcDbLinetypeTableRecord
  2
CONTINUOUS
 70
     0
  3
Solid line
 72
    65
 73
     0
 40
0.0
  0
ENDTAB
  0
TABLE
  2
LAYER
  5
2
330
0
100
AcDbSymbolTable
 70
     1
  0
LAYER
  5
10
330
2
100
AcDbSymbolTableRecord
100
AcDbLayerTableRecord
  2
0
 70
     0
 62
     7
  6
CONTINUOUS
  0
ENDTAB
  0
TABLE
  2
STYLE
  5
3
330
0
100
AcDbSymbolTable
 70
     1
  0
STYLE
  5
11
330
3
100
AcDbSymbolTableRecord
100
AcDbTextStyleTableRecord
  2
STANDARD
 70
     0
 40
0.0
 41
1.0
 50
0.0
 71
     0
 42
2.5
  3
txt
  4

  0
ENDTAB
  0
TABLE
  2
VIEW
  5
6
330
0
100
AcDbSymbolTable
 70
     0
  0
ENDTAB
  0
TABLE
  2
UCS
  5
7
330
0
100
AcDbSymbolTable
 70
     0
  0
ENDTAB
  0
TABLE
  2
APPID
  5
9
330
0
100
AcDbSymbolTable
 70
     1
  0
APPID
  5
12
330
9
100
AcDbSymbolTableRecord
100
AcDbRegAppTableRecord
  2
ACAD
 70
     0
  0
ENDTAB
  0
TABLE
  2
DIMSTYLE
  5
A
330
0
100
AcDbSymbolTable
 70
     1
  0
DIMSTYLE
105
27
330
A
100
AcDbSymbolTableRecord
100
AcDbDimStyleTableRecord
  2
ISO-25
 70
     0
  3

  4

  5

  6

  7

 40
1.0
 41
2.5
 42
0.625
 43
3.75
 44
1.25
 45
0.0
 46
0.0
 47
0.0
 48
0.0
140
2.5
141
2.5
142
0.0
143
0.03937007874016
144
1.0
145
0.0
146
1.0
147
0.625
 71
     0
 72
     0
 73
     0
 74
     0
 75
     0
 76
     0
 77
     1
 78
     8
170
     0
171
     3
172
     1
173
     0
174
     0
175
     0
176
     0
177
     0
178
     0
270
     2
271
     2
272
     2
273
     2
274
     3
340
11
275
     0
280
     0
281
     0
282
     0
283
     0
284
     8
285
     0
286
     0
287
     3
288
     0
  0
ENDTAB
  0
TABLE
  2
BLOCK_RECORD
  5
1
330
0
100
AcDbSymbolTable
 70
     1
  0
BLOCK_RECORD
  5
1F
102
{ACAD_XDICTIONARY
360
56
102
}
330
1
100
AcDbSymbolTableRecord
100
AcDbBlockTableRecord
  2
*MODEL_SPACE
  0
BLOCK_RECORD
  5
1B
102
{ACAD_XDICTIONARY
360
54
102
}
330
1
100
AcDbSymbolTableRecord
100
AcDbBlockTableRecord
  2
*PAPER_SPACE
  0
ENDTAB
  0
ENDSEC
  0
SECTION
  2
BLOCKS
  0
BLOCK
  5
20
330
1F
100
AcDbEntity
  8
0
100
AcDbBlockBegin
  2
*MODEL_SPACE
 70
     0
 10
0.0
 20
0.0
 30
0.0
  3
*MODEL_SPACE
  1

  0
ENDBLK
  5
21
330
1F
100
AcDbEntity
  8
0
100
AcDbBlockEnd
  0
BLOCK
  5
1C
330
1B
100
AcDbEntity
 67
     1
  8
0
100
AcDbBlockBegin
  2
*PAPER_SPACE
 70
     0
 10
0.0
 20
0.0
 30
0.0
  3
*PAPER_SPACE
  1

  0
ENDBLK
  5
1D
330
1B
100
AcDbEntity
 67
     1
  8
0
100
AcDbBlockEnd
  0
ENDSEC
  0
SECTION
  2
ENTITIES
0
LINE
8
TAGLIO
5
1000
100
AcDbEntity
62
0
100
AcDbLine
10
29.853474
20
268.558107
11
46.851195
21
254.295325
0
ARC
8
TAGLIO
5
1001
100
AcDbEntity
62
0
100
AcDbCircle
10
78.990575
20
292.597548
40
50.000000
100
AcDbArc
50
-130.000000
51
-104.290926
0
ARC
8
TAGLIO
5
1002
100
AcDbEntity
62
0
100
AcDbCircle
10
0.000000
20
-17.500000
40
270.000000
100
AcDbArc
50
104.290926
51
75.709074
0
ARC
8
TAGLIO
5
1003
100
AcDbEntity
62
0
100
AcDbCircle
10
-78.990575
20
292.597548
40
50.000000
100
AcDbArc
50
-75.709074
51
-50.000000
0
LINE
8
TAGLIO
5
1004
100
AcDbEntity
62
0
100
AcDbLine
10
-46.851195
20
254.295325
11
-12.855752
21
282.820889
0
ARC
8
TAGLIO
5
1005
100
AcDbEntity
62
0
100
AcDbCircle
10
-0.000000
20
267.500000
40
20.000000
100
AcDbArc
50
50.000000
51
130.000000
0
LINE
8
TAGLIO
5
1006
100
AcDbEntity
62
0
100
AcDbLine
10
12.855752
20
282.820889
11
29.853474
21
268.558107
0
ARC
8
TAGLIO
5
1007
100
AcDbEntity
62
0
100
AcDbCircle
10
0.000000
20
-17.500000
40
219.000000
100
AcDbArc
50
-24.500000
51
-9.580000
0
ARC
8
TAGLIO
5
1008
100
AcDbEntity
62
0
100
AcDbCircle
10
210.029543
20
-52.948431
40
6.000000
100
AcDbArc
50
-9.580000
51
170.420000
0
ARC
8
TAGLIO
5
1009
100
AcDbEntity
62
0
100
AcDbCircle
10
-0.000000
20
-17.500000
40
207.000000
100
AcDbArc
50
-39.420000
51
-9.580000
0
ARC
8
TAGLIO
5
1010
100
AcDbEntity
62
0
100
AcDbCircle
10
164.545048
20
-152.755045
40
6.000000
100
AcDbArc
50
140.580000
51
320.580000
0
ARC
8
TAGLIO
5
1011
100
AcDbEntity
62
0
100
AcDbCircle
10
0.000000
20
-17.500000
40
219.000000
100
AcDbArc
50
-39.420000
51
-24.500000
0
ARC
8
TAGLIO
5
1012
100
AcDbEntity
62
0
100
AcDbCircle
10
-0.000000
20
-17.500000
40
187.000000
100
AcDbArc
50
-65.145000
51
-51.550000
0
ARC
8
TAGLIO
5
1013
100
AcDbEntity
62
0
100
AcDbCircle
10
112.551491
20
-159.250350
40
6.000000
100
AcDbArc
50
-51.549999
51
128.450000
0
ARC
8
TAGLIO
5
1014
100
AcDbEntity
62
0
100
AcDbCircle
10
-0.000000
20
-17.500000
40
175.000000
100
AcDbArc
50
-78.740000
51
-51.550000
0
ARC
8
TAGLIO
5
1015
100
AcDbEntity
62
0
100
AcDbCircle
10
35.342331
20
-195.015970
40
6.000000
100
AcDbArc
50
101.260000
51
281.260000
0
ARC
8
TAGLIO
5
1016
100
AcDbEntity
62
0
100
AcDbCircle
10
-0.000000
20
-17.500000
40
187.000000
100
AcDbArc
50
-78.740000
51
-65.145000
0
ARC
8
TAGLIO
5
1017
100
AcDbEntity
62
0
100
AcDbCircle
10
0.000000
20
-17.500000
40
155.000000
100
AcDbArc
50
-23.640000
51
-11.930000
0
ARC
8
TAGLIO
5
1018
100
AcDbEntity
62
0
100
AcDbCircle
10
145.781732
20
-48.300759
40
6.000000
100
AcDbArc
50
-11.930000
51
168.070000
0
ARC
8
TAGLIO
5
1019
100
AcDbEntity
62
0
100
AcDbCircle
10
-0.000000
20
-17.500000
40
143.000000
100
AcDbArc
50
-35.350000
51
-11.930000
0
ARC
8
TAGLIO
5
1020
100
AcDbEntity
62
0
100
AcDbCircle
10
121.529318
20
-103.706873
40
6.000000
100
AcDbArc
50
144.650000
51
324.650000
0
ARC
8
TAGLIO
5
1021
100
AcDbEntity
62
0
100
AcDbCircle
10
0.000000
20
-17.500000
40
155.000000
100
AcDbArc
50
-35.350000
51
-23.640000
0
ARC
8
TAGLIO
5
1022
100
AcDbEntity
62
0
100
AcDbCircle
10
-0.000000
20
-17.500000
40
187.000000
100
AcDbArc
50
-24.145000
51
-10.550000
0
ARC
8
TAGLIO
5
1023
100
AcDbEntity
62
0
100
AcDbCircle
10
177.940286
20
-50.639925
40
6.000000
100
AcDbArc
50
-10.550000
51
169.450000
0
ARC
8
TAGLIO
5
1024
100
AcDbEntity
62
0
100
AcDbCircle
10
-0.000000
20
-17.500000
40
175.000000
100
AcDbArc
50
-37.740000
51
-10.550000
0
ARC
8
TAGLIO
5
1025
100
AcDbEntity
62
0
100
AcDbCircle
10
143.134151
20
-128.286348
40
6.000000
100
AcDbArc
50
142.260000
51
322.260000
0
ARC
8
TAGLIO
5
1026
100
AcDbEntity
62
0
100
AcDbCircle
10
-0.000000
20
-17.500000
40
187.000000
100
AcDbArc
50
-37.740000
51
-24.145000
0
CIRCLE
8
TAGLIO
5
1027
100
AcDbEntity
62
0
100
AcDbCircle
10
-0.000000
20
267.500000
40
10.000000
0
CIRCLE
8
TAGLIO
5
1028
100
AcDbEntity
62
0
100
AcDbCircle
10
-0.000000
20
-17.500000
40
47.000000
0
ARC
8
TAGLIO
5
1029
100
AcDbEntity
62
0
100
AcDbCircle
10
-0.000000
20
-17.500000
40
219.000000
100
AcDbArc
50
114.500000
51
129.420000
0
ARC
8
TAGLIO
5
1030
100
AcDbEntity
62
0
100
AcDbCircle
10
-135.255045
20
147.045048
40
6.000000
100
AcDbArc
50
129.420000
51
309.420000
0
ARC
8
TAGLIO
5
1031
100
AcDbEntity
62
0
100
AcDbCircle
10
-0.000000
20
-17.500000
40
207.000000
100
AcDbArc
50
99.580000
51
129.420000
0
ARC
8
TAGLIO
5
1032
100
AcDbEntity
62
0
100
AcDbCircle
10
-35.448431
20
192.529543
40
6.000000
100
AcDbArc
50
-80.420000
51
99.580000
0
ARC
8
TAGLIO
5
1033
100
AcDbEntity
62
0
100
AcDbCircle
10
-0.000000
20
-17.500000
40
219.000000
100
AcDbArc
50
99.580000
51
114.500000
0
ARC
8
TAGLIO
5
1034
100
AcDbEntity
62
0
100
AcDbCircle
10
-0.000000
20
-17.500000
40
187.000000
100
AcDbArc
50
114.855000
51
128.450000
0
ARC
8
TAGLIO
5
1035
100
AcDbEntity
62
0
100
AcDbCircle
10
-112.551492
20
124.250350
40
6.000000
100
AcDbArc
50
128.450000
51
308.450000
0
ARC
8
TAGLIO
5
1036
100
AcDbEntity
62
0
100
AcDbCircle
10
0.000000
20
-17.500000
40
175.000000
100
AcDbArc
50
101.260000
51
128.450000
0
ARC
8
TAGLIO
5
1037
100
AcDbEntity
62
0
100
AcDbCircle
10
-35.342331
20
160.015970
40
6.000000
100
AcDbArc
50
-78.740000
51
101.260000
0
ARC
8
TAGLIO
5
1038
100
AcDbEntity
62
0
100
AcDbCircle
10
-0.000000
20
-17.500000
40
187.000000
100
AcDbArc
50
101.260000
51
114.855000
0
ARC
8
TAGLIO
5
1039
100
AcDbEntity
62
0
100
AcDbCircle
10
-0.000000
20
-17.500000
40
219.000000
100
AcDbArc
50
155.500000
51
170.420000
0
ARC
8
TAGLIO
5
1040
100
AcDbEntity
62
0
100
AcDbCircle
10
-210.029543
20
17.948431
40
6.000000
100
AcDbArc
50
170.420000
51
350.420000
0
ARC
8
TAGLIO
5
1041
100
AcDbEntity
62
0
100
AcDbCircle
10
0.000000
20
-17.500000
40
207.000000
100
AcDbArc
50
140.580000
51
170.420000
0
ARC
8
TAGLIO
5
1042
100
AcDbEntity
62
0
100
AcDbCircle
10
-164.545048
20
117.755045
40
6.000000
100
AcDbArc
50
-39.420000
51
140.580000
0
ARC
8
TAGLIO
5
1043
100
AcDbEntity
62
0
100
AcDbCircle
10
-0.000000
20
-17.500000
40
219.000000
100
AcDbArc
50
140.580000
51
155.500000
0
ARC
8
TAGLIO
5
1044
100
AcDbEntity
62
0
100
AcDbCircle
10
0.000000
20
-17.500000
40
187.000000
100
AcDbArc
50
155.855000
51
169.450000
0
ARC
8
TAGLIO
5
1045
100
AcDbEntity
62
0
100
AcDbCircle
10
-177.940286
20
15.639925
40
6.000000
100
AcDbArc
50
169.450000
51
349.450000
0
ARC
8
TAGLIO
5
1046
100
AcDbEntity
62
0
100
AcDbCircle
10
0.000000
20
-17.500000
40
175.000000
100
AcDbArc
50
142.260000
51
169.450000
0
ARC
8
TAGLIO
5
1047
100
AcDbEntity
62
0
100
AcDbCircle
10
-143.134151
20
93.286348
40
6.000000
100
AcDbArc
50
-37.740000
51
142.260000
0
ARC
8
TAGLIO
5
1048
100
AcDbEntity
62
0
100
AcDbCircle
10
0.000000
20
-17.500000
40
187.000000
100
AcDbArc
50
142.260000
51
155.855000
0
ARC
8
TAGLIO
5
1049
100
AcDbEntity
62
0
100
AcDbCircle
10
0.000000
20
-17.500000
40
219.000000
100
AcDbArc
50
-65.500000
51
-50.580000
0
ARC
8
TAGLIO
5
1050
100
AcDbEntity
62
0
100
AcDbCircle
10
135.255045
20
-182.045048
40
6.000000
100
AcDbArc
50
-50.580000
51
129.420000
0
ARC
8
TAGLIO
5
1051
100
AcDbEntity
62
0
100
AcDbCircle
10
0.000000
20
-17.500000
40
207.000000
100
AcDbArc
50
-80.420000
51
-50.580000
0
ARC
8
TAGLIO
5
1052
100
AcDbEntity
62
0
100
AcDbCircle
10
35.448431
20
-227.529543
40
6.000000
100
AcDbArc
50
99.580000
51
279.580000
0
ARC
8
TAGLIO
5
1053
100
AcDbEntity
62
0
100
AcDbCircle
10
0.000000
20
-17.500000
40
219.000000
100
AcDbArc
50
-80.420000
51
-65.500000
0
ARC
8
TAGLIO
5
1054
100
AcDbEntity
62
0
100
AcDbCircle
10
-0.000000
20
-17.500000
40
155.000000
100
AcDbArc
50
115.360000
51
127.070000
0
ARC
8
TAGLIO
5
1055
100
AcDbEntity
62
0
100
AcDbCircle
10
-89.815753
20
101.387049
40
6.000000
100
AcDbArc
50
127.070000
51
307.070000
0
ARC
8
TAGLIO
5
1056
100
AcDbEntity
62
0
100
AcDbCircle
10
-0.000000
20
-17.500000
40
143.000000
100
AcDbArc
50
103.650000
51
127.070000
0
ARC
8
TAGLIO
5
1057
100
AcDbEntity
62
0
100
AcDbCircle
10
-35.162543
20
127.291559
40
6.000000
100
AcDbArc
50
-76.350000
51
103.650000
0
ARC
8
TAGLIO
5
1058
100
AcDbEntity
62
0
100
AcDbCircle
10
-0.000000
20
-17.500000
40
155.000000
100
AcDbArc
50
103.650000
51
115.360000
0
ARC
8
TAGLIO
5
1059
100
AcDbEntity
62
0
100
AcDbCircle
10
-0.000000
20
-17.500000
40
155.000000
100
AcDbArc
50
156.360000
51
168.070000
0
ARC
8
TAGLIO
5
1060
100
AcDbEntity
62
0
100
AcDbCircle
10
-145.781732
20
13.300759
40
6.000000
100
AcDbArc
50
168.070000
51
348.070000
0
ARC
8
TAGLIO
5
1061
100
AcDbEntity
62
0
100
AcDbCircle
10
0.000000
20
-17.500000
40
143.000000
100
AcDbArc
50
144.650000
51
168.070000
0
ARC
8
TAGLIO
5
1062
100
AcDbEntity
62
0
100
AcDbCircle
10
-121.529318
20
68.706873
40
6.000000
100
AcDbArc
50
-35.350000
51
144.650000
0
ARC
8
TAGLIO
5
1063
100
AcDbEntity
62
0
100
AcDbCircle
10
-0.000000
20
-17.500000
40
155.000000
100
AcDbArc
50
144.650000
51
156.360000
0
ARC
8
TAGLIO
5
1064
100
AcDbEntity
62
0
100
AcDbCircle
10
0.000000
20
-17.500000
40
155.000000
100
AcDbArc
50
-64.640000
51
-52.930000
0
ARC
8
TAGLIO
5
1065
100
AcDbEntity
62
0
100
AcDbCircle
10
89.815753
20
-136.387049
40
6.000000
100
AcDbArc
50
-52.930000
51
127.070000
0
ARC
8
TAGLIO
5
1066
100
AcDbEntity
62
0
100
AcDbCircle
10
0.000000
20
-17.500000
40
143.000000
100
AcDbArc
50
-76.350000
51
-52.930000
0
ARC
8
TAGLIO
5
1067
100
AcDbEntity
62
0
100
AcDbCircle
10
35.162543
20
-162.291559
40
6.000000
100
AcDbArc
50
103.650000
51
283.650000
0
ARC
8
TAGLIO
5
1068
100
AcDbEntity
62
0
100
AcDbCircle
10
0.000000
20
-17.500000
40
155.000000
100
AcDbArc
50
-76.350000
51
-64.640000
0
ENDSEC
  0
SECTION
  2
OBJECTS
  0
DICTIONARY
  5
C
330
0
100
AcDbDictionary
  3
ACAD_GROUP
350
D
  3
ACAD_LAYOUT
350
1A
  3
ACAD_MLINESTYLE
350
17
  3
ACAD_PLOTSETTINGS
350
19
1001
ACAD
1000
TREAT_AS_HARD
1070
     0
  0
DICTIONARY
  5
56
330
1F
100
AcDbDictionary
  3
ACAD_LAYOUTSELFREF
350
57
  0
DICTIONARY
  5
54
330
1B
100
AcDbDictionary
  3
ACAD_LAYOUTSELFREF
350
55
  0
DICTIONARY
  5
D
102
{ACAD_REACTORS
330
C
102
}
330
C
100
AcDbDictionary
1001
ACAD
1000
TREAT_AS_HARD
1070
     0
  0
DICTIONARY
  5
1A
102
{ACAD_REACTORS
330
C
102
}
330
C
100
AcDbDictionary
1001
ACAD
1000
TREAT_AS_HARD
1070
     0
  0
DICTIONARY
  5
17
102
{ACAD_REACTORS
330
C
102
}
330
C
100
AcDbDictionary
  3
STANDARD
350
18
1001
ACAD
1000
TREAT_AS_HARD
1070
     0
  0
DICTIONARY
  5
19
102
{ACAD_REACTORS
330
C
102
}
330
C
100
AcDbDictionary
1001
ACAD
1000
TREAT_AS_HARD
1070
     0
  0
XRECORD
  5
57
102
{ACAD_REACTORS
330
56
102
}
330
56
100
AcDbXrecord
340
1F
  0
XRECORD
  5
55
102
{ACAD_REACTORS
330
54
102
}
330
54
100
AcDbXrecord
340
1B
  0
MLINESTYLE
  5
18
102
{ACAD_REACTORS
330
17
102
}
330
17
100
AcDbMlineStyle
  2
STANDARD
 70
     0
  3

 62
   256
 51
90.0
 52
90.0
 71
     2
 49
0.5
 62
   256
  6
BYLAYER
 49
-0.5
 62
   256
  6
BYLAYER
  0
ENDSEC
  0
EOF
