  0
SECTION
  2
HEADER
  9
$ACADVER
  1
AC1012
  9
$DWGCODEPAGE
  3
ANSI_1252
  9
$INSBASE
 10
0.0
 20
0.0
 30
0.0
  9
$EXTMIN
 10
1.000000000000000E+20
 20
1.000000000000000E+20
 30
1.000000000000000E+20
  9
$EXTMAX
 10
-1.000000000000000E+20
 20
-1.000000000000000E+20
 30
-1.000000000000000E+20
  9
$LIMMIN
 10
0.0
 20
0.0
  9
$LIMMAX
 10
420.0
 20
297.0
  9
$ORTHOMODE
 70
     0
  9
$REGENMODE
 70
     1
  9
$FILLMODE
 70
     1
  9
$QTEXTMODE
 70
     0
  9
$MIRRTEXT
 70
     1
  9
$DRAGMODE
 70
     2
  9
$LTSCALE
 40
1.0
  9
$OSMODE
 70
    37
  9
$ATTMODE
 70
     1
  9
$TEXTSIZE
 40
2.5
  9
$TRACEWID
 40
1.0
  9
$TEXTSTYLE
  7
STANDARD
  9
$CLAYER
  8
0
  9
$CELTYPE
  6
BYLAYER
  9
$CECOLOR
 62
   256
  9
$CELTSCALE
 40
1.0
  9
$DELOBJ
 70
     1
  9
$DISPSILH
 70
     0
  9
$DIMSCALE
 40
1.0
  9
$DIMASZ
 40
2.5
  9
$DIMEXO
 40
0.625
  9
$DIMDLI
 40
3.75
  9
$DIMRND
 40
0.0
  9
$DIMDLE
 40
0.0
  9
$DIMEXE
 40
1.25
  9
$DIMTP
 40
0.0
  9
$DIMTM
 40
0.0
  9
$DIMTXT
 40
2.5
  9
$DIMCEN
 40
2.5
  9
$DIMTSZ
 40
0.0
  9
$DIMTOL
 70
     0
  9
$DIMLIM
 70
     0
  9
$DIMTIH
 70
     0
  9
$DIMTOH
 70
     0
  9
$DIMSE1
 70
     0
  9
$DIMSE2
 70
     0
  9
$DIMTAD
 70
     1
  9
$DIMZIN
 70
     8
  9
$DIMBLK
  1

  9
$DIMASO
 70
     1
  9
$DIMSHO
 70
     1
  9
$DIMPOST
  1

  9
$DIMAPOST
  1

  9
$DIMALT
 70
     0
  9
$DIMALTD
 70
     3
  9
$DIMALTF
 40
0.03937007874016
  9
$DIMLFAC
 40
1.0
  9
$DIMTOFL
 70
     1
  9
$DIMTVP
 40
0.0
  9
$DIMTIX
 70
     0
  9
$DIMSOXD
 70
     0
  9
$DIMSAH
 70
     0
  9
$DIMBLK1
  1

  9
$DIMBLK2
  1

  9
$DIMSTYLE
  2
ISO-25
  9
$DIMCLRD
 70
     0
  9
$DIMCLRE
 70
     0
  9
$DIMCLRT
 70
     0
  9
$DIMTFAC
 40
1.0
  9
$DIMGAP
 40
0.625
  9
$DIMJUST
 70
     0
  9
$DIMSD1
 70
     0
  9
$DIMSD2
 70
     0
  9
$DIMTOLJ
 70
     0
  9
$DIMTZIN
 70
     8
  9
$DIMALTZ
 70
     0
  9
$DIMALTTZ
 70
     0
  9
$DIMFIT
 70
     3
  9
$DIMUPT
 70
     0
  9
$DIMUNIT
 70
     2
  9
$DIMDEC
 70
     2
  9
$DIMTDEC
 70
     2
  9
$DIMALTU
 70
     2
  9
$DIMALTTD
 70
     3
  9
$DIMTXSTY
  7
STANDARD
  9
$DIMAUNIT
 70
     0
  9
$LUNITS
 70
     2
  9
$LUPREC
 70
     4
  9
$SKETCHINC
 40
1.0
  9
$FILLETRAD
 40
10.0
  9
$AUNITS
 70
     0
  9
$AUPREC
 70
     0
  9
$MENU
  1
.
  9
$ELEVATION
 40
0.0
  9
$PELEVATION
 40
0.0
  9
$THICKNESS
 40
0.0
  9
$LIMCHECK
 70
     0
  9
$BLIPMODE
 70
     0
  9
$CHAMFERA
 40
10.0
  9
$CHAMFERB
 40
10.0
  9
$CHAMFERC
 40
20.0
  9
$CHAMFERD
 40
0.0
  9
$SKPOLY
 70
     0
  9
$TDCREATE
 40
2453791.390765335
  9
$TDUPDATE
 40
2453791.391223773
  9
$TDINDWG
 40
0.0004622338
  9
$TDUSRTIMER
 40
0.0004607870
  9
$USRTIMER
 70
     1
  9
$ANGBASE
 50
0.0
  9
$ANGDIR
 70
     0
  9
$PDMODE
 70
     0
  9
$PDSIZE
 40
0.0
  9
$PLINEWID
 40
0.0
  9
$COORDS
 70
     2
  9
$SPLFRAME
 70
     0
  9
$SPLINETYPE
 70
     6
  9
$SPLINESEGS
 70
     8
  9
$ATTDIA
 70
     0
  9
$ATTREQ
 70
     1
  9
$HANDLING
 70
 10241
  9
$HANDSEED
5
3800
  9
$SURFTAB1
 70
     6
  9
$SURFTAB2
 70
     6
  9
$SURFTYPE
 70
     6
  9
$SURFU
 70
     6
  9
$SURFV
 70
     6
  9
$UCSNAME
  2

  9
$UCSORG
 10
0.0
 20
0.0
 30
0.0
  9
$UCSXDIR
 10
1.0
 20
0.0
 30
0.0
  9
$UCSYDIR
 10
0.0
 20
1.0
 30
0.0
  9
$PUCSNAME
  2

  9
$PUCSORG
 10
0.0
 20
0.0
 30
0.0
  9
$PUCSXDIR
 10
1.0
 20
0.0
 30
0.0
  9
$PUCSYDIR
 10
0.0
 20
1.0
 30
0.0
  9
$USERI1
 70
     0
  9
$USERI2
 70
     0
  9
$USERI3
 70
     0
  9
$USERI4
 70
     0
  9
$USERI5
 70
     0
  9
$USERR1
 40
0.0
  9
$USERR2
 40
0.0
  9
$USERR3
 40
0.0
  9
$USERR4
 40
0.0
  9
$USERR5
 40
0.0
  9
$WORLDVIEW
 70
     1
  9
$SHADEDGE
 70
     3
  9
$SHADEDIF
 70
    70
  9
$TILEMODE
 70
     1
  9
$MAXACTVP
 70
    64
  9
$PINSBASE
 10
0.0
 20
0.0
 30
0.0
  9
$PLIMCHECK
 70
     0
  9
$PEXTMIN
 10
1.049999952316284
 20
0.7999999523162842
 30
0.0
  9
$PEXTMAX
 10
9.449999570846555
 20
7.199999570846556
 30
0.0
  9
$PLIMMIN
 10
-0.2500002402958907
 20
-0.2499999962453767
  9
$PLIMMAX
 10
10.74999951940821
 20
8.249999763458731
  9
$UNITMODE
 70
     0
  9
$VISRETAIN
 70
     1
  9
$PLINEGEN
 70
     0
  9
$PSLTSCALE
 70
     1
  9
$TREEDEPTH
 70
  3020
  9
$PICKSTYLE
 70
     1
  9
$CMLSTYLE
  2
STANDARD
  9
$CMLJUST
 70
     0
  9
$CMLSCALE
 40
20.0
  9
$SAVEIMAGES
 70
     1
  0
ENDSEC
  0
SECTION
  2
CLASSES
  0
CLASS
  1
ACDBDICTIONARYWDFLT
  2
AcDbDictionaryWithDefault
  3
AutoCAD 2000
 90
    32768
280
     0
281
     0
  0
CLASS
  1
ACDBPLACEHOLDER
  2
AcDbPlaceHolder
  3
AutoCAD 2000
 90
    32768
280
     0
281
     0
  0
CLASS
  1
LAYOUT
  2
AcDbLayout
  3
AutoCAD 2000
 90
    32768
280
     0
281
     0
  0
CLASS
  1
LONG_TRANSACTION
  2
AcDbLongTransaction
  3
AutoCAD 2000
 90
    32768
280
     0
281
     0
  0
CLASS
  1
LWPOLYLINE
  2
AcDbPolyline
  3
AutoCAD 2000
 90
    32768
280
     0
281
     1
  0
CLASS
  1
HATCH
  2
AcDbHatch
  3
AutoCAD 2000
 90
    32768
280
     0
281
     1
  0
CLASS
  1
XRECORD
  2
AcDbXrecord
  3
AutoCAD 2000
 90
    32768
280
     0
281
     0
  0
ENDSEC
  0
SECTION
  2
TABLES
  0
TABLE
  2
VPORT
  5
8
330
0
100
AcDbSymbolTable
 70
     1
  0
VPORT
  5
44
330
8
100
AcDbSymbolTableRecord
100
AcDbViewportTableRecord
  2
*ACTIVE
 70
     0
 10
0.0
 20
0.0
 11
1.0
 21
1.0
 12
405.1039789629261
 22
161.3399337557603
 13
0.0
 23
0.0
 14
10.0
 24
10.0
 15
10.0
 25
10.0
 16
0.0
 26
0.0
 36
1.0
 17
0.0
 27
0.0
 37
0.0
 40
322.8815341781873
 41
1.952789699570815
 42
50.0
 43
0.0
 44
0.0
 50
0.0
 51
0.0
 71
     0
 72
   100
 73
     1
 74
     3
 75
     0
 76
     0
 77
     0
 78
     0
  0
ENDTAB
  0
TABLE
  2
LTYPE
  5
5
330
0
100
AcDbSymbolTable
 70
     1
  0
LTYPE
  5
14
330
5
100
AcDbSymbolTableRecord
100
AcDbLinetypeTableRecord
  2
BYBLOCK
 70
     0
  3

 72
    65
 73
     0
 40
0.0
  0
LTYPE
  5
15
330
5
100
AcDbSymbolTableRecord
100
AcDbLinetypeTableRecord
  2
BYLAYER
 70
     0
  3

 72
    65
 73
     0
 40
0.0
  0
LTYPE
  5
16
330
5
100
AcDbSymbolTableRecord
100
AcDbLinetypeTableRecord
  2
CONTINUOUS
 70
     0
  3
Solid line
 72
    65
 73
     0
 40
0.0
  0
ENDTAB
  0
TABLE
  2
LAYER
  5
2
330
0
100
AcDbSymbolTable
 70
     1
  0
LAYER
  5
10
330
2
100
AcDbSymbolTableRecord
100
AcDbLayerTableRecord
  2
0
 70
     0
 62
     7
  6
CONTINUOUS
  0
ENDTAB
  0
TABLE
  2
STYLE
  5
3
330
0
100
AcDbSymbolTable
 70
     1
  0
STYLE
  5
11
330
3
100
AcDbSymbolTableRecord
100
AcDbTextStyleTableRecord
  2
STANDARD
 70
     0
 40
0.0
 41
1.0
 50
0.0
 71
     0
 42
2.5
  3
txt
  4

  0
ENDTAB
  0
TABLE
  2
VIEW
  5
6
330
0
100
AcDbSymbolTable
 70
     0
  0
ENDTAB
  0
TABLE
  2
UCS
  5
7
330
0
100
AcDbSymbolTable
 70
     0
  0
ENDTAB
  0
TABLE
  2
APPID
  5
9
330
0
100
AcDbSymbolTable
 70
     1
  0
APPID
  5
12
330
9
100
AcDbSymbolTableRecord
100
AcDbRegAppTableRecord
  2
ACAD
 70
     0
  0
ENDTAB
  0
TABLE
  2
DIMSTYLE
  5
A
330
0
100
AcDbSymbolTable
 70
     1
  0
DIMSTYLE
105
27
330
A
100
AcDbSymbolTableRecord
100
AcDbDimStyleTableRecord
  2
ISO-25
 70
     0
  3

  4

  5

  6

  7

 40
1.0
 41
2.5
 42
0.625
 43
3.75
 44
1.25
 45
0.0
 46
0.0
 47
0.0
 48
0.0
140
2.5
141
2.5
142
0.0
143
0.03937007874016
144
1.0
145
0.0
146
1.0
147
0.625
 71
     0
 72
     0
 73
     0
 74
     0
 75
     0
 76
     0
 77
     1
 78
     8
170
     0
171
     3
172
     1
173
     0
174
     0
175
     0
176
     0
177
     0
178
     0
270
     2
271
     2
272
     2
273
     2
274
     3
340
11
275
     0
280
     0
281
     0
282
     0
283
     0
284
     8
285
     0
286
     0
287
     3
288
     0
  0
ENDTAB
  0
TABLE
  2
BLOCK_RECORD
  5
1
330
0
100
AcDbSymbolTable
 70
     1
  0
BLOCK_RECORD
  5
1F
102
{ACAD_XDICTIONARY
360
56
102
}
330
1
100
AcDbSymbolTableRecord
100
AcDbBlockTableRecord
  2
*MODEL_SPACE
  0
BLOCK_RECORD
  5
1B
102
{ACAD_XDICTIONARY
360
54
102
}
330
1
100
AcDbSymbolTableRecord
100
AcDbBlockTableRecord
  2
*PAPER_SPACE
  0
ENDTAB
  0
ENDSEC
  0
SECTION
  2
BLOCKS
  0
BLOCK
  5
20
330
1F
100
AcDbEntity
  8
0
100
AcDbBlockBegin
  2
*MODEL_SPACE
 70
     0
 10
0.0
 20
0.0
 30
0.0
  3
*MODEL_SPACE
  1

  0
ENDBLK
  5
21
330
1F
100
AcDbEntity
  8
0
100
AcDbBlockEnd
  0
BLOCK
  5
1C
330
1B
100
AcDbEntity
 67
     1
  8
0
100
AcDbBlockBegin
  2
*PAPER_SPACE
 70
     0
 10
0.0
 20
0.0
 30
0.0
  3
*PAPER_SPACE
  1

  0
ENDBLK
  5
1D
330
1B
100
AcDbEntity
 67
     1
  8
0
100
AcDbBlockEnd
  0
ENDSEC
  0
SECTION
  2
ENTITIES
0
CIRCLE
8
TAGLIO
5
1000
100
AcDbEntity
62
0
100
AcDbCircle
10
1362.500000
20
32.204024
40
5.250000
0
CIRCLE
8
TAGLIO
5
1001
100
AcDbEntity
62
0
100
AcDbCircle
10
1335.000000
20
67.205894
40
4.250000
0
CIRCLE
8
TAGLIO
5
1002
100
AcDbEntity
62
0
100
AcDbCircle
10
1235.000000
20
67.205894
40
4.250000
0
CIRCLE
8
TAGLIO
5
1003
100
AcDbEntity
62
0
100
AcDbCircle
10
1135.000000
20
67.205894
40
4.250000
0
CIRCLE
8
TAGLIO
5
1004
100
AcDbEntity
62
0
100
AcDbCircle
10
1135.000000
20
-17.794106
40
4.250000
0
CIRCLE
8
TAGLIO
5
1005
100
AcDbEntity
62
0
100
AcDbCircle
10
1235.000000
20
-17.794106
40
4.250000
0
CIRCLE
8
TAGLIO
5
1006
100
AcDbEntity
62
0
100
AcDbCircle
10
1335.000000
20
-17.794106
40
4.250000
0
LINE
8
TAGLIO
5
1007
100
AcDbEntity
62
0
100
AcDbLine
10
1287.750000
20
-35.586831
11
1287.750000
21
-17.794106
0
LINE
8
TAGLIO
5
1008
100
AcDbEntity
62
0
100
AcDbLine
10
1287.750000
20
-17.794106
11
1282.250000
21
-17.794106
0
LINE
8
TAGLIO
5
1009
100
AcDbEntity
62
0
100
AcDbLine
10
1282.250000
20
-17.794106
11
1282.250000
21
-53.379556
0
LINE
8
TAGLIO
5
1010
100
AcDbEntity
62
0
100
AcDbLine
10
1282.250000
20
-53.379556
11
1287.750000
21
-53.379556
0
LINE
8
TAGLIO
5
1011
100
AcDbEntity
62
0
100
AcDbLine
10
1287.750000
20
-53.379556
11
1287.750000
21
-35.586831
0
CIRCLE
8
TAGLIO
5
1012
100
AcDbEntity
62
0
100
AcDbCircle
10
1285.000000
20
-88.361046
40
5.250000
0
CIRCLE
8
TAGLIO
5
1013
100
AcDbEntity
62
0
100
AcDbCircle
10
1185.000000
20
-88.361046
40
5.250000
0
LINE
8
TAGLIO
5
1014
100
AcDbEntity
62
0
100
AcDbLine
10
1187.750000
20
-35.586831
11
1187.750000
21
-17.794106
0
LINE
8
TAGLIO
5
1015
100
AcDbEntity
62
0
100
AcDbLine
10
1187.750000
20
-17.794106
11
1182.250000
21
-17.794106
0
LINE
8
TAGLIO
5
1016
100
AcDbEntity
62
0
100
AcDbLine
10
1182.250000
20
-17.794106
11
1182.250000
21
-53.379556
0
LINE
8
TAGLIO
5
1017
100
AcDbEntity
62
0
100
AcDbLine
10
1182.250000
20
-53.379556
11
1187.750000
21
-53.379556
0
LINE
8
TAGLIO
5
1018
100
AcDbEntity
62
0
100
AcDbLine
10
1187.750000
20
-53.379556
11
1187.750000
21
-35.586831
0
CIRCLE
8
TAGLIO
5
1019
100
AcDbEntity
62
0
100
AcDbCircle
10
1085.000000
20
-88.361046
40
5.250000
0
CIRCLE
8
TAGLIO
5
1020
100
AcDbEntity
62
0
100
AcDbCircle
10
985.000000
20
-88.361046
40
5.250000
0
CIRCLE
8
TAGLIO
5
1021
100
AcDbEntity
62
0
100
AcDbCircle
10
885.000000
20
-88.361046
40
5.250000
0
LINE
8
TAGLIO
5
1022
100
AcDbEntity
62
0
100
AcDbLine
10
887.750000
20
-35.586831
11
887.750000
21
-17.794106
0
LINE
8
TAGLIO
5
1023
100
AcDbEntity
62
0
100
AcDbLine
10
887.750000
20
-17.794106
11
882.250000
21
-17.794106
0
LINE
8
TAGLIO
5
1024
100
AcDbEntity
62
0
100
AcDbLine
10
882.250000
20
-17.794106
11
882.250000
21
-53.379556
0
LINE
8
TAGLIO
5
1025
100
AcDbEntity
62
0
100
AcDbLine
10
882.250000
20
-53.379556
11
887.750000
21
-53.379556
0
LINE
8
TAGLIO
5
1026
100
AcDbEntity
62
0
100
AcDbLine
10
887.750000
20
-53.379556
11
887.750000
21
-35.586831
0
LINE
8
TAGLIO
5
1027
100
AcDbEntity
62
0
100
AcDbLine
10
987.750000
20
-35.586831
11
987.750000
21
-17.794106
0
LINE
8
TAGLIO
5
1028
100
AcDbEntity
62
0
100
AcDbLine
10
987.750000
20
-17.794106
11
982.250000
21
-17.794106
0
LINE
8
TAGLIO
5
1029
100
AcDbEntity
62
0
100
AcDbLine
10
982.250000
20
-17.794106
11
982.250000
21
-53.379556
0
LINE
8
TAGLIO
5
1030
100
AcDbEntity
62
0
100
AcDbLine
10
982.250000
20
-53.379556
11
987.750000
21
-53.379556
0
LINE
8
TAGLIO
5
1031
100
AcDbEntity
62
0
100
AcDbLine
10
987.750000
20
-53.379556
11
987.750000
21
-35.586831
0
LINE
8
TAGLIO
5
1032
100
AcDbEntity
62
0
100
AcDbLine
10
1087.750000
20
-35.586831
11
1087.750000
21
-17.794106
0
LINE
8
TAGLIO
5
1033
100
AcDbEntity
62
0
100
AcDbLine
10
1087.750000
20
-17.794106
11
1082.250000
21
-17.794106
0
LINE
8
TAGLIO
5
1034
100
AcDbEntity
62
0
100
AcDbLine
10
1082.250000
20
-17.794106
11
1082.250000
21
-53.379556
0
LINE
8
TAGLIO
5
1035
100
AcDbEntity
62
0
100
AcDbLine
10
1082.250000
20
-53.379556
11
1087.750000
21
-53.379556
0
LINE
8
TAGLIO
5
1036
100
AcDbEntity
62
0
100
AcDbLine
10
1087.750000
20
-53.379556
11
1087.750000
21
-35.586831
0
CIRCLE
8
TAGLIO
5
1037
100
AcDbEntity
62
0
100
AcDbCircle
10
1035.000000
20
-17.794106
40
4.250000
0
CIRCLE
8
TAGLIO
5
1038
100
AcDbEntity
62
0
100
AcDbCircle
10
935.000000
20
-17.794106
40
4.250000
0
CIRCLE
8
TAGLIO
5
1039
100
AcDbEntity
62
0
100
AcDbCircle
10
1107.500000
20
32.204024
40
5.250000
0
CIRCLE
8
TAGLIO
5
1040
100
AcDbEntity
62
0
100
AcDbCircle
10
1035.000000
20
67.205894
40
4.250000
0
CIRCLE
8
TAGLIO
5
1041
100
AcDbEntity
62
0
100
AcDbCircle
10
935.000000
20
67.205894
40
4.250000
0
CIRCLE
8
TAGLIO
5
1042
100
AcDbEntity
62
0
100
AcDbCircle
10
835.000000
20
67.205894
40
4.250000
0
CIRCLE
8
TAGLIO
5
1043
100
AcDbEntity
62
0
100
AcDbCircle
10
735.000000
20
67.205894
40
4.250000
0
CIRCLE
8
TAGLIO
5
1044
100
AcDbEntity
62
0
100
AcDbCircle
10
635.000000
20
67.205894
40
4.250000
0
CIRCLE
8
TAGLIO
5
1045
100
AcDbEntity
62
0
100
AcDbCircle
10
635.000000
20
-17.794106
40
4.250000
0
CIRCLE
8
TAGLIO
5
1046
100
AcDbEntity
62
0
100
AcDbCircle
10
735.000000
20
-17.794106
40
4.250000
0
CIRCLE
8
TAGLIO
5
1047
100
AcDbEntity
62
0
100
AcDbCircle
10
835.000000
20
-17.794106
40
4.250000
0
LINE
8
TAGLIO
5
1048
100
AcDbEntity
62
0
100
AcDbLine
10
787.750000
20
-35.586831
11
787.750000
21
-17.794106
0
LINE
8
TAGLIO
5
1049
100
AcDbEntity
62
0
100
AcDbLine
10
787.750000
20
-17.794106
11
782.250000
21
-17.794106
0
LINE
8
TAGLIO
5
1050
100
AcDbEntity
62
0
100
AcDbLine
10
782.250000
20
-17.794106
11
782.250000
21
-53.379556
0
LINE
8
TAGLIO
5
1051
100
AcDbEntity
62
0
100
AcDbLine
10
782.250000
20
-53.379556
11
787.750000
21
-53.379556
0
LINE
8
TAGLIO
5
1052
100
AcDbEntity
62
0
100
AcDbLine
10
787.750000
20
-53.379556
11
787.750000
21
-35.586831
0
CIRCLE
8
TAGLIO
5
1053
100
AcDbEntity
62
0
100
AcDbCircle
10
785.000000
20
-88.361046
40
5.250000
0
CIRCLE
8
TAGLIO
5
1054
100
AcDbEntity
62
0
100
AcDbCircle
10
685.000000
20
-88.361046
40
5.250000
0
LINE
8
TAGLIO
5
1055
100
AcDbEntity
62
0
100
AcDbLine
10
687.750000
20
-35.586831
11
687.750000
21
-17.794106
0
LINE
8
TAGLIO
5
1056
100
AcDbEntity
62
0
100
AcDbLine
10
687.750000
20
-17.794106
11
682.250000
21
-17.794106
0
LINE
8
TAGLIO
5
1057
100
AcDbEntity
62
0
100
AcDbLine
10
682.250000
20
-17.794106
11
682.250000
21
-53.379556
0
LINE
8
TAGLIO
5
1058
100
AcDbEntity
62
0
100
AcDbLine
10
682.250000
20
-53.379556
11
687.750000
21
-53.379556
0
LINE
8
TAGLIO
5
1059
100
AcDbEntity
62
0
100
AcDbLine
10
687.750000
20
-53.379556
11
687.750000
21
-35.586831
0
CIRCLE
8
TAGLIO
5
1060
100
AcDbEntity
62
0
100
AcDbCircle
10
585.000000
20
-88.361046
40
5.250000
0
CIRCLE
8
TAGLIO
5
1061
100
AcDbEntity
62
0
100
AcDbCircle
10
485.000000
20
-88.361046
40
5.250000
0
CIRCLE
8
TAGLIO
5
1062
100
AcDbEntity
62
0
100
AcDbCircle
10
385.000000
20
-88.361046
40
5.250000
0
LINE
8
TAGLIO
5
1063
100
AcDbEntity
62
0
100
AcDbLine
10
387.750000
20
-35.586831
11
387.750000
21
-17.794106
0
LINE
8
TAGLIO
5
1064
100
AcDbEntity
62
0
100
AcDbLine
10
387.750000
20
-17.794106
11
382.250000
21
-17.794106
0
LINE
8
TAGLIO
5
1065
100
AcDbEntity
62
0
100
AcDbLine
10
382.250000
20
-17.794106
11
382.250000
21
-53.379556
0
LINE
8
TAGLIO
5
1066
100
AcDbEntity
62
0
100
AcDbLine
10
382.250000
20
-53.379556
11
387.750000
21
-53.379556
0
LINE
8
TAGLIO
5
1067
100
AcDbEntity
62
0
100
AcDbLine
10
387.750000
20
-53.379556
11
387.750000
21
-35.586831
0
LINE
8
TAGLIO
5
1068
100
AcDbEntity
62
0
100
AcDbLine
10
487.750000
20
-35.586831
11
487.750000
21
-17.794106
0
LINE
8
TAGLIO
5
1069
100
AcDbEntity
62
0
100
AcDbLine
10
487.750000
20
-17.794106
11
482.250000
21
-17.794106
0
LINE
8
TAGLIO
5
1070
100
AcDbEntity
62
0
100
AcDbLine
10
482.250000
20
-17.794106
11
482.250000
21
-53.379556
0
LINE
8
TAGLIO
5
1071
100
AcDbEntity
62
0
100
AcDbLine
10
482.250000
20
-53.379556
11
487.750000
21
-53.379556
0
LINE
8
TAGLIO
5
1072
100
AcDbEntity
62
0
100
AcDbLine
10
487.750000
20
-53.379556
11
487.750000
21
-35.586831
0
LINE
8
TAGLIO
5
1073
100
AcDbEntity
62
0
100
AcDbLine
10
587.750000
20
-35.586831
11
587.750000
21
-17.794106
0
LINE
8
TAGLIO
5
1074
100
AcDbEntity
62
0
100
AcDbLine
10
587.750000
20
-17.794106
11
582.250000
21
-17.794106
0
LINE
8
TAGLIO
5
1075
100
AcDbEntity
62
0
100
AcDbLine
10
582.250000
20
-17.794106
11
582.250000
21
-53.379556
0
LINE
8
TAGLIO
5
1076
100
AcDbEntity
62
0
100
AcDbLine
10
582.250000
20
-53.379556
11
587.750000
21
-53.379556
0
LINE
8
TAGLIO
5
1077
100
AcDbEntity
62
0
100
AcDbLine
10
587.750000
20
-53.379556
11
587.750000
21
-35.586831
0
CIRCLE
8
TAGLIO
5
1078
100
AcDbEntity
62
0
100
AcDbCircle
10
535.000000
20
-17.794106
40
4.250000
0
CIRCLE
8
TAGLIO
5
1079
100
AcDbEntity
62
0
100
AcDbCircle
10
535.000000
20
67.205894
40
4.250000
0
CIRCLE
8
TAGLIO
5
1080
100
AcDbEntity
62
0
100
AcDbCircle
10
435.000000
20
67.205894
40
4.250000
0
CIRCLE
8
TAGLIO
5
1081
100
AcDbEntity
62
0
100
AcDbCircle
10
435.000000
20
-17.794106
40
4.250000
0
CIRCLE
8
TAGLIO
5
1082
100
AcDbEntity
62
0
100
AcDbCircle
10
335.000000
20
67.205894
40
4.250000
0
CIRCLE
8
TAGLIO
5
1083
100
AcDbEntity
62
0
100
AcDbCircle
10
235.000000
20
67.205894
40
4.250000
0
CIRCLE
8
TAGLIO
5
1084
100
AcDbEntity
62
0
100
AcDbCircle
10
135.000000
20
67.205894
40
4.250000
0
CIRCLE
8
TAGLIO
5
1085
100
AcDbEntity
62
0
100
AcDbCircle
10
135.000000
20
-17.794106
40
4.250000
0
CIRCLE
8
TAGLIO
5
1086
100
AcDbEntity
62
0
100
AcDbCircle
10
235.000000
20
-17.794106
40
4.250000
0
CIRCLE
8
TAGLIO
5
1087
100
AcDbEntity
62
0
100
AcDbCircle
10
335.000000
20
-17.794106
40
4.250000
0
LINE
8
TAGLIO
5
1088
100
AcDbEntity
62
0
100
AcDbLine
10
287.750000
20
-35.586831
11
287.750000
21
-17.794106
0
LINE
8
TAGLIO
5
1089
100
AcDbEntity
62
0
100
AcDbLine
10
287.750000
20
-17.794106
11
282.250000
21
-17.794106
0
LINE
8
TAGLIO
5
1090
100
AcDbEntity
62
0
100
AcDbLine
10
282.250000
20
-17.794106
11
282.250000
21
-53.379556
0
LINE
8
TAGLIO
5
1091
100
AcDbEntity
62
0
100
AcDbLine
10
282.250000
20
-53.379556
11
287.750000
21
-53.379556
0
LINE
8
TAGLIO
5
1092
100
AcDbEntity
62
0
100
AcDbLine
10
287.750000
20
-53.379556
11
287.750000
21
-35.586831
0
CIRCLE
8
TAGLIO
5
1093
100
AcDbEntity
62
0
100
AcDbCircle
10
285.000000
20
-88.361046
40
5.250000
0
CIRCLE
8
TAGLIO
5
1094
100
AcDbEntity
62
0
100
AcDbCircle
10
185.000000
20
-88.361046
40
5.250000
0
LINE
8
TAGLIO
5
1095
100
AcDbEntity
62
0
100
AcDbLine
10
187.750000
20
-35.586831
11
187.750000
21
-17.794106
0
LINE
8
TAGLIO
5
1096
100
AcDbEntity
62
0
100
AcDbLine
10
187.750000
20
-17.794106
11
182.250000
21
-17.794106
0
LINE
8
TAGLIO
5
1097
100
AcDbEntity
62
0
100
AcDbLine
10
182.250000
20
-17.794106
11
182.250000
21
-53.379556
0
LINE
8
TAGLIO
5
1098
100
AcDbEntity
62
0
100
AcDbLine
10
182.250000
20
-53.379556
11
187.750000
21
-53.379556
0
LINE
8
TAGLIO
5
1099
100
AcDbEntity
62
0
100
AcDbLine
10
187.750000
20
-53.379556
11
187.750000
21
-35.586831
0
CIRCLE
8
TAGLIO
5
1100
100
AcDbEntity
62
0
100
AcDbCircle
10
85.000000
20
-88.361046
40
5.250000
0
CIRCLE
8
TAGLIO
5
1101
100
AcDbEntity
62
0
100
AcDbCircle
10
-15.000000
20
-88.361046
40
5.250000
0
CIRCLE
8
TAGLIO
5
1102
100
AcDbEntity
62
0
100
AcDbCircle
10
-115.000000
20
-88.361046
40
5.250000
0
LINE
8
TAGLIO
5
1103
100
AcDbEntity
62
0
100
AcDbLine
10
-112.250000
20
-35.586831
11
-112.250000
21
-17.794106
0
LINE
8
TAGLIO
5
1104
100
AcDbEntity
62
0
100
AcDbLine
10
-112.250000
20
-17.794106
11
-117.750000
21
-17.794106
0
LINE
8
TAGLIO
5
1105
100
AcDbEntity
62
0
100
AcDbLine
10
-117.750000
20
-17.794106
11
-117.750000
21
-53.379556
0
LINE
8
TAGLIO
5
1106
100
AcDbEntity
62
0
100
AcDbLine
10
-117.750000
20
-53.379556
11
-112.250000
21
-53.379556
0
LINE
8
TAGLIO
5
1107
100
AcDbEntity
62
0
100
AcDbLine
10
-112.250000
20
-53.379556
11
-112.250000
21
-35.586831
0
LINE
8
TAGLIO
5
1108
100
AcDbEntity
62
0
100
AcDbLine
10
-12.250000
20
-35.586831
11
-12.250000
21
-17.794106
0
LINE
8
TAGLIO
5
1109
100
AcDbEntity
62
0
100
AcDbLine
10
-12.250000
20
-17.794106
11
-17.750000
21
-17.794106
0
LINE
8
TAGLIO
5
1110
100
AcDbEntity
62
0
100
AcDbLine
10
-17.750000
20
-17.794106
11
-17.750000
21
-53.379556
0
LINE
8
TAGLIO
5
1111
100
AcDbEntity
62
0
100
AcDbLine
10
-17.750000
20
-53.379556
11
-12.250000
21
-53.379556
0
LINE
8
TAGLIO
5
1112
100
AcDbEntity
62
0
100
AcDbLine
10
-12.250000
20
-53.379556
11
-12.250000
21
-35.586831
0
LINE
8
TAGLIO
5
1113
100
AcDbEntity
62
0
100
AcDbLine
10
87.750000
20
-35.586831
11
87.750000
21
-17.794106
0
LINE
8
TAGLIO
5
1114
100
AcDbEntity
62
0
100
AcDbLine
10
87.750000
20
-17.794106
11
82.250000
21
-17.794106
0
LINE
8
TAGLIO
5
1115
100
AcDbEntity
62
0
100
AcDbLine
10
82.250000
20
-17.794106
11
82.250000
21
-53.379556
0
LINE
8
TAGLIO
5
1116
100
AcDbEntity
62
0
100
AcDbLine
10
82.250000
20
-53.379556
11
87.750000
21
-53.379556
0
LINE
8
TAGLIO
5
1117
100
AcDbEntity
62
0
100
AcDbLine
10
87.750000
20
-53.379556
11
87.750000
21
-35.586831
0
CIRCLE
8
TAGLIO
5
1118
100
AcDbEntity
62
0
100
AcDbCircle
10
35.000000
20
-17.794106
40
4.250000
0
CIRCLE
8
TAGLIO
5
1119
100
AcDbEntity
62
0
100
AcDbCircle
10
35.000000
20
67.205894
40
4.250000
0
CIRCLE
8
TAGLIO
5
1120
100
AcDbEntity
62
0
100
AcDbCircle
10
-65.000000
20
67.205894
40
4.250000
0
CIRCLE
8
TAGLIO
5
1121
100
AcDbEntity
62
0
100
AcDbCircle
10
-65.000000
20
-17.794106
40
4.250000
0
CIRCLE
8
TAGLIO
5
1122
100
AcDbEntity
62
0
100
AcDbCircle
10
-165.000000
20
67.205894
40
4.250000
0
CIRCLE
8
TAGLIO
5
1123
100
AcDbEntity
62
0
100
AcDbCircle
10
-265.000000
20
67.205894
40
4.250000
0
CIRCLE
8
TAGLIO
5
1124
100
AcDbEntity
62
0
100
AcDbCircle
10
-365.000000
20
67.205894
40
4.250000
0
CIRCLE
8
TAGLIO
5
1125
100
AcDbEntity
62
0
100
AcDbCircle
10
-365.000000
20
-17.794106
40
4.250000
0
CIRCLE
8
TAGLIO
5
1126
100
AcDbEntity
62
0
100
AcDbCircle
10
-265.000000
20
-17.794106
40
4.250000
0
CIRCLE
8
TAGLIO
5
1127
100
AcDbEntity
62
0
100
AcDbCircle
10
-165.000000
20
-17.794106
40
4.250000
0
LINE
8
TAGLIO
5
1128
100
AcDbEntity
62
0
100
AcDbLine
10
-212.250000
20
-35.586831
11
-212.250000
21
-17.794106
0
LINE
8
TAGLIO
5
1129
100
AcDbEntity
62
0
100
AcDbLine
10
-212.250000
20
-17.794106
11
-217.750000
21
-17.794106
0
LINE
8
TAGLIO
5
1130
100
AcDbEntity
62
0
100
AcDbLine
10
-217.750000
20
-17.794106
11
-217.750000
21
-53.379556
0
LINE
8
TAGLIO
5
1131
100
AcDbEntity
62
0
100
AcDbLine
10
-217.750000
20
-53.379556
11
-212.250000
21
-53.379556
0
LINE
8
TAGLIO
5
1132
100
AcDbEntity
62
0
100
AcDbLine
10
-212.250000
20
-53.379556
11
-212.250000
21
-35.586831
0
CIRCLE
8
TAGLIO
5
1133
100
AcDbEntity
62
0
100
AcDbCircle
10
-215.000000
20
-88.361046
40
5.250000
0
CIRCLE
8
TAGLIO
5
1134
100
AcDbEntity
62
0
100
AcDbCircle
10
-315.000000
20
-88.361046
40
5.250000
0
LINE
8
TAGLIO
5
1135
100
AcDbEntity
62
0
100
AcDbLine
10
-312.250000
20
-35.586831
11
-312.250000
21
-17.794106
0
LINE
8
TAGLIO
5
1136
100
AcDbEntity
62
0
100
AcDbLine
10
-312.250000
20
-17.794106
11
-317.750000
21
-17.794106
0
LINE
8
TAGLIO
5
1137
100
AcDbEntity
62
0
100
AcDbLine
10
-317.750000
20
-17.794106
11
-317.750000
21
-53.379556
0
LINE
8
TAGLIO
5
1138
100
AcDbEntity
62
0
100
AcDbLine
10
-317.750000
20
-53.379556
11
-312.250000
21
-53.379556
0
LINE
8
TAGLIO
5
1139
100
AcDbEntity
62
0
100
AcDbLine
10
-312.250000
20
-53.379556
11
-312.250000
21
-35.586831
0
CIRCLE
8
TAGLIO
5
1140
100
AcDbEntity
62
0
100
AcDbCircle
10
-415.000000
20
-88.361046
40
5.250000
0
CIRCLE
8
TAGLIO
5
1141
100
AcDbEntity
62
0
100
AcDbCircle
10
-515.000000
20
-88.361046
40
5.250000
0
CIRCLE
8
TAGLIO
5
1142
100
AcDbEntity
62
0
100
AcDbCircle
10
-615.000000
20
-88.361046
40
5.250000
0
LINE
8
TAGLIO
5
1143
100
AcDbEntity
62
0
100
AcDbLine
10
-612.250000
20
-35.586831
11
-612.250000
21
-17.794106
0
LINE
8
TAGLIO
5
1144
100
AcDbEntity
62
0
100
AcDbLine
10
-612.250000
20
-17.794106
11
-617.750000
21
-17.794106
0
LINE
8
TAGLIO
5
1145
100
AcDbEntity
62
0
100
AcDbLine
10
-617.750000
20
-17.794106
11
-617.750000
21
-53.379556
0
LINE
8
TAGLIO
5
1146
100
AcDbEntity
62
0
100
AcDbLine
10
-617.750000
20
-53.379556
11
-612.250000
21
-53.379556
0
LINE
8
TAGLIO
5
1147
100
AcDbEntity
62
0
100
AcDbLine
10
-612.250000
20
-53.379556
11
-612.250000
21
-35.586831
0
LINE
8
TAGLIO
5
1148
100
AcDbEntity
62
0
100
AcDbLine
10
-512.250000
20
-35.586831
11
-512.250000
21
-17.794106
0
LINE
8
TAGLIO
5
1149
100
AcDbEntity
62
0
100
AcDbLine
10
-512.250000
20
-17.794106
11
-517.750000
21
-17.794106
0
LINE
8
TAGLIO
5
1150
100
AcDbEntity
62
0
100
AcDbLine
10
-517.750000
20
-17.794106
11
-517.750000
21
-53.379556
0
LINE
8
TAGLIO
5
1151
100
AcDbEntity
62
0
100
AcDbLine
10
-517.750000
20
-53.379556
11
-512.250000
21
-53.379556
0
LINE
8
TAGLIO
5
1152
100
AcDbEntity
62
0
100
AcDbLine
10
-512.250000
20
-53.379556
11
-512.250000
21
-35.586831
0
LINE
8
TAGLIO
5
1153
100
AcDbEntity
62
0
100
AcDbLine
10
-412.250000
20
-35.586831
11
-412.250000
21
-17.794106
0
LINE
8
TAGLIO
5
1154
100
AcDbEntity
62
0
100
AcDbLine
10
-412.250000
20
-17.794106
11
-417.750000
21
-17.794106
0
LINE
8
TAGLIO
5
1155
100
AcDbEntity
62
0
100
AcDbLine
10
-417.750000
20
-17.794106
11
-417.750000
21
-53.379556
0
LINE
8
TAGLIO
5
1156
100
AcDbEntity
62
0
100
AcDbLine
10
-417.750000
20
-53.379556
11
-412.250000
21
-53.379556
0
LINE
8
TAGLIO
5
1157
100
AcDbEntity
62
0
100
AcDbLine
10
-412.250000
20
-53.379556
11
-412.250000
21
-35.586831
0
CIRCLE
8
TAGLIO
5
1158
100
AcDbEntity
62
0
100
AcDbCircle
10
-465.000000
20
-17.794106
40
4.250000
0
CIRCLE
8
TAGLIO
5
1159
100
AcDbEntity
62
0
100
AcDbCircle
10
-465.000000
20
67.205894
40
4.250000
0
CIRCLE
8
TAGLIO
5
1160
100
AcDbEntity
62
0
100
AcDbCircle
10
-565.000000
20
67.205894
40
4.250000
0
CIRCLE
8
TAGLIO
5
1161
100
AcDbEntity
62
0
100
AcDbCircle
10
-565.000000
20
-17.794106
40
4.250000
0
CIRCLE
8
TAGLIO
5
1162
100
AcDbEntity
62
0
100
AcDbCircle
10
-665.000000
20
67.205894
40
4.250000
0
CIRCLE
8
TAGLIO
5
1163
100
AcDbEntity
62
0
100
AcDbCircle
10
-765.000000
20
67.205894
40
4.250000
0
CIRCLE
8
TAGLIO
5
1164
100
AcDbEntity
62
0
100
AcDbCircle
10
-865.000000
20
67.205894
40
4.250000
0
CIRCLE
8
TAGLIO
5
1165
100
AcDbEntity
62
0
100
AcDbCircle
10
-865.000000
20
-17.794106
40
4.250000
0
CIRCLE
8
TAGLIO
5
1166
100
AcDbEntity
62
0
100
AcDbCircle
10
-765.000000
20
-17.794106
40
4.250000
0
CIRCLE
8
TAGLIO
5
1167
100
AcDbEntity
62
0
100
AcDbCircle
10
-665.000000
20
-17.794106
40
4.250000
0
LINE
8
TAGLIO
5
1168
100
AcDbEntity
62
0
100
AcDbLine
10
-712.250000
20
-35.586831
11
-712.250000
21
-17.794106
0
LINE
8
TAGLIO
5
1169
100
AcDbEntity
62
0
100
AcDbLine
10
-712.250000
20
-17.794106
11
-717.750000
21
-17.794106
0
LINE
8
TAGLIO
5
1170
100
AcDbEntity
62
0
100
AcDbLine
10
-717.750000
20
-17.794106
11
-717.750000
21
-53.379556
0
LINE
8
TAGLIO
5
1171
100
AcDbEntity
62
0
100
AcDbLine
10
-717.750000
20
-53.379556
11
-712.250000
21
-53.379556
0
LINE
8
TAGLIO
5
1172
100
AcDbEntity
62
0
100
AcDbLine
10
-712.250000
20
-53.379556
11
-712.250000
21
-35.586831
0
CIRCLE
8
TAGLIO
5
1173
100
AcDbEntity
62
0
100
AcDbCircle
10
-715.000000
20
-88.361046
40
5.250000
0
CIRCLE
8
TAGLIO
5
1174
100
AcDbEntity
62
0
100
AcDbCircle
10
-815.000000
20
-88.361046
40
5.250000
0
LINE
8
TAGLIO
5
1175
100
AcDbEntity
62
0
100
AcDbLine
10
-812.250000
20
-35.586831
11
-812.250000
21
-17.794106
0
LINE
8
TAGLIO
5
1176
100
AcDbEntity
62
0
100
AcDbLine
10
-812.250000
20
-17.794106
11
-817.750000
21
-17.794106
0
LINE
8
TAGLIO
5
1177
100
AcDbEntity
62
0
100
AcDbLine
10
-817.750000
20
-17.794106
11
-817.750000
21
-53.379556
0
LINE
8
TAGLIO
5
1178
100
AcDbEntity
62
0
100
AcDbLine
10
-817.750000
20
-53.379556
11
-812.250000
21
-53.379556
0
LINE
8
TAGLIO
5
1179
100
AcDbEntity
62
0
100
AcDbLine
10
-812.250000
20
-53.379556
11
-812.250000
21
-35.586831
0
CIRCLE
8
TAGLIO
5
1180
100
AcDbEntity
62
0
100
AcDbCircle
10
-915.000000
20
-88.361046
40
5.250000
0
CIRCLE
8
TAGLIO
5
1181
100
AcDbEntity
62
0
100
AcDbCircle
10
-1015.000000
20
-88.361046
40
5.250000
0
CIRCLE
8
TAGLIO
5
1182
100
AcDbEntity
62
0
100
AcDbCircle
10
-1115.000000
20
-88.361046
40
5.250000
0
LINE
8
TAGLIO
5
1183
100
AcDbEntity
62
0
100
AcDbLine
10
-1012.250000
20
-35.586831
11
-1012.250000
21
-17.794106
0
LINE
8
TAGLIO
5
1184
100
AcDbEntity
62
0
100
AcDbLine
10
-1012.250000
20
-17.794106
11
-1017.750000
21
-17.794106
0
LINE
8
TAGLIO
5
1185
100
AcDbEntity
62
0
100
AcDbLine
10
-1017.750000
20
-17.794106
11
-1017.750000
21
-53.379556
0
LINE
8
TAGLIO
5
1186
100
AcDbEntity
62
0
100
AcDbLine
10
-1017.750000
20
-53.379556
11
-1012.250000
21
-53.379556
0
LINE
8
TAGLIO
5
1187
100
AcDbEntity
62
0
100
AcDbLine
10
-1012.250000
20
-53.379556
11
-1012.250000
21
-35.586831
0
LINE
8
TAGLIO
5
1188
100
AcDbEntity
62
0
100
AcDbLine
10
-912.250000
20
-35.586831
11
-912.250000
21
-17.794106
0
LINE
8
TAGLIO
5
1189
100
AcDbEntity
62
0
100
AcDbLine
10
-912.250000
20
-17.794106
11
-917.750000
21
-17.794106
0
LINE
8
TAGLIO
5
1190
100
AcDbEntity
62
0
100
AcDbLine
10
-917.750000
20
-17.794106
11
-917.750000
21
-53.379556
0
LINE
8
TAGLIO
5
1191
100
AcDbEntity
62
0
100
AcDbLine
10
-917.750000
20
-53.379556
11
-912.250000
21
-53.379556
0
LINE
8
TAGLIO
5
1192
100
AcDbEntity
62
0
100
AcDbLine
10
-912.250000
20
-53.379556
11
-912.250000
21
-35.586831
0
CIRCLE
8
TAGLIO
5
1193
100
AcDbEntity
62
0
100
AcDbCircle
10
-965.000000
20
-17.794106
40
4.250000
0
CIRCLE
8
TAGLIO
5
1194
100
AcDbEntity
62
0
100
AcDbCircle
10
-965.000000
20
67.205894
40
4.250000
0
CIRCLE
8
TAGLIO
5
1195
100
AcDbEntity
62
0
100
AcDbCircle
10
-1065.000000
20
67.205894
40
4.250000
0
CIRCLE
8
TAGLIO
5
1196
100
AcDbEntity
62
0
100
AcDbCircle
10
-1065.000000
20
-17.794106
40
4.250000
0
CIRCLE
8
TAGLIO
5
1197
100
AcDbEntity
62
0
100
AcDbCircle
10
-1165.000000
20
67.205894
40
4.250000
0
CIRCLE
8
TAGLIO
5
1198
100
AcDbEntity
62
0
100
AcDbCircle
10
-1265.000000
20
67.205894
40
4.250000
0
CIRCLE
8
TAGLIO
5
1199
100
AcDbEntity
62
0
100
AcDbCircle
10
-1365.000000
20
67.205894
40
4.250000
0
CIRCLE
8
TAGLIO
5
1200
100
AcDbEntity
62
0
100
AcDbCircle
10
-1365.000000
20
-17.794106
40
4.250000
0
CIRCLE
8
TAGLIO
5
1201
100
AcDbEntity
62
0
100
AcDbCircle
10
-1265.000000
20
-17.794106
40
4.250000
0
CIRCLE
8
TAGLIO
5
1202
100
AcDbEntity
62
0
100
AcDbCircle
10
-1165.000000
20
-17.794106
40
4.250000
0
LINE
8
TAGLIO
5
1203
100
AcDbEntity
62
0
100
AcDbLine
10
-1112.250000
20
-35.586831
11
-1112.250000
21
-17.794106
0
LINE
8
TAGLIO
5
1204
100
AcDbEntity
62
0
100
AcDbLine
10
-1112.250000
20
-17.794106
11
-1117.750000
21
-17.794106
0
LINE
8
TAGLIO
5
1205
100
AcDbEntity
62
0
100
AcDbLine
10
-1117.750000
20
-17.794106
11
-1117.750000
21
-53.379556
0
LINE
8
TAGLIO
5
1206
100
AcDbEntity
62
0
100
AcDbLine
10
-1117.750000
20
-53.379556
11
-1112.250000
21
-53.379556
0
LINE
8
TAGLIO
5
1207
100
AcDbEntity
62
0
100
AcDbLine
10
-1112.250000
20
-53.379556
11
-1112.250000
21
-35.586831
0
LINE
8
TAGLIO
5
1208
100
AcDbEntity
62
0
100
AcDbLine
10
-1212.250000
20
-35.586831
11
-1212.250000
21
-17.794106
0
LINE
8
TAGLIO
5
1209
100
AcDbEntity
62
0
100
AcDbLine
10
-1212.250000
20
-17.794106
11
-1217.750000
21
-17.794106
0
LINE
8
TAGLIO
5
1210
100
AcDbEntity
62
0
100
AcDbLine
10
-1217.750000
20
-17.794106
11
-1217.750000
21
-53.379556
0
LINE
8
TAGLIO
5
1211
100
AcDbEntity
62
0
100
AcDbLine
10
-1217.750000
20
-53.379556
11
-1212.250000
21
-53.379556
0
LINE
8
TAGLIO
5
1212
100
AcDbEntity
62
0
100
AcDbLine
10
-1212.250000
20
-53.379556
11
-1212.250000
21
-35.586831
0
LINE
8
TAGLIO
5
1213
100
AcDbEntity
62
0
100
AcDbLine
10
-1312.250000
20
-35.586831
11
-1312.250000
21
-17.794106
0
LINE
8
TAGLIO
5
1214
100
AcDbEntity
62
0
100
AcDbLine
10
-1312.250000
20
-17.794106
11
-1317.750000
21
-17.794106
0
LINE
8
TAGLIO
5
1215
100
AcDbEntity
62
0
100
AcDbLine
10
-1317.750000
20
-17.794106
11
-1317.750000
21
-53.379556
0
LINE
8
TAGLIO
5
1216
100
AcDbEntity
62
0
100
AcDbLine
10
-1317.750000
20
-53.379556
11
-1312.250000
21
-53.379556
0
LINE
8
TAGLIO
5
1217
100
AcDbEntity
62
0
100
AcDbLine
10
-1312.250000
20
-53.379556
11
-1312.250000
21
-35.586831
0
CIRCLE
8
TAGLIO
5
1218
100
AcDbEntity
62
0
100
AcDbCircle
10
-1315.000000
20
-88.361046
40
5.250000
0
CIRCLE
8
TAGLIO
5
1219
100
AcDbEntity
62
0
100
AcDbCircle
10
-1215.000000
20
-88.361046
40
5.250000
0
LINE
8
TAGLIO
5
1220
100
AcDbEntity
62
0
100
AcDbLine
10
-1380.000000
20
134.480252
11
1385.000000
21
134.480252
0
LINE
8
TAGLIO
5
1221
100
AcDbEntity
62
0
100
AcDbLine
10
1385.000000
20
134.480252
11
1385.000000
21
-139.480252
0
LINE
8
TAGLIO
5
1222
100
AcDbEntity
62
0
100
AcDbLine
10
1385.000000
20
-139.480252
11
-1380.000000
21
-139.480252
0
LINE
8
TAGLIO
5
1223
100
AcDbEntity
62
0
100
AcDbLine
10
-1380.000000
20
-139.480252
11
-1380.000000
21
134.480252
0
ENDSEC
  0
SECTION
  2
OBJECTS
  0
DICTIONARY
  5
C
330
0
100
AcDbDictionary
  3
ACAD_GROUP
350
D
  3
ACAD_LAYOUT
350
1A
  3
ACAD_MLINESTYLE
350
17
  3
ACAD_PLOTSETTINGS
350
19
1001
ACAD
1000
TREAT_AS_HARD
1070
     0
  0
DICTIONARY
  5
56
330
1F
100
AcDbDictionary
  3
ACAD_LAYOUTSELFREF
350
57
  0
DICTIONARY
  5
54
330
1B
100
AcDbDictionary
  3
ACAD_LAYOUTSELFREF
350
55
  0
DICTIONARY
  5
D
102
{ACAD_REACTORS
330
C
102
}
330
C
100
AcDbDictionary
1001
ACAD
1000
TREAT_AS_HARD
1070
     0
  0
DICTIONARY
  5
1A
102
{ACAD_REACTORS
330
C
102
}
330
C
100
AcDbDictionary
1001
ACAD
1000
TREAT_AS_HARD
1070
     0
  0
DICTIONARY
  5
17
102
{ACAD_REACTORS
330
C
102
}
330
C
100
AcDbDictionary
  3
STANDARD
350
18
1001
ACAD
1000
TREAT_AS_HARD
1070
     0
  0
DICTIONARY
  5
19
102
{ACAD_REACTORS
330
C
102
}
330
C
100
AcDbDictionary
1001
ACAD
1000
TREAT_AS_HARD
1070
     0
  0
XRECORD
  5
57
102
{ACAD_REACTORS
330
56
102
}
330
56
100
AcDbXrecord
340
1F
  0
XRECORD
  5
55
102
{ACAD_REACTORS
330
54
102
}
330
54
100
AcDbXrecord
340
1B
  0
MLINESTYLE
  5
18
102
{ACAD_REACTORS
330
17
102
}
330
17
100
AcDbMlineStyle
  2
STANDARD
 70
     0
  3

 62
   256
 51
90.0
 52
90.0
 71
     2
 49
0.5
 62
   256
  6
BYLAYER
 49
-0.5
 62
   256
  6
BYLAYER
  0
ENDSEC
  0
EOF
