  0
SECTION
  2
HEADER
  9
$ACADVER
  1
AC1012
  9
$DWGCODEPAGE
  3
ANSI_1252
  9
$INSBASE
 10
0.0
 20
0.0
 30
0.0
  9
$EXTMIN
 10
1.000000000000000E+20
 20
1.000000000000000E+20
 30
1.000000000000000E+20
  9
$EXTMAX
 10
-1.000000000000000E+20
 20
-1.000000000000000E+20
 30
-1.000000000000000E+20
  9
$LIMMIN
 10
0.0
 20
0.0
  9
$LIMMAX
 10
420.0
 20
297.0
  9
$ORTHOMODE
 70
     0
  9
$REGENMODE
 70
     1
  9
$FILLMODE
 70
     1
  9
$QTEXTMODE
 70
     0
  9
$MIRRTEXT
 70
     1
  9
$DRAGMODE
 70
     2
  9
$LTSCALE
 40
1.0
  9
$OSMODE
 70
    37
  9
$ATTMODE
 70
     1
  9
$TEXTSIZE
 40
2.5
  9
$TRACEWID
 40
1.0
  9
$TEXTSTYLE
  7
STANDARD
  9
$CLAYER
  8
0
  9
$CELTYPE
  6
BYLAYER
  9
$CECOLOR
 62
   256
  9
$CELTSCALE
 40
1.0
  9
$DELOBJ
 70
     1
  9
$DISPSILH
 70
     0
  9
$DIMSCALE
 40
1.0
  9
$DIMASZ
 40
2.5
  9
$DIMEXO
 40
0.625
  9
$DIMDLI
 40
3.75
  9
$DIMRND
 40
0.0
  9
$DIMDLE
 40
0.0
  9
$DIMEXE
 40
1.25
  9
$DIMTP
 40
0.0
  9
$DIMTM
 40
0.0
  9
$DIMTXT
 40
2.5
  9
$DIMCEN
 40
2.5
  9
$DIMTSZ
 40
0.0
  9
$DIMTOL
 70
     0
  9
$DIMLIM
 70
     0
  9
$DIMTIH
 70
     0
  9
$DIMTOH
 70
     0
  9
$DIMSE1
 70
     0
  9
$DIMSE2
 70
     0
  9
$DIMTAD
 70
     1
  9
$DIMZIN
 70
     8
  9
$DIMBLK
  1

  9
$DIMASO
 70
     1
  9
$DIMSHO
 70
     1
  9
$DIMPOST
  1

  9
$DIMAPOST
  1

  9
$DIMALT
 70
     0
  9
$DIMALTD
 70
     3
  9
$DIMALTF
 40
0.03937007874016
  9
$DIMLFAC
 40
1.0
  9
$DIMTOFL
 70
     1
  9
$DIMTVP
 40
0.0
  9
$DIMTIX
 70
     0
  9
$DIMSOXD
 70
     0
  9
$DIMSAH
 70
     0
  9
$DIMBLK1
  1

  9
$DIMBLK2
  1

  9
$DIMSTYLE
  2
ISO-25
  9
$DIMCLRD
 70
     0
  9
$DIMCLRE
 70
     0
  9
$DIMCLRT
 70
     0
  9
$DIMTFAC
 40
1.0
  9
$DIMGAP
 40
0.625
  9
$DIMJUST
 70
     0
  9
$DIMSD1
 70
     0
  9
$DIMSD2
 70
     0
  9
$DIMTOLJ
 70
     0
  9
$DIMTZIN
 70
     8
  9
$DIMALTZ
 70
     0
  9
$DIMALTTZ
 70
     0
  9
$DIMFIT
 70
     3
  9
$DIMUPT
 70
     0
  9
$DIMUNIT
 70
     2
  9
$DIMDEC
 70
     2
  9
$DIMTDEC
 70
     2
  9
$DIMALTU
 70
     2
  9
$DIMALTTD
 70
     3
  9
$DIMTXSTY
  7
STANDARD
  9
$DIMAUNIT
 70
     0
  9
$LUNITS
 70
     2
  9
$LUPREC
 70
     4
  9
$SKETCHINC
 40
1.0
  9
$FILLETRAD
 40
10.0
  9
$AUNITS
 70
     0
  9
$AUPREC
 70
     0
  9
$MENU
  1
.
  9
$ELEVATION
 40
0.0
  9
$PELEVATION
 40
0.0
  9
$THICKNESS
 40
0.0
  9
$LIMCHECK
 70
     0
  9
$BLIPMODE
 70
     0
  9
$CHAMFERA
 40
10.0
  9
$CHAMFERB
 40
10.0
  9
$CHAMFERC
 40
20.0
  9
$CHAMFERD
 40
0.0
  9
$SKPOLY
 70
     0
  9
$TDCREATE
 40
2453791.390765335
  9
$TDUPDATE
 40
2453791.391223773
  9
$TDINDWG
 40
0.0004622338
  9
$TDUSRTIMER
 40
0.0004607870
  9
$USRTIMER
 70
     1
  9
$ANGBASE
 50
0.0
  9
$ANGDIR
 70
     0
  9
$PDMODE
 70
     0
  9
$PDSIZE
 40
0.0
  9
$PLINEWID
 40
0.0
  9
$COORDS
 70
     2
  9
$SPLFRAME
 70
     0
  9
$SPLINETYPE
 70
     6
  9
$SPLINESEGS
 70
     8
  9
$ATTDIA
 70
     0
  9
$ATTREQ
 70
     1
  9
$HANDLING
 70
 10241
  9
$HANDSEED
5
2608
  9
$SURFTAB1
 70
     6
  9
$SURFTAB2
 70
     6
  9
$SURFTYPE
 70
     6
  9
$SURFU
 70
     6
  9
$SURFV
 70
     6
  9
$UCSNAME
  2

  9
$UCSORG
 10
0.0
 20
0.0
 30
0.0
  9
$UCSXDIR
 10
1.0
 20
0.0
 30
0.0
  9
$UCSYDIR
 10
0.0
 20
1.0
 30
0.0
  9
$PUCSNAME
  2

  9
$PUCSORG
 10
0.0
 20
0.0
 30
0.0
  9
$PUCSXDIR
 10
1.0
 20
0.0
 30
0.0
  9
$PUCSYDIR
 10
0.0
 20
1.0
 30
0.0
  9
$USERI1
 70
     0
  9
$USERI2
 70
     0
  9
$USERI3
 70
     0
  9
$USERI4
 70
     0
  9
$USERI5
 70
     0
  9
$USERR1
 40
0.0
  9
$USERR2
 40
0.0
  9
$USERR3
 40
0.0
  9
$USERR4
 40
0.0
  9
$USERR5
 40
0.0
  9
$WORLDVIEW
 70
     1
  9
$SHADEDGE
 70
     3
  9
$SHADEDIF
 70
    70
  9
$TILEMODE
 70
     1
  9
$MAXACTVP
 70
    64
  9
$PINSBASE
 10
0.0
 20
0.0
 30
0.0
  9
$PLIMCHECK
 70
     0
  9
$PEXTMIN
 10
1.049999952316284
 20
0.7999999523162842
 30
0.0
  9
$PEXTMAX
 10
9.449999570846555
 20
7.199999570846556
 30
0.0
  9
$PLIMMIN
 10
-0.2500002402958907
 20
-0.2499999962453767
  9
$PLIMMAX
 10
10.74999951940821
 20
8.249999763458731
  9
$UNITMODE
 70
     0
  9
$VISRETAIN
 70
     1
  9
$PLINEGEN
 70
     0
  9
$PSLTSCALE
 70
     1
  9
$TREEDEPTH
 70
  3020
  9
$PICKSTYLE
 70
     1
  9
$CMLSTYLE
  2
STANDARD
  9
$CMLJUST
 70
     0
  9
$CMLSCALE
 40
20.0
  9
$SAVEIMAGES
 70
     1
  0
ENDSEC
  0
SECTION
  2
CLASSES
  0
CLASS
  1
ACDBDICTIONARYWDFLT
  2
AcDbDictionaryWithDefault
  3
AutoCAD 2000
 90
    32768
280
     0
281
     0
  0
CLASS
  1
ACDBPLACEHOLDER
  2
AcDbPlaceHolder
  3
AutoCAD 2000
 90
    32768
280
     0
281
     0
  0
CLASS
  1
LAYOUT
  2
AcDbLayout
  3
AutoCAD 2000
 90
    32768
280
     0
281
     0
  0
CLASS
  1
LONG_TRANSACTION
  2
AcDbLongTransaction
  3
AutoCAD 2000
 90
    32768
280
     0
281
     0
  0
CLASS
  1
LWPOLYLINE
  2
AcDbPolyline
  3
AutoCAD 2000
 90
    32768
280
     0
281
     1
  0
CLASS
  1
HATCH
  2
AcDbHatch
  3
AutoCAD 2000
 90
    32768
280
     0
281
     1
  0
CLASS
  1
XRECORD
  2
AcDbXrecord
  3
AutoCAD 2000
 90
    32768
280
     0
281
     0
  0
ENDSEC
  0
SECTION
  2
TABLES
  0
TABLE
  2
VPORT
  5
8
330
0
100
AcDbSymbolTable
 70
     1
  0
VPORT
  5
44
330
8
100
AcDbSymbolTableRecord
100
AcDbViewportTableRecord
  2
*ACTIVE
 70
     0
 10
0.0
 20
0.0
 11
1.0
 21
1.0
 12
405.1039789629261
 22
161.3399337557603
 13
0.0
 23
0.0
 14
10.0
 24
10.0
 15
10.0
 25
10.0
 16
0.0
 26
0.0
 36
1.0
 17
0.0
 27
0.0
 37
0.0
 40
322.8815341781873
 41
1.952789699570815
 42
50.0
 43
0.0
 44
0.0
 50
0.0
 51
0.0
 71
     0
 72
   100
 73
     1
 74
     3
 75
     0
 76
     0
 77
     0
 78
     0
  0
ENDTAB
  0
TABLE
  2
LTYPE
  5
5
330
0
100
AcDbSymbolTable
 70
     1
  0
LTYPE
  5
14
330
5
100
AcDbSymbolTableRecord
100
AcDbLinetypeTableRecord
  2
BYBLOCK
 70
     0
  3

 72
    65
 73
     0
 40
0.0
  0
LTYPE
  5
15
330
5
100
AcDbSymbolTableRecord
100
AcDbLinetypeTableRecord
  2
BYLAYER
 70
     0
  3

 72
    65
 73
     0
 40
0.0
  0
LTYPE
  5
16
330
5
100
AcDbSymbolTableRecord
100
AcDbLinetypeTableRecord
  2
CONTINUOUS
 70
     0
  3
Solid line
 72
    65
 73
     0
 40
0.0
  0
ENDTAB
  0
TABLE
  2
LAYER
  5
2
330
0
100
AcDbSymbolTable
 70
     1
  0
LAYER
  5
10
330
2
100
AcDbSymbolTableRecord
100
AcDbLayerTableRecord
  2
0
 70
     0
 62
     7
  6
CONTINUOUS
  0
ENDTAB
  0
TABLE
  2
STYLE
  5
3
330
0
100
AcDbSymbolTable
 70
     1
  0
STYLE
  5
11
330
3
100
AcDbSymbolTableRecord
100
AcDbTextStyleTableRecord
  2
STANDARD
 70
     0
 40
0.0
 41
1.0
 50
0.0
 71
     0
 42
2.5
  3
txt
  4

  0
ENDTAB
  0
TABLE
  2
VIEW
  5
6
330
0
100
AcDbSymbolTable
 70
     0
  0
ENDTAB
  0
TABLE
  2
UCS
  5
7
330
0
100
AcDbSymbolTable
 70
     0
  0
ENDTAB
  0
TABLE
  2
APPID
  5
9
330
0
100
AcDbSymbolTable
 70
     1
  0
APPID
  5
12
330
9
100
AcDbSymbolTableRecord
100
AcDbRegAppTableRecord
  2
ACAD
 70
     0
  0
ENDTAB
  0
TABLE
  2
DIMSTYLE
  5
A
330
0
100
AcDbSymbolTable
 70
     1
  0
DIMSTYLE
105
27
330
A
100
AcDbSymbolTableRecord
100
AcDbDimStyleTableRecord
  2
ISO-25
 70
     0
  3

  4

  5

  6

  7

 40
1.0
 41
2.5
 42
0.625
 43
3.75
 44
1.25
 45
0.0
 46
0.0
 47
0.0
 48
0.0
140
2.5
141
2.5
142
0.0
143
0.03937007874016
144
1.0
145
0.0
146
1.0
147
0.625
 71
     0
 72
     0
 73
     0
 74
     0
 75
     0
 76
     0
 77
     1
 78
     8
170
     0
171
     3
172
     1
173
     0
174
     0
175
     0
176
     0
177
     0
178
     0
270
     2
271
     2
272
     2
273
     2
274
     3
340
11
275
     0
280
     0
281
     0
282
     0
283
     0
284
     8
285
     0
286
     0
287
     3
288
     0
  0
ENDTAB
  0
TABLE
  2
BLOCK_RECORD
  5
1
330
0
100
AcDbSymbolTable
 70
     1
  0
BLOCK_RECORD
  5
1F
102
{ACAD_XDICTIONARY
360
56
102
}
330
1
100
AcDbSymbolTableRecord
100
AcDbBlockTableRecord
  2
*MODEL_SPACE
  0
BLOCK_RECORD
  5
1B
102
{ACAD_XDICTIONARY
360
54
102
}
330
1
100
AcDbSymbolTableRecord
100
AcDbBlockTableRecord
  2
*PAPER_SPACE
  0
ENDTAB
  0
ENDSEC
  0
SECTION
  2
BLOCKS
  0
BLOCK
  5
20
330
1F
100
AcDbEntity
  8
0
100
AcDbBlockBegin
  2
*MODEL_SPACE
 70
     0
 10
0.0
 20
0.0
 30
0.0
  3
*MODEL_SPACE
  1

  0
ENDBLK
  5
21
330
1F
100
AcDbEntity
  8
0
100
AcDbBlockEnd
  0
BLOCK
  5
1C
330
1B
100
AcDbEntity
 67
     1
  8
0
100
AcDbBlockBegin
  2
*PAPER_SPACE
 70
     0
 10
0.0
 20
0.0
 30
0.0
  3
*PAPER_SPACE
  1

  0
ENDBLK
  5
1D
330
1B
100
AcDbEntity
 67
     1
  8
0
100
AcDbBlockEnd
  0
ENDSEC
  0
SECTION
  2
ENTITIES
0
CIRCLE
8
TAGLIO
5
1000
100
AcDbEntity
62
0
100
AcDbCircle
10
23.232233
20
40.000000
40
4.500000
0
LINE
8
TAGLIO
5
1001
100
AcDbEntity
62
0
100
AcDbLine
10
15.732233
20
-25.000000
11
15.732233
21
-37.500000
0
ARC
8
TAGLIO
5
1002
100
AcDbEntity
62
0
100
AcDbCircle
10
23.232233
20
-37.500000
40
7.500000
100
AcDbArc
50
180.000000
51
360.000000
0
LINE
8
TAGLIO
5
1003
100
AcDbEntity
62
0
100
AcDbLine
10
30.732233
20
-37.500000
11
30.732233
21
-12.500000
0
ARC
8
TAGLIO
5
1004
100
AcDbEntity
62
0
100
AcDbCircle
10
23.232233
20
-12.500000
40
7.500000
100
AcDbArc
50
0.000000
51
180.000000
0
LINE
8
TAGLIO
5
1005
100
AcDbEntity
62
0
100
AcDbLine
10
15.732233
20
-12.500000
11
15.732233
21
-25.000000
0
LINE
8
0
5
1006
100
AcDbEntity
62
0
100
AcDbLine
10
7.671749
20
-53.675474
11
7.641845
21
-52.790813
0
LINE
8
0
5
1007
100
AcDbEntity
62
0
100
AcDbLine
10
7.641845
20
-52.790813
11
7.292964
21
-51.445130
0
LINE
8
0
5
1008
100
AcDbEntity
62
0
100
AcDbLine
10
7.292964
20
-51.445130
11
6.809515
21
-51.046409
0
LINE
8
0
5
1009
100
AcDbEntity
62
0
100
AcDbLine
10
6.809515
20
-51.046409
11
6.181530
21
-50.986601
0
LINE
8
0
5
1010
100
AcDbEntity
62
0
100
AcDbLine
10
6.181530
20
-50.986601
11
5.628305
21
-51.280657
0
LINE
8
0
5
1011
100
AcDbEntity
62
0
100
AcDbLine
10
5.628305
20
-51.280657
11
5.394056
21
-51.634522
0
LINE
8
0
5
1012
100
AcDbEntity
62
0
100
AcDbLine
10
5.394056
20
-51.634522
11
5.085047
21
-53.378926
0
LINE
8
0
5
1013
100
AcDbEntity
62
0
100
AcDbLine
10
5.085047
20
-53.378926
11
5.149840
21
-55.148250
0
LINE
8
0
5
1014
100
AcDbEntity
62
0
100
AcDbLine
10
5.149840
20
-55.148250
11
5.394056
21
-56.299556
0
LINE
8
0
5
1015
100
AcDbEntity
62
0
100
AcDbLine
10
5.394056
20
-56.299556
11
5.797761
21
-56.783005
0
LINE
8
0
5
1016
100
AcDbEntity
62
0
100
AcDbLine
10
5.797761
20
-56.783005
11
6.395842
21
-56.962429
0
LINE
8
0
5
1017
100
AcDbEntity
62
0
100
AcDbLine
10
6.395842
20
-56.962429
11
6.993923
21
-56.783005
0
LINE
8
0
5
1018
100
AcDbEntity
62
0
100
AcDbLine
10
6.993923
20
-56.783005
11
7.392644
21
-56.299556
0
LINE
8
0
5
1019
100
AcDbEntity
62
0
100
AcDbLine
10
7.392644
20
-56.299556
11
7.701653
21
-54.560136
0
LINE
8
0
5
1020
100
AcDbEntity
62
0
100
AcDbLine
10
7.701653
20
-54.560136
11
7.671749
21
-53.675474
0
LINE
8
0
5
1021
100
AcDbEntity
62
0
100
AcDbLine
10
3.009207
20
-53.675474
11
2.976811
21
-52.790813
0
LINE
8
0
5
1022
100
AcDbEntity
62
0
100
AcDbLine
10
2.976811
20
-52.790813
11
2.732594
21
-51.634522
0
LINE
8
0
5
1023
100
AcDbEntity
62
0
100
AcDbLine
10
2.732594
20
-51.634522
11
2.333874
21
-51.146089
0
LINE
8
0
5
1024
100
AcDbEntity
62
0
100
AcDbLine
10
2.333874
20
-51.146089
11
1.730808
21
-50.966665
0
LINE
8
0
5
1025
100
AcDbEntity
62
0
100
AcDbLine
10
1.730808
20
-50.966665
11
1.127743
21
-51.146089
0
LINE
8
0
5
1026
100
AcDbEntity
62
0
100
AcDbLine
10
1.127743
20
-51.146089
11
0.729022
21
-51.634522
0
LINE
8
0
5
1027
100
AcDbEntity
62
0
100
AcDbLine
10
0.729022
20
-51.634522
11
0.420014
21
-53.378926
0
LINE
8
0
5
1028
100
AcDbEntity
62
0
100
AcDbLine
10
0.420014
20
-53.378926
11
0.484806
21
-55.148250
0
LINE
8
0
5
1029
100
AcDbEntity
62
0
100
AcDbLine
10
0.484806
20
-55.148250
11
0.729022
21
-56.299556
0
LINE
8
0
5
1030
100
AcDbEntity
62
0
100
AcDbLine
10
0.729022
20
-56.299556
11
1.132727
21
-56.783005
0
LINE
8
0
5
1031
100
AcDbEntity
62
0
100
AcDbLine
10
1.132727
20
-56.783005
11
1.730808
21
-56.962429
0
LINE
8
0
5
1032
100
AcDbEntity
62
0
100
AcDbLine
10
1.730808
20
-56.962429
11
2.328890
21
-56.783005
0
LINE
8
0
5
1033
100
AcDbEntity
62
0
100
AcDbLine
10
2.328890
20
-56.783005
11
2.732594
21
-56.299556
0
LINE
8
0
5
1034
100
AcDbEntity
62
0
100
AcDbLine
10
2.732594
20
-56.299556
11
3.041603
21
-54.560136
0
LINE
8
0
5
1035
100
AcDbEntity
62
0
100
AcDbLine
10
3.041603
20
-54.560136
11
3.009207
21
-53.675474
0
LINE
8
0
5
1036
100
AcDbEntity
62
0
100
AcDbLine
10
-1.655827
20
-53.675474
11
-1.688223
21
-52.790813
0
LINE
8
0
5
1037
100
AcDbEntity
62
0
100
AcDbLine
10
-1.688223
20
-52.790813
11
-2.032120
21
-51.445130
0
LINE
8
0
5
1038
100
AcDbEntity
62
0
100
AcDbLine
10
-2.032120
20
-51.445130
11
-2.520553
21
-51.046409
0
LINE
8
0
5
1039
100
AcDbEntity
62
0
100
AcDbLine
10
-2.520553
20
-51.046409
11
-3.143554
21
-50.986601
0
LINE
8
0
5
1040
100
AcDbEntity
62
0
100
AcDbLine
10
-3.143554
20
-50.986601
11
-3.696779
21
-51.280657
0
LINE
8
0
5
1041
100
AcDbEntity
62
0
100
AcDbLine
10
-3.696779
20
-51.280657
11
-3.931028
21
-51.634522
0
LINE
8
0
5
1042
100
AcDbEntity
62
0
100
AcDbLine
10
-3.931028
20
-51.634522
11
-4.240036
21
-53.378926
0
LINE
8
0
5
1043
100
AcDbEntity
62
0
100
AcDbLine
10
-4.240036
20
-53.378926
11
-4.180228
21
-55.148250
0
LINE
8
0
5
1044
100
AcDbEntity
62
0
100
AcDbLine
10
-4.180228
20
-55.148250
11
-3.831347
21
-56.483964
0
LINE
8
0
5
1045
100
AcDbEntity
62
0
100
AcDbLine
10
-3.831347
20
-56.483964
11
-3.347898
21
-56.882685
0
LINE
8
0
5
1046
100
AcDbEntity
62
0
100
AcDbLine
10
-3.347898
20
-56.882685
11
-2.934226
21
-56.962429
0
LINE
8
0
5
1047
100
AcDbEntity
62
0
100
AcDbLine
10
-2.934226
20
-56.962429
11
-2.336144
21
-56.783005
0
LINE
8
0
5
1048
100
AcDbEntity
62
0
100
AcDbLine
10
-2.336144
20
-56.783005
11
-1.932439
21
-56.299556
0
LINE
8
0
5
1049
100
AcDbEntity
62
0
100
AcDbLine
10
-1.932439
20
-56.299556
11
-1.623431
21
-54.560136
0
LINE
8
0
5
1050
100
AcDbEntity
62
0
100
AcDbLine
10
-1.623431
20
-54.560136
11
-1.655827
21
-53.675474
0
LINE
8
0
5
1051
100
AcDbEntity
62
0
100
AcDbLine
10
-22.257235
20
-53.967039
11
-22.257235
21
-56.967413
0
LINE
8
0
5
1052
100
AcDbEntity
62
0
100
AcDbLine
10
-22.257235
20
-56.967413
11
-20.024398
21
-56.947477
0
LINE
8
0
5
1053
100
AcDbEntity
62
0
100
AcDbLine
10
-20.024398
20
-56.947477
11
-19.401397
21
-56.653421
0
LINE
8
0
5
1054
100
AcDbEntity
62
0
100
AcDbLine
10
-19.401397
20
-56.653421
11
-19.002676
21
-56.090228
0
LINE
8
0
5
1055
100
AcDbEntity
62
0
100
AcDbLine
10
-19.002676
20
-56.090228
11
-18.922932
21
-55.636683
0
LINE
8
0
5
1056
100
AcDbEntity
62
0
100
AcDbLine
10
-18.922932
20
-55.636683
11
-18.942868
21
-52.068131
0
LINE
8
0
5
1057
100
AcDbEntity
62
0
100
AcDbLine
10
-18.942868
20
-52.068131
11
-19.236924
21
-51.445130
0
LINE
8
0
5
1058
100
AcDbEntity
62
0
100
AcDbLine
10
-19.236924
20
-51.445130
11
-19.800117
21
-51.046409
0
LINE
8
0
5
1059
100
AcDbEntity
62
0
100
AcDbLine
10
-19.800117
20
-51.046409
11
-20.253662
21
-50.966665
0
LINE
8
0
5
1060
100
AcDbEntity
62
0
100
AcDbLine
10
-20.253662
20
-50.966665
11
-22.257235
21
-50.966665
0
LINE
8
0
5
1061
100
AcDbEntity
62
0
100
AcDbLine
10
-22.257235
20
-50.966665
11
-22.257235
21
-53.967039
0
CIRCLE
8
TAGLIO
5
1062
100
AcDbEntity
62
0
100
AcDbCircle
10
-26.767767
20
40.000000
40
4.500000
0
LINE
8
TAGLIO
5
1063
100
AcDbEntity
62
0
100
AcDbLine
10
-34.267767
20
-25.000000
11
-34.267767
21
-37.500000
0
ARC
8
TAGLIO
5
1064
100
AcDbEntity
62
0
100
AcDbCircle
10
-26.767767
20
-37.500000
40
7.500000
100
AcDbArc
50
180.000000
51
360.000000
0
LINE
8
TAGLIO
5
1065
100
AcDbEntity
62
0
100
AcDbLine
10
-19.267767
20
-37.500000
11
-19.267767
21
-12.500000
0
ARC
8
TAGLIO
5
1066
100
AcDbEntity
62
0
100
AcDbCircle
10
-26.767767
20
-12.500000
40
7.500000
100
AcDbArc
50
0.000000
51
180.000000
0
LINE
8
TAGLIO
5
1067
100
AcDbEntity
62
0
100
AcDbLine
10
-34.267767
20
-12.500000
11
-34.267767
21
-25.000000
0
LINE
8
0
5
1068
100
AcDbEntity
62
0
100
AcDbLine
10
28.380313
20
-56.967413
11
28.380313
21
-50.966665
0
LINE
8
0
5
1069
100
AcDbEntity
62
0
100
AcDbLine
10
33.045347
20
-50.966665
11
31.480367
21
-50.986601
0
LINE
8
0
5
1070
100
AcDbEntity
62
0
100
AcDbLine
10
31.480367
20
-50.986601
11
30.857366
21
-51.280657
0
LINE
8
0
5
1071
100
AcDbEntity
62
0
100
AcDbLine
10
30.857366
20
-51.280657
11
30.458645
21
-51.843851
0
LINE
8
0
5
1072
100
AcDbEntity
62
0
100
AcDbLine
10
30.458645
20
-51.843851
11
30.378901
21
-52.302379
0
LINE
8
0
5
1073
100
AcDbEntity
62
0
100
AcDbLine
10
30.378901
20
-52.302379
11
30.398837
21
-55.865947
0
LINE
8
0
5
1074
100
AcDbEntity
62
0
100
AcDbLine
10
30.398837
20
-55.865947
11
30.692894
21
-56.488948
0
LINE
8
0
5
1075
100
AcDbEntity
62
0
100
AcDbLine
10
30.692894
20
-56.488948
11
31.256087
21
-56.887669
0
LINE
8
0
5
1076
100
AcDbEntity
62
0
100
AcDbLine
10
31.256087
20
-56.887669
11
31.714616
21
-56.967413
0
LINE
8
0
5
1077
100
AcDbEntity
62
0
100
AcDbLine
10
31.714616
20
-56.967413
11
33.045347
21
-56.967413
0
LINE
8
0
5
1078
100
AcDbEntity
62
0
100
AcDbLine
10
23.715279
20
-54.968825
11
26.381725
21
-54.968825
0
LINE
8
0
5
1079
100
AcDbEntity
62
0
100
AcDbLine
10
19.055229
20
-54.968825
11
21.716691
21
-54.968825
0
LINE
8
0
5
1080
100
AcDbEntity
62
0
100
AcDbLine
10
14.390195
20
-56.967413
11
15.651150
21
-56.947477
0
LINE
8
0
5
1081
100
AcDbEntity
62
0
100
AcDbLine
10
15.651150
20
-56.947477
11
16.368847
21
-56.648437
0
LINE
8
0
5
1082
100
AcDbEntity
62
0
100
AcDbLine
10
16.368847
20
-56.648437
11
16.872232
21
-56.055339
0
LINE
8
0
5
1083
100
AcDbEntity
62
0
100
AcDbLine
10
16.872232
20
-56.055339
11
17.056641
21
-55.302754
0
LINE
8
0
5
1084
100
AcDbEntity
62
0
100
AcDbLine
10
17.056641
20
-55.302754
11
16.872232
21
-54.545184
0
LINE
8
0
5
1085
100
AcDbEntity
62
0
100
AcDbLine
10
16.872232
20
-54.545184
11
16.368847
21
-53.952087
0
LINE
8
0
5
1086
100
AcDbEntity
62
0
100
AcDbLine
10
16.368847
20
-53.952087
11
15.651150
21
-53.653046
0
LINE
8
0
5
1087
100
AcDbEntity
62
0
100
AcDbLine
10
15.651150
20
-53.653046
11
15.058053
21
-53.633110
0
LINE
8
0
5
1088
100
AcDbEntity
62
0
100
AcDbLine
10
15.720926
20
-53.633110
11
16.388783
21
-53.453686
0
LINE
8
0
5
1089
100
AcDbEntity
62
0
100
AcDbLine
10
16.388783
20
-53.453686
11
16.877216
21
-52.970237
0
LINE
8
0
5
1090
100
AcDbEntity
62
0
100
AcDbLine
10
16.877216
20
-52.970237
11
17.056641
21
-52.302379
0
LINE
8
0
5
1091
100
AcDbEntity
62
0
100
AcDbLine
10
17.056641
20
-52.302379
11
16.877216
21
-51.634522
0
LINE
8
0
5
1092
100
AcDbEntity
62
0
100
AcDbLine
10
16.877216
20
-51.634522
11
16.388783
21
-51.146089
0
LINE
8
0
5
1093
100
AcDbEntity
62
0
100
AcDbLine
10
16.388783
20
-51.146089
11
15.720926
21
-50.966665
0
LINE
8
0
5
1094
100
AcDbEntity
62
0
100
AcDbLine
10
15.720926
20
-50.966665
11
14.390195
21
-50.966665
0
LINE
8
0
5
1095
100
AcDbEntity
62
0
100
AcDbLine
10
12.391607
20
-56.967413
11
9.725161
21
-56.967413
0
LINE
8
0
5
1096
100
AcDbEntity
62
0
100
AcDbLine
10
9.725161
20
-56.967413
11
12.316847
21
-52.800781
0
LINE
8
0
5
1097
100
AcDbEntity
62
0
100
AcDbLine
10
12.316847
20
-52.800781
11
12.391607
21
-51.968451
0
LINE
8
0
5
1098
100
AcDbEntity
62
0
100
AcDbLine
10
12.391607
20
-51.968451
11
12.027774
21
-51.365386
0
LINE
8
0
5
1099
100
AcDbEntity
62
0
100
AcDbLine
10
12.027774
20
-51.365386
11
11.409757
21
-51.016505
0
LINE
8
0
5
1100
100
AcDbEntity
62
0
100
AcDbLine
10
11.409757
20
-51.016505
11
10.707011
21
-51.016505
0
LINE
8
0
5
1101
100
AcDbEntity
62
0
100
AcDbLine
10
10.707011
20
-51.016505
11
10.088994
21
-51.365386
0
LINE
8
0
5
1102
100
AcDbEntity
62
0
100
AcDbLine
10
10.088994
20
-51.365386
11
9.725161
21
-51.968451
0
LINE
8
0
5
1103
100
AcDbEntity
62
0
100
AcDbLine
10
-10.260721
20
-56.967413
11
-10.260721
21
-50.966665
0
LINE
8
0
5
1104
100
AcDbEntity
62
0
100
AcDbLine
10
-10.260721
20
-50.966665
11
-8.262133
21
-54.300968
0
LINE
8
0
5
1105
100
AcDbEntity
62
0
100
AcDbLine
10
-8.262133
20
-54.300968
11
-6.263545
21
-50.966665
0
LINE
8
0
5
1106
100
AcDbEntity
62
0
100
AcDbLine
10
-6.263545
20
-50.966665
11
-6.263545
21
-56.967413
0
LINE
8
0
5
1107
100
AcDbEntity
62
0
100
AcDbLine
10
-12.259309
20
-56.967413
11
-12.259309
21
-50.966665
0
LINE
8
0
5
1108
100
AcDbEntity
62
0
100
AcDbLine
10
-16.924343
20
-54.968825
11
-14.257898
21
-54.968825
0
LINE
8
0
5
1109
100
AcDbEntity
62
0
100
AcDbLine
10
-27.585142
20
-50.966665
11
-24.255823
21
-50.966665
0
LINE
8
0
5
1110
100
AcDbEntity
62
0
100
AcDbLine
10
-25.920482
20
-56.967413
11
-25.920482
21
-50.966665
0
LINE
8
0
5
1111
100
AcDbEntity
62
0
100
AcDbLine
10
-32.584105
20
-56.633485
11
-31.781679
21
-56.962429
0
LINE
8
0
5
1112
100
AcDbEntity
62
0
100
AcDbLine
10
-31.781679
20
-56.962429
11
-30.914461
21
-56.967413
0
LINE
8
0
5
1113
100
AcDbEntity
62
0
100
AcDbLine
10
-30.914461
20
-56.967413
11
-30.221684
21
-56.753101
0
LINE
8
0
5
1114
100
AcDbEntity
62
0
100
AcDbLine
10
-30.221684
20
-56.753101
11
-29.718298
21
-56.224796
0
LINE
8
0
5
1115
100
AcDbEntity
62
0
100
AcDbLine
10
-29.718298
20
-56.224796
11
-29.543858
21
-55.517066
0
LINE
8
0
5
1116
100
AcDbEntity
62
0
100
AcDbLine
10
-29.543858
20
-55.517066
11
-29.738234
21
-54.819305
0
LINE
8
0
5
1117
100
AcDbEntity
62
0
100
AcDbLine
10
-29.738234
20
-54.819305
11
-30.251588
21
-54.300968
0
LINE
8
0
5
1118
100
AcDbEntity
62
0
100
AcDbLine
10
-30.251588
20
-54.300968
11
-32.100655
21
-53.164613
0
LINE
8
0
5
1119
100
AcDbEntity
62
0
100
AcDbLine
10
-32.100655
20
-53.164613
11
-32.489408
21
-52.601420
0
LINE
8
0
5
1120
100
AcDbEntity
62
0
100
AcDbLine
10
-32.489408
20
-52.601420
11
-32.544232
21
-51.918611
0
LINE
8
0
5
1121
100
AcDbEntity
62
0
100
AcDbLine
10
-32.544232
20
-51.918611
11
-32.250176
21
-51.300593
0
LINE
8
0
5
1122
100
AcDbEntity
62
0
100
AcDbLine
10
-32.250176
20
-51.300593
11
-31.263342
21
-50.986601
0
LINE
8
0
5
1123
100
AcDbEntity
62
0
100
AcDbLine
10
-31.263342
20
-50.986601
11
-30.231652
21
-51.051393
0
LINE
8
0
5
1124
100
AcDbEntity
62
0
100
AcDbLine
10
-30.231652
20
-51.051393
11
-29.583730
21
-51.300593
0
LINE
8
TAGLIO
5
1125
100
AcDbEntity
62
0
100
AcDbLine
10
48.232233
20
0.000000
11
48.232233
21
-50.000000
0
ARC
8
TAGLIO
5
1126
100
AcDbEntity
62
0
100
AcDbCircle
10
38.232233
20
-50.000000
40
10.000000
100
AcDbArc
50
270.000000
51
360.000000
0
LINE
8
TAGLIO
5
1127
100
AcDbEntity
62
0
100
AcDbLine
10
38.232233
20
-60.000000
11
-41.767767
21
-60.000000
0
ARC
8
TAGLIO
5
1128
100
AcDbEntity
62
0
100
AcDbCircle
10
-41.767767
20
-50.000000
40
10.000000
100
AcDbArc
50
180.000000
51
270.000000
0
LINE
8
TAGLIO
5
1129
100
AcDbEntity
62
0
100
AcDbLine
10
-51.767767
20
-50.000000
11
-51.767767
21
50.000000
0
ARC
8
TAGLIO
5
1130
100
AcDbEntity
62
0
100
AcDbCircle
10
-41.767767
20
50.000000
40
10.000000
100
AcDbArc
50
90.000000
51
180.000000
0
LINE
8
TAGLIO
5
1131
100
AcDbEntity
62
0
100
AcDbLine
10
-41.767767
20
60.000000
11
38.232233
21
60.000000
0
ARC
8
TAGLIO
5
1132
100
AcDbEntity
62
0
100
AcDbCircle
10
38.232233
20
50.000000
40
10.000000
100
AcDbArc
50
0.000000
51
90.000000
0
LINE
8
TAGLIO
5
1133
100
AcDbEntity
62
0
100
AcDbLine
10
48.232233
20
50.000000
11
48.232233
21
0.000000
0
ENDSEC
  0
SECTION
  2
OBJECTS
  0
DICTIONARY
  5
C
330
0
100
AcDbDictionary
  3
ACAD_GROUP
350
D
  3
ACAD_LAYOUT
350
1A
  3
ACAD_MLINESTYLE
350
17
  3
ACAD_PLOTSETTINGS
350
19
1001
ACAD
1000
TREAT_AS_HARD
1070
     0
  0
DICTIONARY
  5
56
330
1F
100
AcDbDictionary
  3
ACAD_LAYOUTSELFREF
350
57
  0
DICTIONARY
  5
54
330
1B
100
AcDbDictionary
  3
ACAD_LAYOUTSELFREF
350
55
  0
DICTIONARY
  5
D
102
{ACAD_REACTORS
330
C
102
}
330
C
100
AcDbDictionary
1001
ACAD
1000
TREAT_AS_HARD
1070
     0
  0
DICTIONARY
  5
1A
102
{ACAD_REACTORS
330
C
102
}
330
C
100
AcDbDictionary
1001
ACAD
1000
TREAT_AS_HARD
1070
     0
  0
DICTIONARY
  5
17
102
{ACAD_REACTORS
330
C
102
}
330
C
100
AcDbDictionary
  3
STANDARD
350
18
1001
ACAD
1000
TREAT_AS_HARD
1070
     0
  0
DICTIONARY
  5
19
102
{ACAD_REACTORS
330
C
102
}
330
C
100
AcDbDictionary
1001
ACAD
1000
TREAT_AS_HARD
1070
     0
  0
XRECORD
  5
57
102
{ACAD_REACTORS
330
56
102
}
330
56
100
AcDbXrecord
340
1F
  0
XRECORD
  5
55
102
{ACAD_REACTORS
330
54
102
}
330
54
100
AcDbXrecord
340
1B
  0
MLINESTYLE
  5
18
102
{ACAD_REACTORS
330
17
102
}
330
17
100
AcDbMlineStyle
  2
STANDARD
 70
     0
  3

 62
   256
 51
90.0
 52
90.0
 71
     2
 49
0.5
 62
   256
  6
BYLAYER
 49
-0.5
 62
   256
  6
BYLAYER
  0
ENDSEC
  0
EOF
