  0
SECTION
  2
HEADER
  9
$ACADVER
  1
AC1012
  9
$DWGCODEPAGE
  3
ANSI_1252
  9
$INSBASE
 10
0.0
 20
0.0
 30
0.0
  9
$EXTMIN
 10
1.000000000000000E+20
 20
1.000000000000000E+20
 30
1.000000000000000E+20
  9
$EXTMAX
 10
-1.000000000000000E+20
 20
-1.000000000000000E+20
 30
-1.000000000000000E+20
  9
$LIMMIN
 10
0.0
 20
0.0
  9
$LIMMAX
 10
420.0
 20
297.0
  9
$ORTHOMODE
 70
     0
  9
$REGENMODE
 70
     1
  9
$FILLMODE
 70
     1
  9
$QTEXTMODE
 70
     0
  9
$MIRRTEXT
 70
     1
  9
$DRAGMODE
 70
     2
  9
$LTSCALE
 40
1.0
  9
$OSMODE
 70
    37
  9
$ATTMODE
 70
     1
  9
$TEXTSIZE
 40
2.5
  9
$TRACEWID
 40
1.0
  9
$TEXTSTYLE
  7
STANDARD
  9
$CLAYER
  8
0
  9
$CELTYPE
  6
BYLAYER
  9
$CECOLOR
 62
   256
  9
$CELTSCALE
 40
1.0
  9
$DELOBJ
 70
     1
  9
$DISPSILH
 70
     0
  9
$DIMSCALE
 40
1.0
  9
$DIMASZ
 40
2.5
  9
$DIMEXO
 40
0.625
  9
$DIMDLI
 40
3.75
  9
$DIMRND
 40
0.0
  9
$DIMDLE
 40
0.0
  9
$DIMEXE
 40
1.25
  9
$DIMTP
 40
0.0
  9
$DIMTM
 40
0.0
  9
$DIMTXT
 40
2.5
  9
$DIMCEN
 40
2.5
  9
$DIMTSZ
 40
0.0
  9
$DIMTOL
 70
     0
  9
$DIMLIM
 70
     0
  9
$DIMTIH
 70
     0
  9
$DIMTOH
 70
     0
  9
$DIMSE1
 70
     0
  9
$DIMSE2
 70
     0
  9
$DIMTAD
 70
     1
  9
$DIMZIN
 70
     8
  9
$DIMBLK
  1

  9
$DIMASO
 70
     1
  9
$DIMSHO
 70
     1
  9
$DIMPOST
  1

  9
$DIMAPOST
  1

  9
$DIMALT
 70
     0
  9
$DIMALTD
 70
     3
  9
$DIMALTF
 40
0.03937007874016
  9
$DIMLFAC
 40
1.0
  9
$DIMTOFL
 70
     1
  9
$DIMTVP
 40
0.0
  9
$DIMTIX
 70
     0
  9
$DIMSOXD
 70
     0
  9
$DIMSAH
 70
     0
  9
$DIMBLK1
  1

  9
$DIMBLK2
  1

  9
$DIMSTYLE
  2
ISO-25
  9
$DIMCLRD
 70
     0
  9
$DIMCLRE
 70
     0
  9
$DIMCLRT
 70
     0
  9
$DIMTFAC
 40
1.0
  9
$DIMGAP
 40
0.625
  9
$DIMJUST
 70
     0
  9
$DIMSD1
 70
     0
  9
$DIMSD2
 70
     0
  9
$DIMTOLJ
 70
     0
  9
$DIMTZIN
 70
     8
  9
$DIMALTZ
 70
     0
  9
$DIMALTTZ
 70
     0
  9
$DIMFIT
 70
     3
  9
$DIMUPT
 70
     0
  9
$DIMUNIT
 70
     2
  9
$DIMDEC
 70
     2
  9
$DIMTDEC
 70
     2
  9
$DIMALTU
 70
     2
  9
$DIMALTTD
 70
     3
  9
$DIMTXSTY
  7
STANDARD
  9
$DIMAUNIT
 70
     0
  9
$LUNITS
 70
     2
  9
$LUPREC
 70
     4
  9
$SKETCHINC
 40
1.0
  9
$FILLETRAD
 40
10.0
  9
$AUNITS
 70
     0
  9
$AUPREC
 70
     0
  9
$MENU
  1
.
  9
$ELEVATION
 40
0.0
  9
$PELEVATION
 40
0.0
  9
$THICKNESS
 40
0.0
  9
$LIMCHECK
 70
     0
  9
$BLIPMODE
 70
     0
  9
$CHAMFERA
 40
10.0
  9
$CHAMFERB
 40
10.0
  9
$CHAMFERC
 40
20.0
  9
$CHAMFERD
 40
0.0
  9
$SKPOLY
 70
     0
  9
$TDCREATE
 40
2453791.390765335
  9
$TDUPDATE
 40
2453791.391223773
  9
$TDINDWG
 40
0.0004622338
  9
$TDUSRTIMER
 40
0.0004607870
  9
$USRTIMER
 70
     1
  9
$ANGBASE
 50
0.0
  9
$ANGDIR
 70
     0
  9
$PDMODE
 70
     0
  9
$PDSIZE
 40
0.0
  9
$PLINEWID
 40
0.0
  9
$COORDS
 70
     2
  9
$SPLFRAME
 70
     0
  9
$SPLINETYPE
 70
     6
  9
$SPLINESEGS
 70
     8
  9
$ATTDIA
 70
     0
  9
$ATTREQ
 70
     1
  9
$HANDLING
 70
 10241
  9
$HANDSEED
5
3020
  9
$SURFTAB1
 70
     6
  9
$SURFTAB2
 70
     6
  9
$SURFTYPE
 70
     6
  9
$SURFU
 70
     6
  9
$SURFV
 70
     6
  9
$UCSNAME
  2

  9
$UCSORG
 10
0.0
 20
0.0
 30
0.0
  9
$UCSXDIR
 10
1.0
 20
0.0
 30
0.0
  9
$UCSYDIR
 10
0.0
 20
1.0
 30
0.0
  9
$PUCSNAME
  2

  9
$PUCSORG
 10
0.0
 20
0.0
 30
0.0
  9
$PUCSXDIR
 10
1.0
 20
0.0
 30
0.0
  9
$PUCSYDIR
 10
0.0
 20
1.0
 30
0.0
  9
$USERI1
 70
     0
  9
$USERI2
 70
     0
  9
$USERI3
 70
     0
  9
$USERI4
 70
     0
  9
$USERI5
 70
     0
  9
$USERR1
 40
0.0
  9
$USERR2
 40
0.0
  9
$USERR3
 40
0.0
  9
$USERR4
 40
0.0
  9
$USERR5
 40
0.0
  9
$WORLDVIEW
 70
     1
  9
$SHADEDGE
 70
     3
  9
$SHADEDIF
 70
    70
  9
$TILEMODE
 70
     1
  9
$MAXACTVP
 70
    64
  9
$PINSBASE
 10
0.0
 20
0.0
 30
0.0
  9
$PLIMCHECK
 70
     0
  9
$PEXTMIN
 10
1.049999952316284
 20
0.7999999523162842
 30
0.0
  9
$PEXTMAX
 10
9.449999570846555
 20
7.199999570846556
 30
0.0
  9
$PLIMMIN
 10
-0.2500002402958907
 20
-0.2499999962453767
  9
$PLIMMAX
 10
10.74999951940821
 20
8.249999763458731
  9
$UNITMODE
 70
     0
  9
$VISRETAIN
 70
     1
  9
$PLINEGEN
 70
     0
  9
$PSLTSCALE
 70
     1
  9
$TREEDEPTH
 70
  3020
  9
$PICKSTYLE
 70
     1
  9
$CMLSTYLE
  2
STANDARD
  9
$CMLJUST
 70
     0
  9
$CMLSCALE
 40
20.0
  9
$SAVEIMAGES
 70
     1
  0
ENDSEC
  0
SECTION
  2
CLASSES
  0
CLASS
  1
ACDBDICTIONARYWDFLT
  2
AcDbDictionaryWithDefault
  3
AutoCAD 2000
 90
    32768
280
     0
281
     0
  0
CLASS
  1
ACDBPLACEHOLDER
  2
AcDbPlaceHolder
  3
AutoCAD 2000
 90
    32768
280
     0
281
     0
  0
CLASS
  1
LAYOUT
  2
AcDbLayout
  3
AutoCAD 2000
 90
    32768
280
     0
281
     0
  0
CLASS
  1
LONG_TRANSACTION
  2
AcDbLongTransaction
  3
AutoCAD 2000
 90
    32768
280
     0
281
     0
  0
CLASS
  1
LWPOLYLINE
  2
AcDbPolyline
  3
AutoCAD 2000
 90
    32768
280
     0
281
     1
  0
CLASS
  1
HATCH
  2
AcDbHatch
  3
AutoCAD 2000
 90
    32768
280
     0
281
     1
  0
CLASS
  1
XRECORD
  2
AcDbXrecord
  3
AutoCAD 2000
 90
    32768
280
     0
281
     0
  0
ENDSEC
  0
SECTION
  2
TABLES
  0
TABLE
  2
VPORT
  5
8
330
0
100
AcDbSymbolTable
 70
     1
  0
VPORT
  5
44
330
8
100
AcDbSymbolTableRecord
100
AcDbViewportTableRecord
  2
*ACTIVE
 70
     0
 10
0.0
 20
0.0
 11
1.0
 21
1.0
 12
405.1039789629261
 22
161.3399337557603
 13
0.0
 23
0.0
 14
10.0
 24
10.0
 15
10.0
 25
10.0
 16
0.0
 26
0.0
 36
1.0
 17
0.0
 27
0.0
 37
0.0
 40
322.8815341781873
 41
1.952789699570815
 42
50.0
 43
0.0
 44
0.0
 50
0.0
 51
0.0
 71
     0
 72
   100
 73
     1
 74
     3
 75
     0
 76
     0
 77
     0
 78
     0
  0
ENDTAB
  0
TABLE
  2
LTYPE
  5
5
330
0
100
AcDbSymbolTable
 70
     1
  0
LTYPE
  5
14
330
5
100
AcDbSymbolTableRecord
100
AcDbLinetypeTableRecord
  2
BYBLOCK
 70
     0
  3

 72
    65
 73
     0
 40
0.0
  0
LTYPE
  5
15
330
5
100
AcDbSymbolTableRecord
100
AcDbLinetypeTableRecord
  2
BYLAYER
 70
     0
  3

 72
    65
 73
     0
 40
0.0
  0
LTYPE
  5
16
330
5
100
AcDbSymbolTableRecord
100
AcDbLinetypeTableRecord
  2
CONTINUOUS
 70
     0
  3
Solid line
 72
    65
 73
     0
 40
0.0
  0
ENDTAB
  0
TABLE
  2
LAYER
  5
2
330
0
100
AcDbSymbolTable
 70
     1
  0
LAYER
  5
10
330
2
100
AcDbSymbolTableRecord
100
AcDbLayerTableRecord
  2
0
 70
     0
 62
     7
  6
CONTINUOUS
  0
ENDTAB
  0
TABLE
  2
STYLE
  5
3
330
0
100
AcDbSymbolTable
 70
     1
  0
STYLE
  5
11
330
3
100
AcDbSymbolTableRecord
100
AcDbTextStyleTableRecord
  2
STANDARD
 70
     0
 40
0.0
 41
1.0
 50
0.0
 71
     0
 42
2.5
  3
txt
  4

  0
ENDTAB
  0
TABLE
  2
VIEW
  5
6
330
0
100
AcDbSymbolTable
 70
     0
  0
ENDTAB
  0
TABLE
  2
UCS
  5
7
330
0
100
AcDbSymbolTable
 70
     0
  0
ENDTAB
  0
TABLE
  2
APPID
  5
9
330
0
100
AcDbSymbolTable
 70
     1
  0
APPID
  5
12
330
9
100
AcDbSymbolTableRecord
100
AcDbRegAppTableRecord
  2
ACAD
 70
     0
  0
ENDTAB
  0
TABLE
  2
DIMSTYLE
  5
A
330
0
100
AcDbSymbolTable
 70
     1
  0
DIMSTYLE
105
27
330
A
100
AcDbSymbolTableRecord
100
AcDbDimStyleTableRecord
  2
ISO-25
 70
     0
  3

  4

  5

  6

  7

 40
1.0
 41
2.5
 42
0.625
 43
3.75
 44
1.25
 45
0.0
 46
0.0
 47
0.0
 48
0.0
140
2.5
141
2.5
142
0.0
143
0.03937007874016
144
1.0
145
0.0
146
1.0
147
0.625
 71
     0
 72
     0
 73
     0
 74
     0
 75
     0
 76
     0
 77
     1
 78
     8
170
     0
171
     3
172
     1
173
     0
174
     0
175
     0
176
     0
177
     0
178
     0
270
     2
271
     2
272
     2
273
     2
274
     3
340
11
275
     0
280
     0
281
     0
282
     0
283
     0
284
     8
285
     0
286
     0
287
     3
288
     0
  0
ENDTAB
  0
TABLE
  2
BLOCK_RECORD
  5
1
330
0
100
AcDbSymbolTable
 70
     1
  0
BLOCK_RECORD
  5
1F
102
{ACAD_XDICTIONARY
360
56
102
}
330
1
100
AcDbSymbolTableRecord
100
AcDbBlockTableRecord
  2
*MODEL_SPACE
  0
BLOCK_RECORD
  5
1B
102
{ACAD_XDICTIONARY
360
54
102
}
330
1
100
AcDbSymbolTableRecord
100
AcDbBlockTableRecord
  2
*PAPER_SPACE
  0
ENDTAB
  0
ENDSEC
  0
SECTION
  2
BLOCKS
  0
BLOCK
  5
20
330
1F
100
AcDbEntity
  8
0
100
AcDbBlockBegin
  2
*MODEL_SPACE
 70
     0
 10
0.0
 20
0.0
 30
0.0
  3
*MODEL_SPACE
  1

  0
ENDBLK
  5
21
330
1F
100
AcDbEntity
  8
0
100
AcDbBlockEnd
  0
BLOCK
  5
1C
330
1B
100
AcDbEntity
 67
     1
  8
0
100
AcDbBlockBegin
  2
*PAPER_SPACE
 70
     0
 10
0.0
 20
0.0
 30
0.0
  3
*PAPER_SPACE
  1

  0
ENDBLK
  5
1D
330
1B
100
AcDbEntity
 67
     1
  8
0
100
AcDbBlockEnd
  0
ENDSEC
  0
SECTION
  2
ENTITIES
0
CIRCLE
8
TAGLIO
5
1000
100
AcDbEntity
62
0
100
AcDbCircle
10
509.988103
20
-7.198007
40
6.250000
0
ARC
8
TAGLIO
5
1001
100
AcDbEntity
62
0
100
AcDbCircle
10
412.369797
20
-56.906378
40
93.900000
100
AcDbArc
50
345.105042
51
348.000000
0
ARC
8
TAGLIO
5
1002
100
AcDbEntity
62
0
100
AcDbCircle
10
508.043268
20
-82.354105
40
5.100000
100
AcDbArc
50
165.105042
51
345.105042
0
ARC
8
TAGLIO
5
1003
100
AcDbEntity
62
0
100
AcDbCircle
10
412.369797
20
-56.906378
40
104.100000
100
AcDbArc
50
345.105042
51
350.894958
0
ARC
8
TAGLIO
5
1004
100
AcDbEntity
62
0
100
AcDbCircle
10
510.122385
20
-72.572629
40
5.100000
100
AcDbArc
50
350.894958
51
170.894958
0
ARC
8
TAGLIO
5
1005
100
AcDbEntity
62
0
100
AcDbCircle
10
412.369797
20
-56.906378
40
93.900000
100
AcDbArc
50
348.000000
51
350.894958
0
ARC
8
TAGLIO
5
1006
100
AcDbEntity
62
0
100
AcDbCircle
10
412.369797
20
-56.906378
40
45.177729
100
AcDbArc
50
283.013718
51
287.941764
0
ARC
8
TAGLIO
5
1007
100
AcDbEntity
62
0
100
AcDbCircle
10
423.500147
20
-105.064614
40
4.250000
100
AcDbArc
50
103.013718
51
283.013718
0
ARC
8
TAGLIO
5
1008
100
AcDbEntity
62
0
100
AcDbCircle
10
412.369797
20
-56.906378
40
53.677729
100
AcDbArc
50
283.013718
51
292.869811
0
ARC
8
TAGLIO
5
1009
100
AcDbEntity
62
0
100
AcDbCircle
10
431.579316
20
-102.448608
40
4.250000
100
AcDbArc
50
292.869811
51
112.869811
0
ARC
8
TAGLIO
5
1010
100
AcDbEntity
62
0
100
AcDbCircle
10
412.369797
20
-56.906378
40
45.177729
100
AcDbArc
50
287.941764
51
292.869811
0
LINE
8
TAGLIO
5
1011
100
AcDbEntity
62
0
100
AcDbLine
10
412.369797
20
-62.006378
11
417.469797
21
-62.006378
0
LINE
8
TAGLIO
5
1012
100
AcDbEntity
62
0
100
AcDbLine
10
417.469797
20
-62.006378
11
417.469797
21
-51.806378
0
LINE
8
TAGLIO
5
1013
100
AcDbEntity
62
0
100
AcDbLine
10
417.469797
20
-51.806378
11
407.269797
21
-51.806378
0
LINE
8
TAGLIO
5
1014
100
AcDbEntity
62
0
100
AcDbLine
10
407.269797
20
-51.806378
11
407.269797
21
-62.006378
0
LINE
8
TAGLIO
5
1015
100
AcDbEntity
62
0
100
AcDbLine
10
407.269797
20
-62.006378
11
412.369797
21
-62.006378
0
LINE
8
TAGLIO
5
1016
100
AcDbEntity
62
0
100
AcDbLine
10
368.585183
20
-27.703040
11
377.784207
21
-23.413465
0
LINE
8
TAGLIO
5
1017
100
AcDbEntity
62
0
100
AcDbLine
10
377.784207
20
-23.413465
11
376.389566
21
-20.422649
0
LINE
8
TAGLIO
5
1018
100
AcDbEntity
62
0
100
AcDbLine
10
376.389566
20
-20.422649
11
357.991518
21
-29.001800
0
LINE
8
TAGLIO
5
1019
100
AcDbEntity
62
0
100
AcDbLine
10
357.991518
20
-29.001800
11
359.386158
21
-31.992615
0
LINE
8
TAGLIO
5
1020
100
AcDbEntity
62
0
100
AcDbLine
10
359.386158
20
-31.992615
11
368.585183
21
-27.703040
0
CIRCLE
8
TAGLIO
5
1021
100
AcDbEntity
62
0
100
AcDbCircle
10
289.988103
20
2.801993
40
6.250000
0
LINE
8
TAGLIO
5
1022
100
AcDbEntity
62
0
100
AcDbLine
10
158.206400
20
-33.448007
11
43.206400
21
-33.448007
0
ARC
8
TAGLIO
5
1023
100
AcDbEntity
62
0
100
AcDbCircle
10
43.206400
20
-38.698007
40
5.250000
100
AcDbArc
50
90.000000
51
270.000000
0
LINE
8
TAGLIO
5
1024
100
AcDbEntity
62
0
100
AcDbLine
10
43.206400
20
-43.948007
11
273.206400
21
-43.948007
0
ARC
8
TAGLIO
5
1025
100
AcDbEntity
62
0
100
AcDbCircle
10
273.206400
20
-38.698007
40
5.250000
100
AcDbArc
50
270.000000
51
90.000000
0
LINE
8
TAGLIO
5
1026
100
AcDbEntity
62
0
100
AcDbLine
10
273.206400
20
-33.448007
11
158.206400
21
-33.448007
0
LINE
8
TAGLIO
5
1027
100
AcDbEntity
62
0
100
AcDbLine
10
163.206400
20
-53.698007
11
38.206400
21
-53.698007
0
ARC
8
TAGLIO
5
1028
100
AcDbEntity
62
0
100
AcDbCircle
10
38.206400
20
-73.698007
40
20.000000
100
AcDbArc
50
90.000000
51
270.000000
0
LINE
8
TAGLIO
5
1029
100
AcDbEntity
62
0
100
AcDbLine
10
38.206400
20
-93.698007
11
288.206400
21
-93.698007
0
ARC
8
TAGLIO
5
1030
100
AcDbEntity
62
0
100
AcDbCircle
10
288.206400
20
-73.698007
40
20.000000
100
AcDbArc
50
270.000000
51
90.000000
0
LINE
8
TAGLIO
5
1031
100
AcDbEntity
62
0
100
AcDbLine
10
288.206400
20
-53.698007
11
163.206400
21
-53.698007
0
LINE
8
TAGLIO
5
1032
100
AcDbEntity
62
0
100
AcDbLine
10
158.206400
20
-103.448007
11
43.206400
21
-103.448007
0
ARC
8
TAGLIO
5
1033
100
AcDbEntity
62
0
100
AcDbCircle
10
43.206400
20
-108.698007
40
5.250000
100
AcDbArc
50
90.000000
51
270.000000
0
LINE
8
TAGLIO
5
1034
100
AcDbEntity
62
0
100
AcDbLine
10
43.206400
20
-113.948007
11
273.206400
21
-113.948007
0
ARC
8
TAGLIO
5
1035
100
AcDbEntity
62
0
100
AcDbCircle
10
273.206400
20
-108.698007
40
5.250000
100
AcDbArc
50
270.000000
51
90.000000
0
LINE
8
TAGLIO
5
1036
100
AcDbEntity
62
0
100
AcDbLine
10
273.206400
20
-103.448007
11
158.206400
21
-103.448007
0
CIRCLE
8
TAGLIO
5
1037
100
AcDbEntity
62
0
100
AcDbCircle
10
29.988103
20
8.801993
40
6.250000
0
CIRCLE
8
TAGLIO
5
1038
100
AcDbEntity
62
0
100
AcDbCircle
10
20.788103
20
-13.698007
40
2.500000
0
LINE
8
TAGLIO
5
1039
100
AcDbEntity
62
0
100
AcDbLine
10
2.038103
20
-87.548007
11
7.138103
21
-87.548007
0
LINE
8
TAGLIO
5
1040
100
AcDbEntity
62
0
100
AcDbLine
10
7.138103
20
-87.548007
11
7.138103
21
-77.348007
0
LINE
8
TAGLIO
5
1041
100
AcDbEntity
62
0
100
AcDbLine
10
7.138103
20
-77.348007
11
-3.061897
21
-77.348007
0
LINE
8
TAGLIO
5
1042
100
AcDbEntity
62
0
100
AcDbLine
10
-3.061897
20
-77.348007
11
-3.061897
21
-87.548007
0
LINE
8
TAGLIO
5
1043
100
AcDbEntity
62
0
100
AcDbLine
10
-3.061897
20
-87.548007
11
2.038103
21
-87.548007
0
LINE
8
TAGLIO
5
1044
100
AcDbEntity
62
0
100
AcDbLine
10
2.038103
20
-170.048007
11
7.138103
21
-170.048007
0
LINE
8
TAGLIO
5
1045
100
AcDbEntity
62
0
100
AcDbLine
10
7.138103
20
-170.048007
11
7.138103
21
-159.848007
0
LINE
8
TAGLIO
5
1046
100
AcDbEntity
62
0
100
AcDbLine
10
7.138103
20
-159.848007
11
-3.061897
21
-159.848007
0
LINE
8
TAGLIO
5
1047
100
AcDbEntity
62
0
100
AcDbLine
10
-3.061897
20
-159.848007
11
-3.061897
21
-170.048007
0
LINE
8
TAGLIO
5
1048
100
AcDbEntity
62
0
100
AcDbLine
10
-3.061897
20
-170.048007
11
2.038103
21
-170.048007
0
LINE
8
TAGLIO
5
1049
100
AcDbEntity
62
0
100
AcDbLine
10
-51.711897
20
-21.698007
11
-114.211897
21
-21.698007
0
ARC
8
TAGLIO
5
1050
100
AcDbEntity
62
0
100
AcDbCircle
10
-114.211897
20
-23.698007
40
2.000000
100
AcDbArc
50
90.000000
51
180.000000
0
LINE
8
TAGLIO
5
1051
100
AcDbEntity
62
0
100
AcDbLine
10
-116.211897
20
-23.698007
11
-116.211897
21
-63.698007
0
ARC
8
TAGLIO
5
1052
100
AcDbEntity
62
0
100
AcDbCircle
10
-114.211897
20
-63.698007
40
2.000000
100
AcDbArc
50
180.000000
51
270.000000
0
LINE
8
TAGLIO
5
1053
100
AcDbEntity
62
0
100
AcDbLine
10
-114.211897
20
-65.698007
11
10.788103
21
-65.698007
0
ARC
8
TAGLIO
5
1054
100
AcDbEntity
62
0
100
AcDbCircle
10
10.788103
20
-63.698007
40
2.000000
100
AcDbArc
50
270.000000
51
360.000000
0
LINE
8
TAGLIO
5
1055
100
AcDbEntity
62
0
100
AcDbLine
10
12.788103
20
-63.698007
11
12.788103
21
-23.698007
0
ARC
8
TAGLIO
5
1056
100
AcDbEntity
62
0
100
AcDbCircle
10
10.788103
20
-23.698007
40
2.000000
100
AcDbArc
50
0.000000
51
90.000000
0
LINE
8
TAGLIO
5
1057
100
AcDbEntity
62
0
100
AcDbLine
10
10.788103
20
-21.698007
11
-51.711897
21
-21.698007
0
LINE
8
TAGLIO
5
1058
100
AcDbEntity
62
0
100
AcDbLine
10
-80.461897
20
-87.548007
11
-75.361897
21
-87.548007
0
LINE
8
TAGLIO
5
1059
100
AcDbEntity
62
0
100
AcDbLine
10
-75.361897
20
-87.548007
11
-75.361897
21
-77.348007
0
LINE
8
TAGLIO
5
1060
100
AcDbEntity
62
0
100
AcDbLine
10
-75.361897
20
-77.348007
11
-85.561897
21
-77.348007
0
LINE
8
TAGLIO
5
1061
100
AcDbEntity
62
0
100
AcDbLine
10
-85.561897
20
-77.348007
11
-85.561897
21
-87.548007
0
LINE
8
TAGLIO
5
1062
100
AcDbEntity
62
0
100
AcDbLine
10
-85.561897
20
-87.548007
11
-80.461897
21
-87.548007
0
LINE
8
TAGLIO
5
1063
100
AcDbEntity
62
0
100
AcDbLine
10
-80.461897
20
-170.048007
11
-75.361897
21
-170.048007
0
LINE
8
TAGLIO
5
1064
100
AcDbEntity
62
0
100
AcDbLine
10
-75.361897
20
-170.048007
11
-75.361897
21
-159.848007
0
LINE
8
TAGLIO
5
1065
100
AcDbEntity
62
0
100
AcDbLine
10
-75.361897
20
-159.848007
11
-85.561897
21
-159.848007
0
LINE
8
TAGLIO
5
1066
100
AcDbEntity
62
0
100
AcDbLine
10
-85.561897
20
-159.848007
11
-85.561897
21
-170.048007
0
LINE
8
TAGLIO
5
1067
100
AcDbEntity
62
0
100
AcDbLine
10
-85.561897
20
-170.048007
11
-80.461897
21
-170.048007
0
CIRCLE
8
TAGLIO
5
1068
100
AcDbEntity
62
0
100
AcDbCircle
10
-124.211897
20
-73.698007
40
2.500000
0
LINE
8
TAGLIO
5
1069
100
AcDbEntity
62
0
100
AcDbLine
10
-329.900260
20
-34.483798
11
-324.800260
21
-34.483798
0
LINE
8
TAGLIO
5
1070
100
AcDbEntity
62
0
100
AcDbLine
10
-324.800260
20
-34.483798
11
-324.800260
21
-24.283798
0
LINE
8
TAGLIO
5
1071
100
AcDbEntity
62
0
100
AcDbLine
10
-324.800260
20
-24.283798
11
-335.000260
21
-24.283798
0
LINE
8
TAGLIO
5
1072
100
AcDbEntity
62
0
100
AcDbLine
10
-335.000260
20
-24.283798
11
-335.000260
21
-34.483798
0
LINE
8
TAGLIO
5
1073
100
AcDbEntity
62
0
100
AcDbLine
10
-335.000260
20
-34.483798
11
-329.900260
21
-34.483798
0
CIRCLE
8
TAGLIO
5
1074
100
AcDbEntity
62
0
100
AcDbCircle
10
-430.011897
20
4.801993
40
6.250000
0
LINE
8
TAGLIO
5
1075
100
AcDbEntity
62
0
100
AcDbLine
10
-428.523535
20
-43.112216
11
-423.423535
21
-43.112216
0
LINE
8
TAGLIO
5
1076
100
AcDbEntity
62
0
100
AcDbLine
10
-423.423535
20
-43.112216
11
-423.423535
21
-32.912216
0
LINE
8
TAGLIO
5
1077
100
AcDbEntity
62
0
100
AcDbLine
10
-423.423535
20
-32.912216
11
-433.623535
21
-32.912216
0
LINE
8
TAGLIO
5
1078
100
AcDbEntity
62
0
100
AcDbLine
10
-433.623535
20
-32.912216
11
-433.623535
21
-43.112216
0
LINE
8
TAGLIO
5
1079
100
AcDbEntity
62
0
100
AcDbLine
10
-433.623535
20
-43.112216
11
-428.523535
21
-43.112216
0
CIRCLE
8
TAGLIO
5
1080
100
AcDbEntity
62
0
100
AcDbCircle
10
-424.211897
20
-63.698007
40
4.250000
0
LINE
8
TAGLIO
5
1081
100
AcDbEntity
62
0
100
AcDbLine
10
-469.210112
20
-47.299792
11
-464.110112
21
-47.299792
0
LINE
8
TAGLIO
5
1082
100
AcDbEntity
62
0
100
AcDbLine
10
-464.110112
20
-47.299792
11
-464.110112
21
-37.099792
0
LINE
8
TAGLIO
5
1083
100
AcDbEntity
62
0
100
AcDbLine
10
-464.110112
20
-37.099792
11
-474.310112
21
-37.099792
0
LINE
8
TAGLIO
5
1084
100
AcDbEntity
62
0
100
AcDbLine
10
-474.310112
20
-37.099792
11
-474.310112
21
-47.299792
0
LINE
8
TAGLIO
5
1085
100
AcDbEntity
62
0
100
AcDbLine
10
-474.310112
20
-47.299792
11
-469.210112
21
-47.299792
0
CIRCLE
8
TAGLIO
5
1086
100
AcDbEntity
62
0
100
AcDbCircle
10
-560.414510
20
-34.702849
40
6.250000
0
LINE
8
TAGLIO
5
1087
100
AcDbEntity
62
0
100
AcDbLine
10
-613.711897
20
-99.798007
11
-608.611897
21
-99.798007
0
LINE
8
TAGLIO
5
1088
100
AcDbEntity
62
0
100
AcDbLine
10
-608.611897
20
-99.798007
11
-608.611897
21
-89.598007
0
LINE
8
TAGLIO
5
1089
100
AcDbEntity
62
0
100
AcDbLine
10
-608.611897
20
-89.598007
11
-618.811897
21
-89.598007
0
LINE
8
TAGLIO
5
1090
100
AcDbEntity
62
0
100
AcDbLine
10
-618.811897
20
-89.598007
11
-618.811897
21
-99.798007
0
LINE
8
TAGLIO
5
1091
100
AcDbEntity
62
0
100
AcDbLine
10
-618.811897
20
-99.798007
11
-613.711897
21
-99.798007
0
CIRCLE
8
TAGLIO
5
1092
100
AcDbEntity
62
0
100
AcDbCircle
10
-609.902066
20
-61.936567
40
6.250000
0
LINE
8
TAGLIO
5
1093
100
AcDbEntity
62
0
100
AcDbLine
10
-712.711897
20
-99.798007
11
-707.611897
21
-99.798007
0
LINE
8
TAGLIO
5
1094
100
AcDbEntity
62
0
100
AcDbLine
10
-707.611897
20
-99.798007
11
-707.611897
21
-89.598007
0
LINE
8
TAGLIO
5
1095
100
AcDbEntity
62
0
100
AcDbLine
10
-707.611897
20
-89.598007
11
-717.811897
21
-89.598007
0
LINE
8
TAGLIO
5
1096
100
AcDbEntity
62
0
100
AcDbLine
10
-717.811897
20
-89.598007
11
-717.811897
21
-99.798007
0
LINE
8
TAGLIO
5
1097
100
AcDbEntity
62
0
100
AcDbLine
10
-717.811897
20
-99.798007
11
-712.711897
21
-99.798007
0
CIRCLE
8
TAGLIO
5
1098
100
AcDbEntity
62
0
100
AcDbCircle
10
-659.211897
20
7.801993
40
3.250000
0
ARC
8
TAGLIO
5
1099
100
AcDbEntity
62
0
100
AcDbCircle
10
-469.210112
20
-42.199792
40
93.900000
100
AcDbArc
50
132.105042
51
135.000000
0
ARC
8
TAGLIO
5
1100
100
AcDbEntity
62
0
100
AcDbCircle
10
-535.588811
20
31.249975
40
5.100000
100
AcDbArc
50
312.105042
51
132.105042
0
ARC
8
TAGLIO
5
1101
100
AcDbEntity
62
0
100
AcDbCircle
10
-469.210112
20
-42.199792
40
104.100000
100
AcDbArc
50
132.105042
51
137.894958
0
ARC
8
TAGLIO
5
1102
100
AcDbEntity
62
0
100
AcDbCircle
10
-542.659879
20
24.178907
40
5.100000
100
AcDbArc
50
137.894958
51
317.894958
0
ARC
8
TAGLIO
5
1103
100
AcDbEntity
62
0
100
AcDbCircle
10
-469.210112
20
-42.199792
40
93.900000
100
AcDbArc
50
135.000000
51
137.894958
0
CIRCLE
8
TAGLIO
5
1104
100
AcDbEntity
62
0
100
AcDbCircle
10
-613.128674
20
60.301993
40
35.000000
0
CIRCLE
8
TAGLIO
5
1105
100
AcDbEntity
62
0
100
AcDbCircle
10
-659.211897
20
127.801993
40
3.250000
0
LINE
8
0
5
1106
100
AcDbEntity
62
0
100
AcDbLine
10
-678.200965
20
-9.984569
11
-680.851453
21
-14.374513
0
LINE
8
0
5
1107
100
AcDbEntity
62
0
100
AcDbLine
10
-693.537715
20
-35.386485
11
-695.836289
21
-39.193562
0
LINE
8
0
5
1108
100
AcDbEntity
62
0
100
AcDbLine
10
319.206402
20
-49.335076
11
319.206400
21
-23.698007
0
ARC
8
0
5
1109
100
AcDbEntity
62
0
100
AcDbCircle
10
309.206400
20
-23.698007
40
10.000000
100
AcDbArc
50
0.000000
51
90.000000
0
LINE
8
0
5
1110
100
AcDbEntity
62
0
100
AcDbLine
10
309.206400
20
-13.698007
11
287.257255
21
-13.698007
0
ARC
8
TAGLIO
5
1111
100
AcDbEntity
62
0
100
AcDbCircle
10
-109.211897
20
-193.698007
40
5.000000
100
AcDbArc
50
180.000000
51
270.000000
0
LINE
8
TAGLIO
5
1112
100
AcDbEntity
62
0
100
AcDbLine
10
-114.211897
20
-193.698007
11
-114.211897
21
-163.698007
0
ARC
8
TAGLIO
5
1113
100
AcDbEntity
62
0
100
AcDbCircle
10
-104.211897
20
-163.698007
40
10.000000
100
AcDbArc
50
90.000000
51
180.000000
0
LINE
8
TAGLIO
5
1114
100
AcDbEntity
62
0
100
AcDbLine
10
-104.211897
20
-153.698007
11
-41.793600
21
-153.698007
0
ARC
8
TAGLIO
5
1115
100
AcDbEntity
62
0
100
AcDbCircle
10
-41.793600
20
-123.698007
40
30.000000
100
AcDbArc
50
270.000000
51
90.000000
0
LINE
8
TAGLIO
5
1116
100
AcDbEntity
62
0
100
AcDbLine
10
-41.793600
20
-93.698007
11
-110.069762
21
-93.698007
0
ARC
8
TAGLIO
5
1117
100
AcDbEntity
62
0
100
AcDbCircle
10
-110.069762
20
-83.698007
40
10.000000
100
AcDbArc
50
225.000000
51
270.000000
0
LINE
8
TAGLIO
5
1118
100
AcDbEntity
62
0
100
AcDbLine
10
-117.140829
20
-90.769075
11
-161.282965
21
-46.626939
0
ARC
8
TAGLIO
5
1119
100
AcDbEntity
62
0
100
AcDbCircle
10
-168.354033
20
-53.698007
40
10.000000
100
AcDbArc
50
45.000000
51
90.000000
0
LINE
8
TAGLIO
5
1120
100
AcDbEntity
62
0
100
AcDbLine
10
-168.354033
20
-43.698007
11
-295.191386
21
-43.698007
0
ARC
8
TAGLIO
5
1121
100
AcDbEntity
62
0
100
AcDbCircle
10
-295.191386
20
-63.698007
40
20.000000
100
AcDbArc
50
90.000000
51
122.035692
0
LINE
8
TAGLIO
5
1122
100
AcDbEntity
62
0
100
AcDbLine
10
-305.800335
20
-46.743650
11
-352.689525
21
-76.083898
0
ARC
8
TAGLIO
5
1123
100
AcDbEntity
62
0
100
AcDbCircle
10
-379.211897
20
-33.698007
40
50.000000
100
AcDbArc
50
295.944480
51
302.035692
0
ARC
8
TAGLIO
5
1124
100
AcDbEntity
62
0
100
AcDbCircle
10
-358.211897
20
-76.860490
40
2.000000
100
AcDbArc
50
180.000000
51
295.944480
0
LINE
8
TAGLIO
5
1125
100
AcDbEntity
62
0
100
AcDbLine
10
-360.211897
20
-76.860490
11
-360.211897
21
-33.698007
0
ARC
8
TAGLIO
5
1126
100
AcDbEntity
62
0
100
AcDbCircle
10
-379.211897
20
-33.698007
40
19.000000
100
AcDbArc
50
0.000000
51
180.000000
0
LINE
8
TAGLIO
5
1127
100
AcDbEntity
62
0
100
AcDbLine
10
-398.211897
20
-33.698007
11
-398.211897
21
-77.731336
0
ARC
8
TAGLIO
5
1128
100
AcDbEntity
62
0
100
AcDbCircle
10
-400.211897
20
-77.731336
40
2.000000
100
AcDbArc
50
254.792519
51
360.000000
0
LINE
8
TAGLIO
5
1129
100
AcDbEntity
62
0
100
AcDbLine
10
-400.736528
20
-79.661301
11
-483.736528
21
-57.099063
0
ARC
8
TAGLIO
5
1130
100
AcDbEntity
62
0
100
AcDbCircle
10
-483.211897
20
-55.169098
40
2.000000
100
AcDbArc
50
180.000000
51
254.792519
0
LINE
8
TAGLIO
5
1131
100
AcDbEntity
62
0
100
AcDbLine
10
-485.211897
20
-55.169098
11
-485.211897
21
-7.198007
0
ARC
8
TAGLIO
5
1132
100
AcDbEntity
62
0
100
AcDbCircle
10
-504.211897
20
-7.198007
40
19.000000
100
AcDbArc
50
0.000000
51
180.000000
0
LINE
8
TAGLIO
5
1133
100
AcDbEntity
62
0
100
AcDbLine
10
-523.211897
20
-7.198007
11
-523.211897
21
-49.314855
0
ARC
8
TAGLIO
5
1134
100
AcDbEntity
62
0
100
AcDbCircle
10
-525.211897
20
-49.314855
40
2.000000
100
AcDbArc
50
294.697463
51
360.000000
0
LINE
8
TAGLIO
5
1135
100
AcDbEntity
62
0
100
AcDbLine
10
-524.376244
20
-51.131908
11
-586.030316
21
-79.486306
0
ARC
8
TAGLIO
5
1136
100
AcDbEntity
62
0
100
AcDbCircle
10
-581.852047
20
-88.571573
40
10.000000
100
AcDbArc
50
114.697463
51
152.035692
0
LINE
8
TAGLIO
5
1137
100
AcDbEntity
62
0
100
AcDbLine
10
-590.684446
20
-83.882358
11
-600.379035
21
-102.142661
0
ARC
8
TAGLIO
5
1138
100
AcDbEntity
62
0
100
AcDbCircle
10
-609.211433
20
-97.453446
40
10.000000
100
AcDbArc
50
297.035692
51
332.035692
0
LINE
8
TAGLIO
5
1139
100
AcDbEntity
62
0
100
AcDbLine
10
-604.665979
20
-106.360681
11
-646.393715
21
-127.654778
0
ARC
8
TAGLIO
5
1140
100
AcDbEntity
62
0
100
AcDbCircle
10
-663.211897
20
-94.698007
40
37.000000
100
AcDbArc
50
242.964308
51
297.035692
0
LINE
8
TAGLIO
5
1141
100
AcDbEntity
62
0
100
AcDbLine
10
-680.030079
20
-127.654778
11
-717.588062
21
-108.488550
0
ARC
8
TAGLIO
5
1142
100
AcDbEntity
62
0
100
AcDbCircle
10
-708.765463
20
-91.199857
40
19.409718
100
AcDbArc
50
148.877952
51
242.964308
0
LINE
8
TAGLIO
5
1143
100
AcDbEntity
62
0
100
AcDbLine
10
-725.381506
20
-81.167697
11
-721.281550
21
-74.377031
0
ARC
8
TAGLIO
5
1144
100
AcDbEntity
62
0
100
AcDbCircle
10
-719.569413
20
-75.410756
40
2.000000
100
AcDbArc
50
50.464308
51
148.877952
0
LINE
8
TAGLIO
5
1145
100
AcDbEntity
62
0
100
AcDbLine
10
-718.296296
20
-73.868300
11
-675.306514
21
-109.351342
0
ARC
8
TAGLIO
5
1146
100
AcDbEntity
62
0
100
AcDbCircle
10
-663.211897
20
-94.698007
40
19.000000
100
AcDbArc
50
230.464308
51
50.464308
0
LINE
8
TAGLIO
5
1147
100
AcDbEntity
62
0
100
AcDbLine
10
-651.117281
20
-80.044671
11
-697.066680
21
-42.118810
0
LINE
8
TAGLIO
5
1148
100
AcDbEntity
62
0
100
AcDbLine
10
-697.066680
20
-42.118810
11
-695.970834
21
-42.780442
0
ARC
8
TAGLIO
5
1149
100
AcDbEntity
62
0
100
AcDbCircle
10
-695.815775
20
-42.523622
40
0.300000
100
AcDbArc
50
238.877952
51
58.877952
0
LINE
8
TAGLIO
5
1150
100
AcDbEntity
62
0
100
AcDbLine
10
-695.660716
20
-42.266801
11
-705.198079
21
-36.508489
0
ARC
8
TAGLIO
5
1151
100
AcDbEntity
62
0
100
AcDbCircle
10
-700.029451
20
-27.947807
40
10.000000
100
AcDbArc
50
148.877952
51
238.877952
0
LINE
8
TAGLIO
5
1152
100
AcDbEntity
62
0
100
AcDbLine
10
-708.590134
20
-22.779179
11
-699.405030
21
-7.566096
0
ARC
8
TAGLIO
5
1153
100
AcDbEntity
62
0
100
AcDbCircle
10
-690.844347
20
-12.734724
40
10.000000
100
AcDbArc
50
58.877952
51
148.877952
0
LINE
8
TAGLIO
5
1154
100
AcDbEntity
62
0
100
AcDbLine
10
-685.675719
20
-4.174042
11
-676.138356
21
-9.932354
0
ARC
8
TAGLIO
5
1155
100
AcDbEntity
62
0
100
AcDbCircle
10
-675.983297
20
-9.675533
40
0.300000
100
AcDbArc
50
238.877952
51
58.877952
0
LINE
8
TAGLIO
5
1156
100
AcDbEntity
62
0
100
AcDbLine
10
-675.828239
20
-9.418713
11
-680.396732
21
-6.660423
0
LINE
8
TAGLIO
5
1157
100
AcDbEntity
62
0
100
AcDbLine
10
-680.396732
20
-6.660423
11
-679.931556
21
-5.889961
0
ARC
8
TAGLIO
5
1158
100
AcDbEntity
62
0
100
AcDbCircle
10
-684.211897
20
-3.305647
40
5.000000
100
AcDbArc
50
328.877952
51
360.000000
0
LINE
8
TAGLIO
5
1159
100
AcDbEntity
62
0
100
AcDbLine
10
-679.211897
20
-3.305647
11
-679.211897
21
-2.405647
0
LINE
8
TAGLIO
5
1160
100
AcDbEntity
62
0
100
AcDbLine
10
-679.211897
20
-2.405647
11
-673.875297
21
-2.405647
0
ARC
8
TAGLIO
5
1161
100
AcDbEntity
62
0
100
AcDbCircle
10
-673.875297
20
-2.105647
40
0.300000
100
AcDbArc
50
270.000000
51
90.000000
0
LINE
8
TAGLIO
5
1162
100
AcDbEntity
62
0
100
AcDbLine
10
-673.875297
20
-1.805647
11
-685.016188
21
-1.805647
0
ARC
8
TAGLIO
5
1163
100
AcDbEntity
62
0
100
AcDbCircle
10
-685.016188
20
8.194353
40
10.000000
100
AcDbArc
50
180.000000
51
270.000000
0
LINE
8
TAGLIO
5
1164
100
AcDbEntity
62
0
100
AcDbLine
10
-695.016188
20
8.194353
11
-695.016188
21
166.698007
0
ARC
8
TAGLIO
5
1165
100
AcDbEntity
62
0
100
AcDbCircle
10
-685.016188
20
166.698007
40
10.000000
100
AcDbArc
50
90.000000
51
180.000000
0
LINE
8
TAGLIO
5
1166
100
AcDbEntity
62
0
100
AcDbLine
10
-685.016188
20
176.698007
11
-673.875297
21
176.698007
0
ARC
8
TAGLIO
5
1167
100
AcDbEntity
62
0
100
AcDbCircle
10
-673.875297
20
176.998007
40
0.300000
100
AcDbArc
50
270.000000
51
90.000000
0
LINE
8
TAGLIO
5
1168
100
AcDbEntity
62
0
100
AcDbLine
10
-673.875297
20
177.298007
11
-679.211897
21
177.298007
0
LINE
8
TAGLIO
5
1169
100
AcDbEntity
62
0
100
AcDbLine
10
-679.211897
20
177.298007
11
-679.211897
21
178.698007
0
ARC
8
TAGLIO
5
1170
100
AcDbEntity
62
0
100
AcDbCircle
10
-659.211897
20
178.698007
40
20.000000
100
AcDbArc
50
41.633539
51
180.000000
0
LINE
8
TAGLIO
5
1171
100
AcDbEntity
62
0
100
AcDbLine
10
-644.263711
20
191.985284
11
-525.178762
21
58.014716
0
ARC
8
TAGLIO
5
1172
100
AcDbEntity
62
0
100
AcDbCircle
10
-510.230576
20
71.301993
40
20.000000
100
AcDbArc
50
221.633539
51
270.000000
0
LINE
8
TAGLIO
5
1173
100
AcDbEntity
62
0
100
AcDbLine
10
-510.230576
20
51.301993
11
663.349318
21
51.301993
0
LINE
8
TAGLIO
5
1174
100
AcDbEntity
62
0
100
AcDbLine
10
663.349318
20
51.301993
11
725.632392
21
16.156544
0
ARC
8
TAGLIO
5
1175
100
AcDbEntity
62
0
100
AcDbCircle
10
723.175181
20
11.801993
40
5.000000
100
AcDbArc
50
299.435416
51
60.564584
0
LINE
8
TAGLIO
5
1176
100
AcDbEntity
62
0
100
AcDbLine
10
725.632392
20
7.447442
11
663.349318
21
-27.698007
0
LINE
8
TAGLIO
5
1177
100
AcDbEntity
62
0
100
AcDbLine
10
663.349318
20
-27.698007
11
653.349318
21
-27.698007
0
ARC
8
TAGLIO
5
1178
100
AcDbEntity
62
0
100
AcDbCircle
10
653.349318
20
-37.698007
40
10.000000
100
AcDbArc
50
90.000000
51
118.731738
0
LINE
8
TAGLIO
5
1179
100
AcDbEntity
62
0
100
AcDbLine
10
648.542225
20
-28.929207
11
532.077630
21
-92.775585
0
ARC
8
TAGLIO
5
1180
100
AcDbEntity
62
0
100
AcDbCircle
10
527.270537
20
-84.006785
40
10.000000
100
AcDbArc
50
282.000000
51
298.731738
0
LINE
8
TAGLIO
5
1181
100
AcDbEntity
62
0
100
AcDbLine
10
529.349653
20
-93.788261
11
480.140665
21
-104.247954
0
ARC
8
TAGLIO
5
1182
100
AcDbEntity
62
0
100
AcDbCircle
10
479.724841
20
-102.291659
40
2.000000
100
AcDbArc
50
177.747884
51
282.000000
0
LINE
8
TAGLIO
5
1183
100
AcDbEntity
62
0
100
AcDbLine
10
477.726386
20
-102.213065
11
478.659048
21
-78.497558
0
ARC
8
TAGLIO
5
1184
100
AcDbEntity
62
0
100
AcDbCircle
10
459.707648
20
-77.139466
40
19.000000
100
AcDbArc
50
355.901088
51
359.594679
0
ARC
8
TAGLIO
5
1185
100
AcDbEntity
62
0
100
AcDbCircle
10
509.206409
20
-77.489635
40
30.500000
100
AcDbArc
50
168.000000
51
179.594679
0
ARC
8
TAGLIO
5
1186
100
AcDbEntity
62
0
100
AcDbCircle
10
460.788103
20
-67.198007
40
19.000000
100
AcDbArc
50
348.000000
51
168.000000
0
ARC
8
TAGLIO
5
1187
100
AcDbEntity
62
0
100
AcDbCircle
10
509.206409
20
-77.489635
40
68.500000
100
AcDbArc
50
168.000000
51
179.594679
0
LINE
8
TAGLIO
5
1188
100
AcDbEntity
62
0
100
AcDbLine
10
440.708123
20
-77.005058
11
440.467099
21
-111.075400
0
ARC
8
TAGLIO
5
1189
100
AcDbEntity
62
0
100
AcDbCircle
10
438.467149
20
-111.061252
40
2.000000
100
AcDbArc
50
282.000000
51
359.594679
0
LINE
8
TAGLIO
5
1190
100
AcDbEntity
62
0
100
AcDbLine
10
438.882973
20
-113.017547
11
36.816177
21
-198.479483
0
ARC
8
TAGLIO
5
1191
100
AcDbEntity
62
0
100
AcDbCircle
10
34.737060
20
-188.698007
40
10.000000
100
AcDbArc
50
270.000000
51
282.000000
0
LINE
8
TAGLIO
5
1192
100
AcDbEntity
62
0
100
AcDbLine
10
34.737060
20
-198.698007
11
-109.211897
21
-198.698007
0
ENDSEC
  0
SECTION
  2
OBJECTS
  0
DICTIONARY
  5
C
330
0
100
AcDbDictionary
  3
ACAD_GROUP
350
D
  3
ACAD_LAYOUT
350
1A
  3
ACAD_MLINESTYLE
350
17
  3
ACAD_PLOTSETTINGS
350
19
1001
ACAD
1000
TREAT_AS_HARD
1070
     0
  0
DICTIONARY
  5
56
330
1F
100
AcDbDictionary
  3
ACAD_LAYOUTSELFREF
350
57
  0
DICTIONARY
  5
54
330
1B
100
AcDbDictionary
  3
ACAD_LAYOUTSELFREF
350
55
  0
DICTIONARY
  5
D
102
{ACAD_REACTORS
330
C
102
}
330
C
100
AcDbDictionary
1001
ACAD
1000
TREAT_AS_HARD
1070
     0
  0
DICTIONARY
  5
1A
102
{ACAD_REACTORS
330
C
102
}
330
C
100
AcDbDictionary
1001
ACAD
1000
TREAT_AS_HARD
1070
     0
  0
DICTIONARY
  5
17
102
{ACAD_REACTORS
330
C
102
}
330
C
100
AcDbDictionary
  3
STANDARD
350
18
1001
ACAD
1000
TREAT_AS_HARD
1070
     0
  0
DICTIONARY
  5
19
102
{ACAD_REACTORS
330
C
102
}
330
C
100
AcDbDictionary
1001
ACAD
1000
TREAT_AS_HARD
1070
     0
  0
XRECORD
  5
57
102
{ACAD_REACTORS
330
56
102
}
330
56
100
AcDbXrecord
340
1F
  0
XRECORD
  5
55
102
{ACAD_REACTORS
330
54
102
}
330
54
100
AcDbXrecord
340
1B
  0
MLINESTYLE
  5
18
102
{ACAD_REACTORS
330
17
102
}
330
17
100
AcDbMlineStyle
  2
STANDARD
 70
     0
  3

 62
   256
 51
90.0
 52
90.0
 71
     2
 49
0.5
 62
   256
  6
BYLAYER
 49
-0.5
 62
   256
  6
BYLAYER
  0
ENDSEC
  0
EOF
