<?xml version="1.0" standalone="no"?>
<svg viewBox="0 0 1024 768" version="1.1" xmlns="http://www.w3.org/2000/svg" xmlns:xlink="http://www.w3.org/1999/xlink" stroke-linecap="round" stroke-linejoin="round" fill-rule="evenodd" xml:space="preserve" >
<defs >
<clipPath id="clipId0" >
<path d="M0,768 1024,768 1024,0 0,0 z" />
</clipPath>
</defs>
<g clip-path="url(#clipId0)" fill="none" stroke="rgb(0,0,0)" stroke-width="0.1" />
<g clip-path="url(#clipId0)" fill="none" stroke="rgb(0,0,0)" stroke-width="0.25" >
<circle cx="653.976" cy="242.024" r="9.32213" />
<path d="M616.14,655.935  A50.1961,50.1961 0 0,0 557.268,616.268 " />
<path d="M461.099,615.099  A236.639,236.639 0 0,0 557.268,616.268 " />
<path d="M461.099,615.099  A50.1961,50.1961 0 0,0 439.505,713.142 " />
<path d="M439.505,713.142  A337.031,337.031 0 0,0 576.473,714.807 " />
<path d="M576.473,714.807  A50.1961,50.1961 0 0,0 616.14,655.935 " />
<path d="M837.246,472.346  A337.031,337.031 0 0,0 848.903,393.285 " />
<path d="M848.903,393.285  A50.1961,50.1961 0 0,0 748.549,390.519 " />
<path d="M719.34,498.053  A236.639,236.639 0 0,0 748.549,390.519 " />
<path d="M719.34,498.053  A50.1961,50.1961 0 0,0 807.302,546.439 " />
<path d="M807.302,546.439  A337.031,337.031 0 0,0 837.246,472.346 " />
<circle cx="512" cy="384" r="376.471" />
<circle cx="370.024" cy="525.976" r="9.32213" />
<circle cx="653.976" cy="525.976" r="9.32213" />
<circle cx="370.024" cy="242.024" r="9.32213" />
<path d="M731.918,193.134  A50.1961,50.1961 0 0,0 714.778,262.021 " />
<path d="M728.882,289.343  A236.639,236.639 0 0,0 714.778,262.021 " />
<path d="M728.882,289.343  A50.1961,50.1961 0 1,0 820.893,249.185 " />
<path d="M820.893,249.185  A337.031,337.031 0 0,0 800.806,210.273 " />
<path d="M800.806,210.273  A50.1961,50.1961 0 0,0 731.918,193.134 " />
<path d="M229.973,199.472  A337.031,337.031 0 0,0 193.277,274.432 " />
<path d="M193.277,274.432  A50.1961,50.1961 0 1,0 288.216,307.069 " />
<path d="M351.89,209.751  A236.639,236.639 0 0,0 288.216,307.069 " />
<path d="M351.89,209.751  A50.1961,50.1961 0 0,0 283.964,135.828 " />
<path d="M283.964,135.828  A337.031,337.031 0 0,0 229.973,199.472 " />
<polyline points="620.967,121.007 632.247,107.121 " />
<path d="M632.247,107.121  A39.4398,39.4398 0 0,0 584.658,46.6541 " />
<path d="M560.008,50.4059  A43.0252,43.0252 0 0,0 584.658,46.6541 " />
<path d="M560.008,50.4059  A337.031,337.031 0 0,0 411.094,62.4292 " />
<path d="M411.094,62.4292  A50.1961,50.1961 0 0,0 441.151,158.216 " />
<path d="M560.449,152.374  A236.639,236.639 0 0,0 441.151,158.216 " />
<path d="M560.449,152.374  A50.1961,50.1961 0 0,0 609.686,134.892 " />
<polyline points="609.686,134.892 620.967,121.007 " />
<path d="M240.623,489.585  A50.1961,50.1961 0 0,0 223.673,558.519 " />
<path d="M223.673,558.519  A337.031,337.031 0 0,0 306.462,651.103 " />
<path d="M306.462,651.103  A50.1961,50.1961 0 0,0 367.686,571.54 " />
<path d="M309.557,506.535  A236.639,236.639 0 0,0 367.686,571.54 " />
<path d="M309.557,506.535  A50.1961,50.1961 0 0,0 240.623,489.585 " />
<circle cx="512" cy="384" r="169.232" />
</g>
<g clip-path="url(#clipId0)" fill="none" stroke="rgb(91,91,91)" stroke-width="0.25" >
<polyline points="173.176,730.353 173.176,718.945 178.881,718.945 180.782,720.846 180.782,722.747 178.881,724.649 173.176,724.649 " />
<polyline points="184.585,718.945 184.585,728.452 186.486,730.353 " />
<polyline points="190.289,726.55 195.993,726.55 197.894,724.649 195.993,722.747 192.19,722.747 190.289,724.649 190.289,728.452 192.19,730.353 195.993,730.353 " />
<polyline points="205.5,730.353 203.598,730.353 201.697,728.452 201.697,724.649 203.598,722.747 205.5,722.747 207.401,724.649 207.401,728.452 205.5,730.353 " />
<polyline points="207.401,728.452 209.302,730.353 " />
<polyline points="213.105,730.353 218.809,730.353 220.711,728.452 218.809,726.55 215.007,726.55 213.105,724.649 215.007,722.747 220.711,722.747 " />
<polyline points="224.513,726.55 230.217,726.55 232.119,724.649 230.217,722.747 226.415,722.747 224.513,724.649 224.513,728.452 226.415,730.353 230.217,730.353 " />
<polyline points="247.33,732.254 249.231,734.156 253.034,734.156 254.935,732.254 254.935,724.649 253.034,722.747 249.231,722.747 247.33,724.649 247.33,728.452 249.231,730.353 254.935,730.353 " />
<polyline points="264.442,730.353 260.639,730.353 258.738,728.452 258.738,724.649 260.639,722.747 264.442,722.747 266.343,724.649 266.343,728.452 264.442,730.353 " />
<polyline points="281.554,722.747 289.16,722.747 " />
<polyline points="285.357,718.945 285.357,728.452 287.258,730.353 289.16,728.452 " />
<polyline points="298.667,730.353 294.864,730.353 292.963,728.452 292.963,724.649 294.864,722.747 298.667,722.747 300.568,724.649 300.568,728.452 298.667,730.353 " />
<polyline points="315.779,722.747 317.68,730.353 319.582,722.747 321.483,730.353 323.384,722.747 " />
<polyline points="327.187,722.747 329.089,730.353 330.99,722.747 332.891,730.353 334.793,722.747 " />
<polyline points="338.595,722.747 340.497,730.353 342.398,722.747 344.299,730.353 346.201,722.747 " />
<polyline points="350.004,730.353 350.004,728.452 " />
<polyline points="357.609,730.353 355.708,730.353 353.806,728.452 353.806,724.649 355.708,722.747 357.609,722.747 359.51,724.649 359.51,728.452 357.609,730.353 " />
<polyline points="359.51,728.452 361.412,730.353 " />
<polyline points="365.214,722.747 365.214,728.452 367.116,730.353 369.017,730.353 372.82,726.55 " />
<polyline points="372.82,722.747 372.82,730.353 " />
<polyline points="376.623,722.747 384.228,722.747 " />
<polyline points="380.425,718.945 380.425,728.452 382.327,730.353 384.228,728.452 " />
<polyline points="393.735,730.353 389.932,730.353 388.031,728.452 388.031,724.649 389.932,722.747 393.735,722.747 395.636,724.649 395.636,728.452 393.735,730.353 " />
<polyline points="407.045,726.55 403.242,730.353 401.34,730.353 399.439,728.452 399.439,724.649 401.34,722.747 403.242,722.747 407.045,726.55 " />
<polyline points="407.045,718.945 407.045,730.353 " />
<polyline points="410.847,722.747 412.749,730.353 414.65,722.747 416.551,730.353 418.453,722.747 " />
<polyline points="422.255,732.254 424.157,734.156 427.96,734.156 429.861,732.254 429.861,724.649 427.96,722.747 424.157,722.747 422.255,724.649 422.255,728.452 424.157,730.353 429.861,730.353 " />
<polyline points="433.664,730.353 433.664,728.452 " />
<polyline points="445.072,722.747 439.368,722.747 437.466,724.649 437.466,728.452 439.368,730.353 445.072,730.353 " />
<polyline points="454.579,730.353 450.776,730.353 448.875,728.452 448.875,724.649 450.776,722.747 454.579,722.747 456.48,724.649 456.48,728.452 454.579,730.353 " />
<polyline points="460.283,730.353 460.283,722.747 " />
<polyline points="460.283,724.649 462.184,722.747 464.086,724.649 464.086,726.55 " />
<polyline points="464.086,724.649 465.987,722.747 467.888,724.649 467.888,730.353 " />
<polyline points="483.099,722.747 490.705,722.747 " />
<polyline points="486.902,718.945 486.902,728.452 488.803,730.353 490.705,728.452 " />
<polyline points="500.212,730.353 496.409,730.353 494.507,728.452 494.507,724.649 496.409,722.747 500.212,722.747 502.113,724.649 502.113,728.452 500.212,730.353 " />
<polyline points="517.324,730.353 517.324,722.747 " />
<polyline points="517.324,726.55 521.127,722.747 523.028,722.747 524.929,724.649 " />
<polyline points="528.732,726.55 534.436,726.55 536.337,724.649 534.436,722.747 530.633,722.747 528.732,724.649 528.732,728.452 530.633,730.353 534.436,730.353 " />
<polyline points="540.14,732.254 542.042,734.156 545.844,734.156 547.746,732.254 547.746,724.649 545.844,722.747 542.042,722.747 540.14,724.649 540.14,728.452 542.042,730.353 547.746,730.353 " />
<polyline points="551.548,730.353 551.548,722.747 " />
<polyline points="551.548,720.846 551.548,718.945 " />
<polyline points="555.351,730.353 561.055,730.353 562.957,728.452 561.055,726.55 557.253,726.55 555.351,724.649 557.253,722.747 562.957,722.747 " />
<polyline points="566.759,722.747 574.365,722.747 " />
<polyline points="570.562,718.945 570.562,728.452 572.463,730.353 574.365,728.452 " />
<polyline points="578.168,726.55 583.872,726.55 585.773,724.649 583.872,722.747 580.069,722.747 578.168,724.649 578.168,728.452 580.069,730.353 583.872,730.353 " />
<polyline points="589.576,730.353 589.576,722.747 " />
<polyline points="589.576,726.55 593.378,722.747 595.28,722.747 597.181,724.649 " />
<polyline points="616.195,730.353 614.294,730.353 612.392,728.452 612.392,724.649 614.294,722.747 616.195,722.747 618.096,724.649 618.096,728.452 616.195,730.353 " />
<polyline points="618.096,728.452 619.998,730.353 " />
<polyline points="623.8,730.353 623.8,722.747 " />
<polyline points="623.8,726.55 627.603,722.747 629.504,722.747 631.406,724.649 631.406,730.353 " />
<polyline points="642.814,726.55 639.011,730.353 637.11,730.353 635.209,728.452 635.209,724.649 637.11,722.747 639.011,722.747 642.814,726.55 " />
<polyline points="642.814,718.945 642.814,730.353 " />
<polyline points="658.025,726.55 663.729,726.55 665.63,724.649 663.729,722.747 659.926,722.747 658.025,724.649 658.025,728.452 659.926,730.353 663.729,730.353 " />
<polyline points="669.433,718.945 669.433,728.452 671.335,730.353 " />
<polyline points="675.137,730.353 675.137,722.747 " />
<polyline points="675.137,720.846 675.137,718.945 " />
<polyline points="678.94,730.353 678.94,722.747 " />
<polyline points="678.94,724.649 680.841,722.747 682.743,724.649 682.743,726.55 " />
<polyline points="682.743,724.649 684.644,722.747 686.545,724.649 686.545,730.353 " />
<polyline points="690.348,730.353 690.348,722.747 " />
<polyline points="690.348,720.846 690.348,718.945 " />
<polyline points="694.151,730.353 694.151,722.747 " />
<polyline points="694.151,726.55 697.954,722.747 699.855,722.747 701.756,724.649 701.756,730.353 " />
<polyline points="709.362,730.353 707.46,730.353 705.559,728.452 705.559,724.649 707.46,722.747 709.362,722.747 711.263,724.649 711.263,728.452 709.362,730.353 " />
<polyline points="711.263,728.452 713.165,730.353 " />
<polyline points="716.967,722.747 724.573,722.747 " />
<polyline points="720.77,718.945 720.77,728.452 722.671,730.353 724.573,728.452 " />
<polyline points="728.376,726.55 734.08,726.55 735.981,724.649 734.08,722.747 730.277,722.747 728.376,724.649 728.376,728.452 730.277,730.353 734.08,730.353 " />
<polyline points="751.192,730.353 756.896,730.353 758.797,728.452 756.896,726.55 753.093,726.55 751.192,724.649 753.093,722.747 758.797,722.747 " />
<polyline points="762.6,722.747 762.6,728.452 764.501,730.353 766.403,730.353 770.206,726.55 " />
<polyline points="770.206,722.747 770.206,730.353 " />
<polyline points="781.614,722.747 775.91,722.747 774.008,724.649 774.008,728.452 775.91,730.353 781.614,730.353 " />
<polyline points="785.417,730.353 785.417,718.945 " />
<polyline points="785.417,726.55 789.219,722.747 791.121,722.747 793.022,724.649 793.022,730.353 " />
<polyline points="808.233,718.945 808.233,728.452 810.134,730.353 " />
<polyline points="813.937,730.353 813.937,722.747 " />
<polyline points="813.937,720.846 813.937,718.945 " />
<polyline points="817.74,730.353 817.74,722.747 " />
<polyline points="817.74,724.649 819.641,722.747 821.542,724.649 821.542,726.55 " />
<polyline points="821.542,724.649 823.444,722.747 825.345,724.649 825.345,730.353 " />
<polyline points="829.148,730.353 829.148,722.747 " />
<polyline points="829.148,720.846 829.148,718.945 " />
<polyline points="832.951,722.747 840.556,722.747 " />
<polyline points="836.753,718.945 836.753,728.452 838.655,730.353 840.556,728.452 " />
<polyline points="844.359,730.353 850.063,730.353 851.964,728.452 850.063,726.55 846.26,726.55 844.359,724.649 846.26,722.747 851.964,722.747 " />
<polyline points="855.767,730.353 855.767,728.452 " />
<polyline points="173.176,698.41 180.782,698.41 " />
<polyline points="176.979,698.41 176.979,709.818 " />
<polyline points="184.585,709.818 184.585,698.41 " />
<polyline points="184.585,706.015 188.387,702.213 190.289,702.213 192.19,704.114 192.19,709.818 " />
<polyline points="195.993,706.015 201.697,706.015 203.598,704.114 201.697,702.213 197.894,702.213 195.993,704.114 195.993,707.917 197.894,709.818 201.697,709.818 " />
<polyline points="218.809,709.818 218.809,702.213 " />
<polyline points="218.809,706.015 222.612,702.213 224.513,702.213 226.415,704.114 226.415,709.818 " />
<polyline points="235.922,709.818 232.119,709.818 230.217,707.917 230.217,704.114 232.119,702.213 235.922,702.213 237.823,704.114 237.823,707.917 235.922,709.818 " />
<polyline points="241.626,702.213 249.231,702.213 " />
<polyline points="245.428,698.41 245.428,707.917 247.33,709.818 249.231,707.917 " />
<polyline points="253.034,706.015 258.738,706.015 260.639,704.114 258.738,702.213 254.935,702.213 253.034,704.114 253.034,707.917 254.935,709.818 258.738,709.818 " />
<polyline points="279.653,709.818 277.752,709.818 275.85,707.917 275.85,704.114 277.752,702.213 279.653,702.213 281.554,704.114 281.554,707.917 279.653,709.818 " />
<polyline points="281.554,707.917 283.456,709.818 " />
<polyline points="287.258,709.818 287.258,702.213 " />
<polyline points="287.258,706.015 291.061,702.213 292.963,702.213 294.864,704.114 294.864,709.818 " />
<polyline points="306.272,706.015 302.469,709.818 300.568,709.818 298.667,707.917 298.667,704.114 300.568,702.213 302.469,702.213 306.272,706.015 " />
<polyline points="306.272,698.41 306.272,709.818 " />
<polyline points="321.483,702.213 323.384,709.818 325.286,702.213 327.187,709.818 329.089,702.213 " />
<polyline points="336.694,709.818 334.793,709.818 332.891,707.917 332.891,704.114 334.793,702.213 336.694,702.213 338.595,704.114 338.595,707.917 336.694,709.818 " />
<polyline points="338.595,707.917 340.497,709.818 " />
<polyline points="344.299,702.213 351.905,702.213 " />
<polyline points="348.102,698.41 348.102,707.917 350.004,709.818 351.905,707.917 " />
<polyline points="355.708,706.015 361.412,706.015 363.313,704.114 361.412,702.213 357.609,702.213 355.708,704.114 355.708,707.917 357.609,709.818 361.412,709.818 " />
<polyline points="367.116,709.818 367.116,702.213 " />
<polyline points="367.116,706.015 370.919,702.213 372.82,702.213 374.721,704.114 " />
<polyline points="378.524,709.818 378.524,702.213 " />
<polyline points="378.524,704.114 380.425,702.213 382.327,704.114 382.327,706.015 " />
<polyline points="382.327,704.114 384.228,702.213 386.13,704.114 386.13,709.818 " />
<polyline points="393.735,709.818 391.834,709.818 389.932,707.917 389.932,704.114 391.834,702.213 393.735,702.213 395.636,704.114 395.636,707.917 393.735,709.818 " />
<polyline points="395.636,707.917 397.538,709.818 " />
<polyline points="401.34,709.818 401.34,702.213 " />
<polyline points="401.34,706.015 405.143,702.213 407.045,702.213 408.946,704.114 " />
<polyline points="412.749,709.818 412.749,698.41 " />
<polyline points="412.749,706.015 416.551,706.015 420.354,702.213 " />
<polyline points="416.551,706.015 420.354,709.818 " />
<polyline points="441.269,709.818 437.466,709.818 435.565,707.917 435.565,704.114 437.466,702.213 441.269,702.213 443.171,704.114 443.171,707.917 441.269,709.818 " />
<polyline points="446.973,709.818 446.973,702.213 " />
<polyline points="446.973,706.015 450.776,702.213 452.677,702.213 454.579,704.114 454.579,709.818 " />
<polyline points="458.381,698.41 458.381,707.917 460.283,709.818 " />
<polyline points="464.086,702.213 467.888,709.818 " />
<polyline points="471.691,702.213 465.987,713.621 464.086,713.621 " />
<polyline points="486.902,706.015 492.606,706.015 494.507,704.114 492.606,702.213 488.803,702.213 486.902,704.114 486.902,707.917 488.803,709.818 492.606,709.818 " />
<polyline points="498.31,709.818 505.916,702.213 " />
<polyline points="498.31,702.213 505.916,709.818 " />
<polyline points="509.718,709.818 509.718,702.213 " />
<polyline points="509.718,700.311 509.718,698.41 " />
<polyline points="513.521,709.818 519.225,709.818 521.127,707.917 519.225,706.015 515.422,706.015 513.521,704.114 515.422,702.213 521.127,702.213 " />
<polyline points="524.929,702.213 532.535,702.213 " />
<polyline points="528.732,698.41 528.732,707.917 530.633,709.818 532.535,707.917 " />
<polyline points="547.746,709.818 547.746,702.213 " />
<polyline points="547.746,700.311 547.746,698.41 " />
<polyline points="551.548,709.818 551.548,702.213 " />
<polyline points="551.548,706.015 555.351,702.213 557.253,702.213 559.154,704.114 559.154,709.818 " />
<polyline points="574.365,702.213 581.97,702.213 " />
<polyline points="578.168,698.41 578.168,707.917 580.069,709.818 581.97,707.917 " />
<polyline points="585.773,709.818 585.773,698.41 " />
<polyline points="585.773,706.015 589.576,702.213 591.477,702.213 593.378,704.114 593.378,709.818 " />
<polyline points="597.181,706.015 602.885,706.015 604.787,704.114 602.885,702.213 599.083,702.213 597.181,704.114 597.181,707.917 599.083,709.818 602.885,709.818 " />
<polyline points="619.998,702.213 627.603,702.213 " />
<polyline points="623.8,698.41 623.8,707.917 625.702,709.818 627.603,707.917 " />
<polyline points="631.406,709.818 631.406,702.213 " />
<polyline points="631.406,706.015 635.209,702.213 637.11,702.213 639.011,704.114 " />
<polyline points="642.814,709.818 642.814,702.213 " />
<polyline points="642.814,700.311 642.814,698.41 " />
<polyline points="650.419,709.818 648.518,709.818 646.617,707.917 646.617,704.114 648.518,702.213 650.419,702.213 652.321,704.114 652.321,707.917 650.419,709.818 " />
<polyline points="652.321,707.917 654.222,709.818 " />
<polyline points="658.025,698.41 658.025,707.917 659.926,709.818 " />
<polyline points="675.137,702.213 678.94,709.818 682.743,702.213 " />
<polyline points="686.545,706.015 692.25,706.015 694.151,704.114 692.25,702.213 688.447,702.213 686.545,704.114 686.545,707.917 688.447,709.818 692.25,709.818 " />
<polyline points="697.954,709.818 697.954,702.213 " />
<polyline points="697.954,706.015 701.756,702.213 703.658,702.213 705.559,704.114 " />
<polyline points="709.362,709.818 715.066,709.818 716.967,707.917 715.066,706.015 711.263,706.015 709.362,704.114 711.263,702.213 716.967,702.213 " />
<polyline points="720.77,709.818 720.77,702.213 " />
<polyline points="720.77,700.311 720.77,698.41 " />
<polyline points="730.277,709.818 726.474,709.818 724.573,707.917 724.573,704.114 726.474,702.213 730.277,702.213 732.178,704.114 732.178,707.917 730.277,709.818 " />
<polyline points="735.981,709.818 735.981,702.213 " />
<polyline points="735.981,706.015 739.784,702.213 741.685,702.213 743.586,704.114 743.586,709.818 " />
<polyline points="747.389,709.818 747.389,707.917 " />
</g>
<g clip-path="url(#clipId0)" fill="none" stroke="rgb(0,0,255)" stroke-width="0.25" >
<polyline points="210.824,384 210.824,379.05 215.774,369.149 220.724,379.05 220.724,384 " />
<polyline points="210.824,379.05 220.724,379.05 " />
<polyline points="225.674,374.099 225.674,381.525 228.15,384 230.625,384 235.575,379.05 " />
<polyline points="235.575,374.099 235.575,384 " />
<polyline points="240.525,374.099 250.426,374.099 " />
<polyline points="245.476,369.149 245.476,381.525 247.951,384 250.426,381.525 " />
<polyline points="262.802,384 257.851,384 255.376,381.525 255.376,376.575 257.851,374.099 262.802,374.099 265.277,376.575 265.277,381.525 262.802,384 " />
<polyline points="270.227,384 277.653,384 280.128,381.525 280.128,371.624 277.653,369.149 270.227,369.149 " />
<polyline points="272.702,369.149 272.702,384 " />
<polyline points="285.078,369.149 290.028,384 292.504,376.575 294.979,384 299.929,369.149 " />
<polyline points="312.305,376.575 314.78,376.575 314.78,384 307.354,384 304.879,381.525 304.879,371.624 307.354,369.149 314.78,369.149 " />
<polyline points="334.581,384 342.007,384 344.482,381.525 344.482,371.624 342.007,369.149 334.581,369.149 " />
<polyline points="337.056,369.149 337.056,384 " />
<polyline points="349.432,369.149 354.382,384 356.857,376.575 359.333,384 364.283,369.149 " />
<polyline points="376.659,376.575 379.134,376.575 379.134,384 371.708,384 369.233,381.525 369.233,371.624 371.708,369.149 379.134,369.149 " />
<polyline points="398.935,374.099 408.836,374.099 " />
<polyline points="403.885,369.149 403.885,381.525 406.361,384 408.836,381.525 " />
<polyline points="421.211,384 416.261,384 413.786,381.525 413.786,376.575 416.261,374.099 421.211,374.099 423.687,376.575 423.687,381.525 421.211,384 " />
<polyline points="443.488,381.525 445.963,384 450.913,384 453.388,381.525 443.488,371.624 445.963,369.149 450.913,369.149 453.388,371.624 " />
<polyline points="458.339,369.149 465.764,384 473.19,369.149 " />
<polyline points="485.565,376.575 488.041,376.575 488.041,384 480.615,384 478.14,381.525 478.14,371.624 480.615,369.149 488.041,369.149 " />
<polyline points="517.742,381.525 515.267,384 510.317,384 507.842,381.525 507.842,371.624 510.317,369.149 515.267,369.149 517.742,371.624 " />
<polyline points="530.118,384 525.168,384 522.693,381.525 522.693,376.575 525.168,374.099 530.118,374.099 532.593,376.575 532.593,381.525 530.118,384 " />
<polyline points="537.544,384 537.544,374.099 " />
<polyline points="537.544,379.05 542.494,374.099 544.969,374.099 547.444,376.575 547.444,384 " />
<polyline points="552.394,374.099 557.345,384 562.295,374.099 " />
<polyline points="567.245,379.05 574.671,379.05 577.146,376.575 574.671,374.099 569.721,374.099 567.245,376.575 567.245,381.525 569.721,384 574.671,384 " />
<polyline points="582.096,384 582.096,374.099 " />
<polyline points="582.096,379.05 587.047,374.099 589.522,374.099 591.997,376.575 " />
<polyline points="596.947,374.099 606.848,374.099 " />
<polyline points="601.898,369.149 601.898,381.525 604.373,384 606.848,381.525 " />
<polyline points="611.798,379.05 619.224,379.05 621.699,376.575 619.224,374.099 614.273,374.099 611.798,376.575 611.798,381.525 614.273,384 619.224,384 " />
<polyline points="626.649,384 626.649,374.099 " />
<polyline points="626.649,379.05 631.599,374.099 634.074,374.099 636.55,376.575 " />
<polyline points="656.351,384 656.351,369.149 666.251,369.149 " />
<polyline points="656.351,376.575 661.301,376.575 " />
<polyline points="671.202,384 671.202,369.149 678.627,369.149 681.102,371.624 681.102,374.099 678.627,376.575 671.202,376.575 " />
<polyline points="673.677,376.575 681.102,384 " />
<polyline points="686.053,384 686.053,369.149 695.953,369.149 " />
<polyline points="686.053,376.575 691.003,376.575 " />
<polyline points="686.053,384 695.953,384 " />
<polyline points="700.904,384 700.904,369.149 710.804,369.149 " />
<polyline points="700.904,376.575 705.854,376.575 " />
<polyline points="700.904,384 710.804,384 " />
<polyline points="730.605,369.149 740.506,369.149 " />
<polyline points="735.556,369.149 735.556,384 " />
<polyline points="745.456,384 745.456,369.149 752.882,369.149 755.357,371.624 755.357,374.099 752.882,376.575 745.456,376.575 " />
<polyline points="747.931,376.575 755.357,384 " />
<polyline points="760.307,369.149 765.258,369.149 " />
<polyline points="762.782,369.149 762.782,384 " />
<polyline points="760.307,384 765.258,384 " />
<polyline points="770.208,384 770.208,379.05 775.158,369.149 780.108,379.05 780.108,384 " />
<polyline points="770.208,379.05 780.108,379.05 " />
<polyline points="785.059,369.149 785.059,384 794.959,384 " />
</g>
</svg>
