<?xml version="1.0" standalone="no"?>
<svg viewBox="0 0 1024 768" version="1.1" xmlns="http://www.w3.org/2000/svg" xmlns:xlink="http://www.w3.org/1999/xlink" stroke-linecap="round" stroke-linejoin="round" fill-rule="evenodd" xml:space="preserve" style="background-color:rgb(0,0,0);" >
<defs >
<clipPath id="clipId0" >
<path d="M0,768 1024,768 1024,0 0,0 z" />
</clipPath>
</defs>
<rect width="100%" height="100%" fill="rgb(0,0,0)" />
<g clip-path="url(#clipId0)" fill="none" stroke="rgb(255,255,255)" stroke-width="0.1" >
<circle cx="653.976" cy="242.024" r="9.32213" />
<path d="M616.14,655.935  A50.1961,50.1961 0 0,0 557.268,616.268 " />
<path d="M461.099,615.099  A236.639,236.639 0 0,0 557.268,616.268 " />
<path d="M461.099,615.099  A50.1961,50.1961 0 0,0 439.505,713.142 " />
<path d="M439.505,713.142  A337.031,337.031 0 0,0 576.473,714.807 " />
<path d="M576.473,714.807  A50.1961,50.1961 0 0,0 616.14,655.935 " />
<path d="M837.246,472.346  A337.031,337.031 0 0,0 848.903,393.285 " />
<path d="M848.903,393.285  A50.1961,50.1961 0 0,0 748.549,390.519 " />
<path d="M719.34,498.053  A236.639,236.639 0 0,0 748.549,390.519 " />
<path d="M719.34,498.053  A50.1961,50.1961 0 0,0 807.302,546.439 " />
<path d="M807.302,546.439  A337.031,337.031 0 0,0 837.246,472.346 " />
<circle cx="512" cy="384" r="376.471" />
<circle cx="370.024" cy="525.976" r="9.32213" />
<circle cx="653.976" cy="525.976" r="9.32213" />
<circle cx="370.024" cy="242.024" r="9.32213" />
<path d="M731.918,193.134  A50.1961,50.1961 0 0,0 714.778,262.021 " />
<path d="M728.882,289.343  A236.639,236.639 0 0,0 714.778,262.021 " />
<path d="M728.882,289.343  A50.1961,50.1961 0 1,0 820.893,249.185 " />
<path d="M820.893,249.185  A337.031,337.031 0 0,0 800.806,210.273 " />
<path d="M800.806,210.273  A50.1961,50.1961 0 0,0 731.918,193.134 " />
<path d="M229.973,199.472  A337.031,337.031 0 0,0 193.277,274.432 " />
<path d="M193.277,274.432  A50.1961,50.1961 0 1,0 288.216,307.069 " />
<path d="M351.89,209.751  A236.639,236.639 0 0,0 288.216,307.069 " />
<path d="M351.89,209.751  A50.1961,50.1961 0 0,0 283.964,135.828 " />
<path d="M283.964,135.828  A337.031,337.031 0 0,0 229.973,199.472 " />
<polyline points="620.967,121.007 632.247,107.121 " />
<path d="M632.247,107.121  A39.4398,39.4398 0 0,0 584.658,46.6541 " />
<path d="M560.008,50.4059  A43.0252,43.0252 0 0,0 584.658,46.6541 " />
<path d="M560.008,50.4059  A337.031,337.031 0 0,0 411.094,62.4292 " />
<path d="M411.094,62.4292  A50.1961,50.1961 0 0,0 441.151,158.216 " />
<path d="M560.449,152.374  A236.639,236.639 0 0,0 441.151,158.216 " />
<path d="M560.449,152.374  A50.1961,50.1961 0 0,0 609.686,134.892 " />
<polyline points="609.686,134.892 620.967,121.007 " />
<path d="M240.623,489.585  A50.1961,50.1961 0 0,0 223.673,558.519 " />
<path d="M223.673,558.519  A337.031,337.031 0 0,0 306.462,651.103 " />
<path d="M306.462,651.103  A50.1961,50.1961 0 0,0 367.686,571.54 " />
<path d="M309.557,506.535  A236.639,236.639 0 0,0 367.686,571.54 " />
<path d="M309.557,506.535  A50.1961,50.1961 0 0,0 240.623,489.585 " />
<circle cx="512" cy="384" r="169.232" />
</g>
</svg>
