<?xml version="1.0" standalone="no"?>
<svg viewBox="0 0 1024 768" version="1.1" xmlns="http://www.w3.org/2000/svg" xmlns:xlink="http://www.w3.org/1999/xlink" stroke-linecap="round" stroke-linejoin="round" fill-rule="evenodd" xml:space="preserve" >
<defs >
<clipPath id="clipId0" >
<path d="M0,768 1024,768 1024,0 0,0 z" />
</clipPath>
</defs>
<g clip-path="url(#clipId0)" fill="none" stroke="rgb(0,0,0)" stroke-width="0.1" />
<g clip-path="url(#clipId0)" fill="none" stroke="rgb(0,0,0)" stroke-width="0.25" >
<polyline points="545.674,32.3331 567.932,51.0097 " />
<path d="M567.932,51.0097  A65.4731,65.4731 0 0,0 593.855,64.3014 " />
<path d="M419.308,64.3014  A353.555,353.555 0 1,0 593.855,64.3014 " />
<path d="M419.308,64.3014  A65.4731,65.4731 0 0,0 445.232,51.0097 " />
<polyline points="445.232,51.0097 489.748,13.6565 " />
<path d="M523.416,13.6565  A26.1893,26.1893 0 0,0 489.748,13.6565 " />
<polyline points="523.416,13.6565 545.674,32.3331 " />
<path d="M767.534,525.838  A286.772,286.772 0 0,0 789.355,454.642 " />
<path d="M789.355,454.642  A7.85678,7.85678 0 0,0 773.861,452.026 " />
<path d="M715.978,579.038  A271.059,271.059 0 0,0 773.861,452.026 " />
<path d="M715.978,579.038  A7.85678,7.85678 0 0,0 728.117,589.016 " />
<path d="M728.117,589.016  A286.772,286.772 0 0,0 767.534,525.838 " />
<path d="M609.506,629.104  A244.87,244.87 0 0,0 658.85,598.685 " />
<path d="M658.85,598.685  A7.85678,7.85678 0 0,0 649.078,586.379 " />
<path d="M551.327,631.661  A229.156,229.156 0 0,0 649.078,586.379 " />
<path d="M551.327,631.661  A7.85678,7.85678 0 0,0 554.396,647.072 " />
<path d="M554.396,647.072  A244.87,244.87 0 0,0 609.506,629.104 " />
<path d="M692.516,488.303  A202.967,202.967 0 0,0 705.165,448.872 " />
<path d="M705.165,448.872  A7.85678,7.85678 0 0,0 689.791,445.624 " />
<path d="M659.312,515.255  A187.253,187.253 0 0,0 689.791,445.624 " />
<path d="M659.312,515.255  A7.85678,7.85678 0 0,0 672.128,524.346 " />
<path d="M672.128,524.346  A202.967,202.967 0 0,0 692.516,488.303 " />
<path d="M730.029,507.079  A244.87,244.87 0 0,0 747.312,451.75 " />
<path d="M747.312,451.75  A7.85678,7.85678 0 0,0 731.864,448.873 " />
<path d="M687.798,547.177  A229.156,229.156 0 0,0 731.864,448.873 " />
<path d="M687.798,547.177  A7.85678,7.85678 0 1,0 700.224,556.795 " />
<path d="M700.224,556.795  A244.87,244.87 0 0,0 730.029,507.079 " />
<circle cx="506.582" cy="33.7187" r="13.0946" />
<circle cx="506.582" cy="406.916" r="61.5448" />
<path d="M387.659,145.964  A286.772,286.772 0 0,0 324.481,185.381 " />
<path d="M324.481,185.381  A7.85678,7.85678 0 0,0 334.46,197.519 " />
<path d="M461.471,139.637  A271.059,271.059 0 0,0 334.46,197.519 " />
<path d="M461.471,139.637  A7.85678,7.85678 0 0,0 458.856,124.142 " />
<path d="M458.856,124.142  A286.772,286.772 0 0,0 387.659,145.964 " />
<path d="M403.658,184.727  A244.87,244.87 0 0,0 354.314,215.146 " />
<path d="M354.314,215.146  A7.85678,7.85678 0 1,0 364.086,227.452 " />
<path d="M461.837,182.171  A229.156,229.156 0 0,0 364.086,227.452 " />
<path d="M461.837,182.171  A7.85678,7.85678 0 0,0 458.768,166.759 " />
<path d="M458.768,166.759  A244.87,244.87 0 0,0 403.658,184.727 " />
<path d="M245.63,287.993  A286.772,286.772 0 0,0 223.809,359.19 " />
<path d="M223.809,359.19  A7.85678,7.85678 0 0,0 239.303,361.805 " />
<path d="M297.186,234.793  A271.059,271.059 0 0,0 239.303,361.805 " />
<path d="M297.186,234.793  A7.85678,7.85678 0 0,0 285.047,224.815 " />
<path d="M285.047,224.815  A286.772,286.772 0 0,0 245.63,287.993 " />
<path d="M283.135,306.752  A244.87,244.87 0 0,0 265.852,362.082 " />
<path d="M265.852,362.082  A7.85678,7.85678 0 0,0 281.3,364.959 " />
<path d="M325.366,266.654  A229.156,229.156 0 0,0 281.3,364.959 " />
<path d="M325.366,266.654  A7.85678,7.85678 0 0,0 312.94,257.036 " />
<path d="M312.94,257.036  A244.87,244.87 0 0,0 283.135,306.752 " />
<path d="M625.504,667.867  A286.772,286.772 0 0,0 688.682,628.451 " />
<path d="M688.682,628.451  A7.85678,7.85678 0 0,0 678.704,616.312 " />
<path d="M551.693,674.194  A271.059,271.059 0 0,0 678.704,616.312 " />
<path d="M551.693,674.194  A7.85678,7.85678 0 0,0 554.308,689.689 " />
<path d="M554.308,689.689  A286.772,286.772 0 0,0 625.504,667.867 " />
<path d="M419.65,223.508  A202.967,202.967 0 0,0 384.236,244.968 " />
<path d="M384.236,244.968  A7.85678,7.85678 0 0,0 393.708,257.506 " />
<path d="M462.392,224.951  A187.253,187.253 0 0,0 393.708,257.506 " />
<path d="M462.392,224.951  A7.85678,7.85678 0 0,0 458.684,209.682 " />
<path d="M458.684,209.682  A202.967,202.967 0 0,0 419.65,223.508 " />
<path d="M320.648,325.528  A202.967,202.967 0 0,0 307.999,364.959 " />
<path d="M307.999,364.959  A7.85678,7.85678 0 0,0 323.373,368.207 " />
<path d="M353.852,298.577  A187.253,187.253 0 0,0 323.373,368.207 " />
<path d="M353.852,298.577  A7.85678,7.85678 0 0,0 341.036,289.485 " />
<path d="M341.036,289.485  A202.967,202.967 0 0,0 320.648,325.528 " />
<path d="M593.513,590.323  A202.967,202.967 0 0,0 628.928,568.863 " />
<path d="M628.928,568.863  A7.85678,7.85678 0 0,0 619.456,556.325 " />
<path d="M550.772,588.88  A187.253,187.253 0 0,0 619.456,556.325 " />
<path d="M550.772,588.88  A7.85678,7.85678 0 0,0 554.48,604.15 " />
<path d="M554.48,604.15  A202.967,202.967 0 0,0 593.513,590.323 " />
</g>
<g clip-path="url(#clipId0)" fill="none" stroke="rgb(91,91,91)" stroke-width="0.25" >
<polyline points="188.382,730.353 188.382,718.945 194.087,718.945 195.988,720.846 195.988,722.747 194.087,724.649 188.382,724.649 " />
<polyline points="199.791,718.945 199.791,728.452 201.692,730.353 " />
<polyline points="205.495,726.55 211.199,726.55 213.1,724.649 211.199,722.747 207.396,722.747 205.495,724.649 205.495,728.452 207.396,730.353 211.199,730.353 " />
<polyline points="220.706,730.353 218.804,730.353 216.903,728.452 216.903,724.649 218.804,722.747 220.706,722.747 222.607,724.649 222.607,728.452 220.706,730.353 " />
<polyline points="222.607,728.452 224.508,730.353 " />
<polyline points="228.311,730.353 234.015,730.353 235.917,728.452 234.015,726.55 230.213,726.55 228.311,724.649 230.213,722.747 235.917,722.747 " />
<polyline points="239.719,726.55 245.423,726.55 247.325,724.649 245.423,722.747 241.621,722.747 239.719,724.649 239.719,728.452 241.621,730.353 245.423,730.353 " />
<polyline points="262.536,732.254 264.437,734.156 268.24,734.156 270.141,732.254 270.141,724.649 268.24,722.747 264.437,722.747 262.536,724.649 262.536,728.452 264.437,730.353 270.141,730.353 " />
<polyline points="279.648,730.353 275.845,730.353 273.944,728.452 273.944,724.649 275.845,722.747 279.648,722.747 281.549,724.649 281.549,728.452 279.648,730.353 " />
<polyline points="296.76,722.747 304.366,722.747 " />
<polyline points="300.563,718.945 300.563,728.452 302.464,730.353 304.366,728.452 " />
<polyline points="313.873,730.353 310.07,730.353 308.169,728.452 308.169,724.649 310.07,722.747 313.873,722.747 315.774,724.649 315.774,728.452 313.873,730.353 " />
<polyline points="330.985,722.747 332.886,730.353 334.788,722.747 336.689,730.353 338.59,722.747 " />
<polyline points="342.393,722.747 344.295,730.353 346.196,722.747 348.097,730.353 349.999,722.747 " />
<polyline points="353.801,722.747 355.703,730.353 357.604,722.747 359.505,730.353 361.407,722.747 " />
<polyline points="365.21,730.353 365.21,728.452 " />
<polyline points="372.815,730.353 370.914,730.353 369.012,728.452 369.012,724.649 370.914,722.747 372.815,722.747 374.716,724.649 374.716,728.452 372.815,730.353 " />
<polyline points="374.716,728.452 376.618,730.353 " />
<polyline points="380.42,722.747 380.42,728.452 382.322,730.353 384.223,730.353 388.026,726.55 " />
<polyline points="388.026,722.747 388.026,730.353 " />
<polyline points="391.829,722.747 399.434,722.747 " />
<polyline points="395.631,718.945 395.631,728.452 397.533,730.353 399.434,728.452 " />
<polyline points="408.941,730.353 405.138,730.353 403.237,728.452 403.237,724.649 405.138,722.747 408.941,722.747 410.842,724.649 410.842,728.452 408.941,730.353 " />
<polyline points="422.251,726.55 418.448,730.353 416.546,730.353 414.645,728.452 414.645,724.649 416.546,722.747 418.448,722.747 422.251,726.55 " />
<polyline points="422.251,718.945 422.251,730.353 " />
<polyline points="426.053,722.747 427.955,730.353 429.856,722.747 431.757,730.353 433.659,722.747 " />
<polyline points="437.461,732.254 439.363,734.156 443.166,734.156 445.067,732.254 445.067,724.649 443.166,722.747 439.363,722.747 437.461,724.649 437.461,728.452 439.363,730.353 445.067,730.353 " />
<polyline points="448.87,730.353 448.87,728.452 " />
<polyline points="460.278,722.747 454.574,722.747 452.672,724.649 452.672,728.452 454.574,730.353 460.278,730.353 " />
<polyline points="469.785,730.353 465.982,730.353 464.081,728.452 464.081,724.649 465.982,722.747 469.785,722.747 471.686,724.649 471.686,728.452 469.785,730.353 " />
<polyline points="475.489,730.353 475.489,722.747 " />
<polyline points="475.489,724.649 477.39,722.747 479.292,724.649 479.292,726.55 " />
<polyline points="479.292,724.649 481.193,722.747 483.094,724.649 483.094,730.353 " />
<polyline points="498.305,722.747 505.911,722.747 " />
<polyline points="502.108,718.945 502.108,728.452 504.009,730.353 505.911,728.452 " />
<polyline points="515.417,730.353 511.615,730.353 509.713,728.452 509.713,724.649 511.615,722.747 515.417,722.747 517.319,724.649 517.319,728.452 515.417,730.353 " />
<polyline points="532.53,730.353 532.53,722.747 " />
<polyline points="532.53,726.55 536.333,722.747 538.234,722.747 540.135,724.649 " />
<polyline points="543.938,726.55 549.642,726.55 551.543,724.649 549.642,722.747 545.839,722.747 543.938,724.649 543.938,728.452 545.839,730.353 549.642,730.353 " />
<polyline points="555.346,732.254 557.248,734.156 561.05,734.156 562.952,732.254 562.952,724.649 561.05,722.747 557.248,722.747 555.346,724.649 555.346,728.452 557.248,730.353 562.952,730.353 " />
<polyline points="566.754,730.353 566.754,722.747 " />
<polyline points="566.754,720.846 566.754,718.945 " />
<polyline points="570.557,730.353 576.261,730.353 578.163,728.452 576.261,726.55 572.458,726.55 570.557,724.649 572.458,722.747 578.163,722.747 " />
<polyline points="581.965,722.747 589.571,722.747 " />
<polyline points="585.768,718.945 585.768,728.452 587.669,730.353 589.571,728.452 " />
<polyline points="593.374,726.55 599.078,726.55 600.979,724.649 599.078,722.747 595.275,722.747 593.374,724.649 593.374,728.452 595.275,730.353 599.078,730.353 " />
<polyline points="604.782,730.353 604.782,722.747 " />
<polyline points="604.782,726.55 608.584,722.747 610.486,722.747 612.387,724.649 " />
<polyline points="631.401,730.353 629.499,730.353 627.598,728.452 627.598,724.649 629.499,722.747 631.401,722.747 633.302,724.649 633.302,728.452 631.401,730.353 " />
<polyline points="633.302,728.452 635.204,730.353 " />
<polyline points="639.006,730.353 639.006,722.747 " />
<polyline points="639.006,726.55 642.809,722.747 644.71,722.747 646.612,724.649 646.612,730.353 " />
<polyline points="658.02,726.55 654.217,730.353 652.316,730.353 650.415,728.452 650.415,724.649 652.316,722.747 654.217,722.747 658.02,726.55 " />
<polyline points="658.02,718.945 658.02,730.353 " />
<polyline points="673.231,726.55 678.935,726.55 680.836,724.649 678.935,722.747 675.132,722.747 673.231,724.649 673.231,728.452 675.132,730.353 678.935,730.353 " />
<polyline points="684.639,718.945 684.639,728.452 686.54,730.353 " />
<polyline points="690.343,730.353 690.343,722.747 " />
<polyline points="690.343,720.846 690.343,718.945 " />
<polyline points="694.146,730.353 694.146,722.747 " />
<polyline points="694.146,724.649 696.047,722.747 697.949,724.649 697.949,726.55 " />
<polyline points="697.949,724.649 699.85,722.747 701.751,724.649 701.751,730.353 " />
<polyline points="705.554,730.353 705.554,722.747 " />
<polyline points="705.554,720.846 705.554,718.945 " />
<polyline points="709.357,730.353 709.357,722.747 " />
<polyline points="709.357,726.55 713.16,722.747 715.061,722.747 716.962,724.649 716.962,730.353 " />
<polyline points="724.568,730.353 722.666,730.353 720.765,728.452 720.765,724.649 722.666,722.747 724.568,722.747 726.469,724.649 726.469,728.452 724.568,730.353 " />
<polyline points="726.469,728.452 728.371,730.353 " />
<polyline points="732.173,722.747 739.779,722.747 " />
<polyline points="735.976,718.945 735.976,728.452 737.877,730.353 739.779,728.452 " />
<polyline points="743.581,726.55 749.286,726.55 751.187,724.649 749.286,722.747 745.483,722.747 743.581,724.649 743.581,728.452 745.483,730.353 749.286,730.353 " />
<polyline points="766.398,730.353 772.102,730.353 774.003,728.452 772.102,726.55 768.299,726.55 766.398,724.649 768.299,722.747 774.003,722.747 " />
<polyline points="777.806,722.747 777.806,728.452 779.707,730.353 781.609,730.353 785.412,726.55 " />
<polyline points="785.412,722.747 785.412,730.353 " />
<polyline points="796.82,722.747 791.116,722.747 789.214,724.649 789.214,728.452 791.116,730.353 796.82,730.353 " />
<polyline points="800.622,730.353 800.622,718.945 " />
<polyline points="800.622,726.55 804.425,722.747 806.327,722.747 808.228,724.649 808.228,730.353 " />
<polyline points="823.439,718.945 823.439,728.452 825.34,730.353 " />
<polyline points="829.143,730.353 829.143,722.747 " />
<polyline points="829.143,720.846 829.143,718.945 " />
<polyline points="832.946,730.353 832.946,722.747 " />
<polyline points="832.946,724.649 834.847,722.747 836.748,724.649 836.748,726.55 " />
<polyline points="836.748,724.649 838.65,722.747 840.551,724.649 840.551,730.353 " />
<polyline points="844.354,730.353 844.354,722.747 " />
<polyline points="844.354,720.846 844.354,718.945 " />
<polyline points="848.157,722.747 855.762,722.747 " />
<polyline points="851.959,718.945 851.959,728.452 853.861,730.353 855.762,728.452 " />
<polyline points="859.565,730.353 865.269,730.353 867.17,728.452 865.269,726.55 861.466,726.55 859.565,724.649 861.466,722.747 867.17,722.747 " />
<polyline points="870.973,730.353 870.973,728.452 " />
<polyline points="188.382,698.41 195.988,698.41 " />
<polyline points="192.185,698.41 192.185,709.818 " />
<polyline points="199.791,709.818 199.791,698.41 " />
<polyline points="199.791,706.015 203.593,702.213 205.495,702.213 207.396,704.114 207.396,709.818 " />
<polyline points="211.199,706.015 216.903,706.015 218.804,704.114 216.903,702.213 213.1,702.213 211.199,704.114 211.199,707.917 213.1,709.818 216.903,709.818 " />
<polyline points="234.015,709.818 234.015,702.213 " />
<polyline points="234.015,706.015 237.818,702.213 239.719,702.213 241.621,704.114 241.621,709.818 " />
<polyline points="251.128,709.818 247.325,709.818 245.423,707.917 245.423,704.114 247.325,702.213 251.128,702.213 253.029,704.114 253.029,707.917 251.128,709.818 " />
<polyline points="256.832,702.213 264.437,702.213 " />
<polyline points="260.634,698.41 260.634,707.917 262.536,709.818 264.437,707.917 " />
<polyline points="268.24,706.015 273.944,706.015 275.845,704.114 273.944,702.213 270.141,702.213 268.24,704.114 268.24,707.917 270.141,709.818 273.944,709.818 " />
<polyline points="294.859,709.818 292.958,709.818 291.056,707.917 291.056,704.114 292.958,702.213 294.859,702.213 296.76,704.114 296.76,707.917 294.859,709.818 " />
<polyline points="296.76,707.917 298.662,709.818 " />
<polyline points="302.464,709.818 302.464,702.213 " />
<polyline points="302.464,706.015 306.267,702.213 308.169,702.213 310.07,704.114 310.07,709.818 " />
<polyline points="321.478,706.015 317.675,709.818 315.774,709.818 313.873,707.917 313.873,704.114 315.774,702.213 317.675,702.213 321.478,706.015 " />
<polyline points="321.478,698.41 321.478,709.818 " />
<polyline points="336.689,702.213 338.59,709.818 340.492,702.213 342.393,709.818 344.295,702.213 " />
<polyline points="351.9,709.818 349.999,709.818 348.097,707.917 348.097,704.114 349.999,702.213 351.9,702.213 353.801,704.114 353.801,707.917 351.9,709.818 " />
<polyline points="353.801,707.917 355.703,709.818 " />
<polyline points="359.505,702.213 367.111,702.213 " />
<polyline points="363.308,698.41 363.308,707.917 365.21,709.818 367.111,707.917 " />
<polyline points="370.914,706.015 376.618,706.015 378.519,704.114 376.618,702.213 372.815,702.213 370.914,704.114 370.914,707.917 372.815,709.818 376.618,709.818 " />
<polyline points="382.322,709.818 382.322,702.213 " />
<polyline points="382.322,706.015 386.125,702.213 388.026,702.213 389.927,704.114 " />
<polyline points="393.73,709.818 393.73,702.213 " />
<polyline points="393.73,704.114 395.631,702.213 397.533,704.114 397.533,706.015 " />
<polyline points="397.533,704.114 399.434,702.213 401.336,704.114 401.336,709.818 " />
<polyline points="408.941,709.818 407.04,709.818 405.138,707.917 405.138,704.114 407.04,702.213 408.941,702.213 410.842,704.114 410.842,707.917 408.941,709.818 " />
<polyline points="410.842,707.917 412.744,709.818 " />
<polyline points="416.546,709.818 416.546,702.213 " />
<polyline points="416.546,706.015 420.349,702.213 422.251,702.213 424.152,704.114 " />
<polyline points="427.955,709.818 427.955,698.41 " />
<polyline points="427.955,706.015 431.757,706.015 435.56,702.213 " />
<polyline points="431.757,706.015 435.56,709.818 " />
<polyline points="456.475,709.818 452.672,709.818 450.771,707.917 450.771,704.114 452.672,702.213 456.475,702.213 458.377,704.114 458.377,707.917 456.475,709.818 " />
<polyline points="462.179,709.818 462.179,702.213 " />
<polyline points="462.179,706.015 465.982,702.213 467.883,702.213 469.785,704.114 469.785,709.818 " />
<polyline points="473.587,698.41 473.587,707.917 475.489,709.818 " />
<polyline points="479.292,702.213 483.094,709.818 " />
<polyline points="486.897,702.213 481.193,713.621 479.292,713.621 " />
<polyline points="502.108,706.015 507.812,706.015 509.713,704.114 507.812,702.213 504.009,702.213 502.108,704.114 502.108,707.917 504.009,709.818 507.812,709.818 " />
<polyline points="513.516,709.818 521.122,702.213 " />
<polyline points="513.516,702.213 521.122,709.818 " />
<polyline points="524.924,709.818 524.924,702.213 " />
<polyline points="524.924,700.311 524.924,698.41 " />
<polyline points="528.727,709.818 534.431,709.818 536.333,707.917 534.431,706.015 530.628,706.015 528.727,704.114 530.628,702.213 536.333,702.213 " />
<polyline points="540.135,702.213 547.741,702.213 " />
<polyline points="543.938,698.41 543.938,707.917 545.839,709.818 547.741,707.917 " />
<polyline points="562.952,709.818 562.952,702.213 " />
<polyline points="562.952,700.311 562.952,698.41 " />
<polyline points="566.754,709.818 566.754,702.213 " />
<polyline points="566.754,706.015 570.557,702.213 572.458,702.213 574.36,704.114 574.36,709.818 " />
<polyline points="589.571,702.213 597.176,702.213 " />
<polyline points="593.374,698.41 593.374,707.917 595.275,709.818 597.176,707.917 " />
<polyline points="600.979,709.818 600.979,698.41 " />
<polyline points="600.979,706.015 604.782,702.213 606.683,702.213 608.584,704.114 608.584,709.818 " />
<polyline points="612.387,706.015 618.091,706.015 619.993,704.114 618.091,702.213 614.289,702.213 612.387,704.114 612.387,707.917 614.289,709.818 618.091,709.818 " />
<polyline points="635.204,702.213 642.809,702.213 " />
<polyline points="639.006,698.41 639.006,707.917 640.908,709.818 642.809,707.917 " />
<polyline points="646.612,709.818 646.612,702.213 " />
<polyline points="646.612,706.015 650.415,702.213 652.316,702.213 654.217,704.114 " />
<polyline points="658.02,709.818 658.02,702.213 " />
<polyline points="658.02,700.311 658.02,698.41 " />
<polyline points="665.625,709.818 663.724,709.818 661.823,707.917 661.823,704.114 663.724,702.213 665.625,702.213 667.527,704.114 667.527,707.917 665.625,709.818 " />
<polyline points="667.527,707.917 669.428,709.818 " />
<polyline points="673.231,698.41 673.231,707.917 675.132,709.818 " />
<polyline points="690.343,702.213 694.146,709.818 697.949,702.213 " />
<polyline points="701.751,706.015 707.456,706.015 709.357,704.114 707.456,702.213 703.653,702.213 701.751,704.114 701.751,707.917 703.653,709.818 707.456,709.818 " />
<polyline points="713.16,709.818 713.16,702.213 " />
<polyline points="713.16,706.015 716.962,702.213 718.864,702.213 720.765,704.114 " />
<polyline points="724.568,709.818 730.272,709.818 732.173,707.917 730.272,706.015 726.469,706.015 724.568,704.114 726.469,702.213 732.173,702.213 " />
<polyline points="735.976,709.818 735.976,702.213 " />
<polyline points="735.976,700.311 735.976,698.41 " />
<polyline points="745.483,709.818 741.68,709.818 739.779,707.917 739.779,704.114 741.68,702.213 745.483,702.213 747.384,704.114 747.384,707.917 745.483,709.818 " />
<polyline points="751.187,709.818 751.187,702.213 " />
<polyline points="751.187,706.015 754.99,702.213 756.891,702.213 758.792,704.114 758.792,709.818 " />
<polyline points="762.595,709.818 762.595,707.917 " />
</g>
<g clip-path="url(#clipId0)" fill="none" stroke="rgb(0,0,255)" stroke-width="0.25" >
<polyline points="223.738,384 223.738,379.05 228.688,369.149 233.639,379.05 233.639,384 " />
<polyline points="223.738,379.05 233.639,379.05 " />
<polyline points="238.589,374.099 238.589,381.525 241.064,384 243.539,384 248.489,379.05 " />
<polyline points="248.489,374.099 248.489,384 " />
<polyline points="253.44,374.099 263.34,374.099 " />
<polyline points="258.39,369.149 258.39,381.525 260.865,384 263.34,381.525 " />
<polyline points="275.716,384 270.766,384 268.291,381.525 268.291,376.575 270.766,374.099 275.716,374.099 278.191,376.575 278.191,381.525 275.716,384 " />
<polyline points="283.142,384 290.567,384 293.042,381.525 293.042,371.624 290.567,369.149 283.142,369.149 " />
<polyline points="285.617,369.149 285.617,384 " />
<polyline points="297.992,369.149 302.943,384 305.418,376.575 307.893,384 312.843,369.149 " />
<polyline points="325.219,376.575 327.694,376.575 327.694,384 320.269,384 317.794,381.525 317.794,371.624 320.269,369.149 327.694,369.149 " />
<polyline points="347.496,384 354.921,384 357.396,381.525 357.396,371.624 354.921,369.149 347.496,369.149 " />
<polyline points="349.971,369.149 349.971,384 " />
<polyline points="362.346,369.149 367.297,384 369.772,376.575 372.247,384 377.197,369.149 " />
<polyline points="389.573,376.575 392.048,376.575 392.048,384 384.623,384 382.148,381.525 382.148,371.624 384.623,369.149 392.048,369.149 " />
<polyline points="411.849,374.099 421.75,374.099 " />
<polyline points="416.8,369.149 416.8,381.525 419.275,384 421.75,381.525 " />
<polyline points="434.126,384 429.176,384 426.7,381.525 426.7,376.575 429.176,374.099 434.126,374.099 436.601,376.575 436.601,381.525 434.126,384 " />
<polyline points="456.402,381.525 458.877,384 463.828,384 466.303,381.525 456.402,371.624 458.877,369.149 463.828,369.149 466.303,371.624 " />
<polyline points="471.253,369.149 478.679,384 486.104,369.149 " />
<polyline points="498.48,376.575 500.955,376.575 500.955,384 493.529,384 491.054,381.525 491.054,371.624 493.529,369.149 500.955,369.149 " />
<polyline points="530.657,381.525 528.182,384 523.231,384 520.756,381.525 520.756,371.624 523.231,369.149 528.182,369.149 530.657,371.624 " />
<polyline points="543.033,384 538.082,384 535.607,381.525 535.607,376.575 538.082,374.099 543.033,374.099 545.508,376.575 545.508,381.525 543.033,384 " />
<polyline points="550.458,384 550.458,374.099 " />
<polyline points="550.458,379.05 555.408,374.099 557.883,374.099 560.359,376.575 560.359,384 " />
<polyline points="565.309,374.099 570.259,384 575.209,374.099 " />
<polyline points="580.16,379.05 587.585,379.05 590.06,376.575 587.585,374.099 582.635,374.099 580.16,376.575 580.16,381.525 582.635,384 587.585,384 " />
<polyline points="595.011,384 595.011,374.099 " />
<polyline points="595.011,379.05 599.961,374.099 602.436,374.099 604.911,376.575 " />
<polyline points="609.862,374.099 619.762,374.099 " />
<polyline points="614.812,369.149 614.812,381.525 617.287,384 619.762,381.525 " />
<polyline points="624.713,379.05 632.138,379.05 634.613,376.575 632.138,374.099 627.188,374.099 624.713,376.575 624.713,381.525 627.188,384 632.138,384 " />
<polyline points="639.563,384 639.563,374.099 " />
<polyline points="639.563,379.05 644.514,374.099 646.989,374.099 649.464,376.575 " />
<polyline points="669.265,384 669.265,369.149 679.166,369.149 " />
<polyline points="669.265,376.575 674.216,376.575 " />
<polyline points="684.116,384 684.116,369.149 691.542,369.149 694.017,371.624 694.017,374.099 691.542,376.575 684.116,376.575 " />
<polyline points="686.591,376.575 694.017,384 " />
<polyline points="698.967,384 698.967,369.149 708.868,369.149 " />
<polyline points="698.967,376.575 703.917,376.575 " />
<polyline points="698.967,384 708.868,384 " />
<polyline points="713.818,384 713.818,369.149 723.719,369.149 " />
<polyline points="713.818,376.575 718.768,376.575 " />
<polyline points="713.818,384 723.719,384 " />
<polyline points="743.52,369.149 753.42,369.149 " />
<polyline points="748.47,369.149 748.47,384 " />
<polyline points="758.371,384 758.371,369.149 765.796,369.149 768.271,371.624 768.271,374.099 765.796,376.575 758.371,376.575 " />
<polyline points="760.846,376.575 768.271,384 " />
<polyline points="773.222,369.149 778.172,369.149 " />
<polyline points="775.697,369.149 775.697,384 " />
<polyline points="773.222,384 778.172,384 " />
<polyline points="783.122,384 783.122,379.05 788.073,369.149 793.023,379.05 793.023,384 " />
<polyline points="783.122,379.05 793.023,379.05 " />
<polyline points="797.973,369.149 797.973,384 807.874,384 " />
</g>
</svg>
